<svg id="_01_03.svg" data-name="01_03.svg" xmlns="http://www.w3.org/2000/svg" width="82" height="95" viewBox="0 0 82 95"><defs><style>.cls-1,.cls-2{fill:#202e5c;fill-rule:evenodd}.cls-2{fill:#ff4f2f}</style></defs><path class="cls-1" d="M1202.14 801.694q16.425 0 32.84-.011a.715.715 0 0 1 .86.858c-.01 3.912-.01 7.823.02 11.734.01.785-.41.793-.97.792-8.22-.008-16.44.019-24.66-.015a15.075 15.075 0 0 0-11.32 4.617 13.182 13.182 0 0 0-3.55 6.328 2.706 2.706 0 0 1-.2.63c-1.04 2.062-.72 4.234-.54 6.4a8.86 8.86 0 0 1 .08 1.025 17.914 17.914 0 0 0 1.91 8.527 8.354 8.354 0 0 0 2.17 3.171 24.622 24.622 0 0 0 6.51 3.834 15.348 15.348 0 0 0 5.69.794c2.88-.03 5.75-.153 8.62-.167 1.79-.009 3.59.17 5.39.161 3.26-.018 6.52-.119 9.78-.175 1.06-.019 1.1.013 1.07 1.051-.04 2.209-.16 4.417-.15 6.625 0 2.406.08 4.811.16 7.217a.727.727 0 0 1-.87.909q-11.385-.045-22.75-.04c-6.15 0-12.29.009-18.44 0q-9.765-.014-19.53-.059a29.488 29.488 0 0 1-4.87-.192 12.125 12.125 0 0 1-8.49-5.813 13.879 13.879 0 0 1-1.9-7.6c.03-17.146-.03-34.293.03-51.438a12.243 12.243 0 0 1 5.04-9.867c2.92-2.3 6.29-2.705 9.83-2.488a.568.568 0 0 1 .62.645q-.015 2.878 0 5.756a.639.639 0 0 1-.79.7c-1.42 0-2.83-.013-4.24.02a2.932 2.932 0 0 0-2.71 1.7 2.853 2.853 0 0 0 .29 3.126 2.564 2.564 0 0 0 2 1.184c.71.03 1.42.051 2.12.052h30.95zm18.73 19.6c3.86 0 7.71.048 11.56-.013a8.624 8.624 0 0 1 8.53 8.717c-.03 1.672.06 3.348-.02 5.017a11.375 11.375 0 0 1-.5 3.251 6.973 6.973 0 0 1-1.62 2.4 16.07 16.07 0 0 1-3.18 2.644 6.046 6.046 0 0 1-2.89.638c-3.36.03-6.72-.105-10.08-.105-3.16 0-6.33.182-9.49.118a51.394 51.394 0 0 1-6.44-.6 4.375 4.375 0 0 1-3.01-1.727 16.179 16.179 0 0 1-2.44-4.222 7.709 7.709 0 0 1-.42-2.786c0-1.919-.12-3.853.07-5.753a8.283 8.283 0 0 1 4.72-6.724 8.665 8.665 0 0 1 4.24-.873c3.66.02 7.32.006 10.97.006v.012zm-4.63 11.381a4.329 4.329 0 0 0-4.13-4.3c-2.21-.113-4.74 2.294-4.63 4.225a4.6 4.6 0 0 0 4.39 4.576 4.762 4.762 0 0 0 4.37-4.505zm16.08-44.175c.93 0 1.85.013 2.78-.007a.613.613 0 0 1 .74.73c-.01 1.891-.01 3.781.01 5.672a.618.618 0 0 1-.74.732c-1.9-.021-3.79-.025-5.69-.009a.58.58 0 0 1-.67-.718q.015-2.835 0-5.671a.6.6 0 0 1 .72-.737c.95.025 1.9.008 2.85.008z" transform="translate(-1159 -771)"/><path class="cls-2" d="M1200.58 771.037c5.46 0 10.93.072 16.39-.03a4.412 4.412 0 0 1 4.61 4.64c-.05 6.37-.01 12.74.01 19.11a.726.726 0 0 1-.87.86q-3.4-.034-6.8 0a.808.808 0 0 1-.94-.983c.02-3.024-.01-6.05.03-9.074a1.061 1.061 0 0 0-.88-1.266 5.119 5.119 0 0 1-3.33-2.566c-.27-.513-.38-1.113-.66-1.623a1.043 1.043 0 0 0-.72-.521c-4.51-.032-9.02-.02-13.53-.036a.894.894 0 0 0-1 .757 5.187 5.187 0 0 1-4.07 4.068.888.888 0 0 0-.76 1.077c.02 3.05.01 6.1.01 9.15 0 1.006 0 1.007-1.03 1.008-2.22 0-4.44-.012-6.65.011a.739.739 0 0 1-.91-.884c.02-6.345.04-12.691 0-19.035a4.448 4.448 0 0 1 2.78-4.411 6.557 6.557 0 0 1 1.94-.276c5.46-.022 10.92-.013 16.38-.013v.036z" transform="translate(-1159 -771)"/></svg>