<svg id="_01_02.svg" data-name="01_02.svg" xmlns="http://www.w3.org/2000/svg" width="91" height="91" viewBox="0 0 91 91"><defs><style>.cls-1,.cls-2{fill:#202e5c;fill-rule:evenodd}.cls-2{fill:#ff4f2f}</style></defs><path class="cls-1" d="M800.5 865.994h-40.423a5.048 5.048 0 0 1-5.066-5.3q-.016-13.5 0-27c0-4.174-.015-8.348 0-12.521 0-.94.157-1.881.15-2.82-.038-5.365-.113-10.73-.15-16.094-.007-.964.157-1.93.149-2.894-.025-2.928-.12-5.856-.141-8.785a5.014 5.014 0 0 1 5.178-5.4c1.062-.043 1.089-.064 1.1-1.108.009-1.293 0-2.585 0-3.878A4.986 4.986 0 0 1 766.5 775l63.762.007c1.491 0 2.983-.025 4.474.01a5.091 5.091 0 0 1 5.11 4.98c.089 1.337.011 2.684.011 4.026 0 1.12 0 1.1 1.1 1.169 2.252.136 3.983 1.094 4.725 3.318a8.262 8.262 0 0 1 .3 2.57q.023 34.418.012 68.834c0 .4.007.8-.01 1.194a4.74 4.74 0 0 1-2.9 4.408 6.426 6.426 0 0 1-2.392.441c-1.937.062-3.877.026-5.816.027H800.5v.011zm-.375-42.135c-1.064-.161-2.295-.3-3.5-.549a10.865 10.865 0 0 1-1.966-.679 15.418 15.418 0 0 1-8.993-9.361.709.709 0 0 1 .213-.9 5.819 5.819 0 0 0 1.923-4.229 6.141 6.141 0 0 0-12.251-.725 5.825 5.825 0 0 0 2.87 5.733 2.728 2.728 0 0 1 1.371 1.893 4.223 4.223 0 0 0 .142.5 23.069 23.069 0 0 0 4.25 7.027 21.289 21.289 0 0 0 12.918 7.1 21 21 0 0 0 11.959-1.474 21.661 21.661 0 0 0 12.09-12.854 3.63 3.63 0 0 1 1.033-1.884 6.113 6.113 0 1 0-7.413-1.561 1.745 1.745 0 0 1 .277 2.348c-.1.174-.2.344-.287.523-2.968 5.99-7.911 8.79-14.64 9.092zm.459-40.918H771.27c-.447 0-.895 0-1.342-.006a.619.619 0 0 0-.748.7c.011 1.566.006 3.132.018 4.7a.756.756 0 0 0 .925.807c.546-.021 1.093-.05 1.639-.05h55.935c1.069 0 2.139-.026 3.206.006a.783.783 0 0 0 .964-.951c-.044-1.366-.014-2.734-.015-4.1 0-1.086-.012-1.1-1.067-1.1h-30.2z" transform="translate(-755 -775)"/><path class="cls-2" d="M800.127 824.081c-1.089-.168-2.352-.317-3.594-.573a11.033 11.033 0 0 1-2.016-.709 15.954 15.954 0 0 1-9.22-9.761.747.747 0 0 1 .22-.937 6.107 6.107 0 0 0 1.97-4.409 6.293 6.293 0 0 0-12.56-.756 6.1 6.1 0 0 0 2.943 5.978 2.861 2.861 0 0 1 1.407 1.976 4.475 4.475 0 0 0 .143.522 24.143 24.143 0 0 0 4.36 7.328 21.731 21.731 0 0 0 13.242 7.406 21.235 21.235 0 0 0 12.264-1.537 22.446 22.446 0 0 0 12.4-13.405 3.8 3.8 0 0 1 1.058-1.967 6.319 6.319 0 0 0 3.387-5.89 6.2 6.2 0 0 0-8.278-5.825 6.323 6.323 0 0 0-2.711 10.088 1.839 1.839 0 0 1 .285 2.449c-.1.18-.2.358-.294.544-3.033 6.242-8.107 9.164-15.006 9.478z" transform="translate(-755 -775)"/></svg>