<svg id="_01_01.svg" data-name="01_01.svg" xmlns="http://www.w3.org/2000/svg" width="115" height="93" viewBox="0 0 115 93"><defs><style>.cls-1,.cls-2{fill:#202e5c;fill-rule:evenodd}.cls-2{fill:#ff4f2f}</style></defs><path class="cls-1" d="M400.529 840.718h38c.967 0 1.075-.119 1.074-1.1-.006-5.77 0-11.54-.022-17.309 0-.61.163-.813.807-.721a21.757 21.757 0 0 0 6.628.018c.5-.083 1-.22 1.492-.343s.715 0 .714.562c-.011 9.624 0 19.248-.013 28.873a4.691 4.691 0 0 1-4.977 4.843q-15.377 0-30.754-.008c-.195 0-.391.006-.586 0-.507-.011-.751.227-.614.722.456 1.649.938 3.292 1.4 4.94a.964.964 0 0 0 1.116.71 73.59 73.59 0 0 1 3.221 0 3.316 3.316 0 0 1 2.652 1.162 2.939 2.939 0 0 1-.649 4.259 4.366 4.366 0 0 1-2.124.643q-17.207.058-34.415.023a3.482 3.482 0 0 1-3.239-1.447 2.969 2.969 0 0 1 2.331-4.609c1.216-.071 2.44-.05 3.659-.024a1.107 1.107 0 0 0 1.2-.8 17.783 17.783 0 0 0 1.306-4.816.573.573 0 0 0-.662-.768c-.683.01-1.367.01-2.05.01-9.69 0-19.38-.015-29.07.009a4.719 4.719 0 0 1-4.7-2.8 6.082 6.082 0 0 1-.484-2.47c-.034-9.431-.025-18.861-.024-28.292 0-.742.166-.891.876-.7a19.937 19.937 0 0 0 7.982.314c.812-.112.89-.043.89.769v17.237c0 1.074.036 1.114 1.173 1.114h37.856zm-4.941 9.021a4.927 4.927 0 0 0 4.91 4.992 5.041 5.041 0 0 0 5.007-4.93 5.166 5.166 0 0 0-4.841-4.929c-2.821-.049-5.237 2.395-5.076 4.867z" transform="translate(-343 -775)"/><path class="cls-2" d="M429.314 804.558c-2.111 8.25-7.108 12.723-15.827 12.321a13.185 13.185 0 0 1-8.671-4.031 14.856 14.856 0 0 1-4.238-8.471c-1.758 7.566-6.162 12.125-14.212 12.556a13.388 13.388 0 0 1-9.553-3.366 13.653 13.653 0 0 1-4.87-8.824l-.219-.012a9.029 9.029 0 0 0-.415 1.164 13.494 13.494 0 0 1-6.253 8.83 14.422 14.422 0 0 1-21.508-8.027 18.772 18.772 0 0 1-.51-2.781 3.616 3.616 0 0 1 .429-2.238q3.454-6.924 6.9-13.852 2.981-6.02 5.918-12.059a1.2 1.2 0 0 1 1.275-.717q42.213.01 84.425 0a5.372 5.372 0 0 0 .95-.011c1.137-.207 1.689.331 2.155 1.325 1.337 2.848 2.8 5.641 4.186 8.465 1.273 2.585 2.511 5.188 3.78 7.775 1.067 2.173 2.159 4.335 3.238 6.5a27.283 27.283 0 0 1 1.387 2.874 5.082 5.082 0 0 1 .3 2.247 14.156 14.156 0 0 1-2.533 6.727 13.692 13.692 0 0 1-8.425 5.613 14.409 14.409 0 0 1-17.477-11.266c-.046-.224-.137-.44-.232-.742z" transform="translate(-343 -775)"/></svg>