<svg id="Слой_1" xmlns="http://www.w3.org/2000/svg" viewBox="0 0 192 192.4"><style>.st0{fill:#838383}</style><path class="st0" d="M20.7 192.4c-1-.9-2-1.5-2.8-2.3-5.3-5.3-10.4-10.8-15.9-15.9-2.8-2.6-2.6-4 0-6.6 22.2-22.5 44.3-45.3 66.6-67.7 3.2-3.3 3.1-4.9 0-8.1C46.3 69.2 24.3 46.5 2 24c-2.6-2.7-2.7-4.1 0-6.6 5.3-4.8 10.3-9.9 15.1-15.3 2.8-3.1 4.4-2.5 7 .2 22.9 23.5 46 46.9 68.8 70.5 2.3 2.4 3.4 2.9 6.1.2 22.8-23.6 45.9-47 68.7-70.5 2.8-2.9 4.5-3.3 7.4-.1 4.8 5.3 9.9 10.4 15.1 15.3 2.6 2.4 2.4 3.8 0 6.2-22.3 22.7-44.5 45.5-66.9 68.1-3.1 3.1-3 4.7 0 7.7 22.3 22.5 44.3 45.2 66.6 67.7 2.8 2.8 2.9 4.3 0 7-5.2 4.7-10 9.7-14.8 14.9-2.5 2.7-4.1 3.3-7 .2-22.8-23.6-45.9-47-68.7-70.5-2.5-2.6-3.6-3.1-6.4-.2-22.8 23.6-45.8 47-68.8 70.5-1.1 1-2.3 1.9-3.5 3.1z"/></svg>