<svg id="Слой_1" xmlns="http://www.w3.org/2000/svg" viewBox="0 0 191.9 190.4"><style>.st0{fill:#f4f5f9}</style><path class="st0" d="M191.9 170.7c-.4.7-.7 1.3-1.1 1.8-5.8 5.5-10.9 11.7-17.2 16.7-2 1.6-3.4 1.9-5.4-.2-21.5-22-43.3-43.8-64.7-65.9-8-8.2-7.6-8.4-15.1-.1-3.9 4.3-8.2 8.3-12.3 12.4-16.8 17.1-33.5 34.2-50.4 51.3-4.7 4.8-5.9 4.8-10.6.1-4.3-4.2-8.4-8.5-12.8-12.7-2.2-2.1-3-3.7-.6-6.6 7.1-8.7 15.5-16 23.3-24 14.7-15.2 29.5-30.3 44.4-45.3 2.6-2.6 2.2-4-.1-6.4-20.6-20.7-41-41.5-61.4-62.3C5.5 27 3.3 24.2 1 21.6c-1.6-1.8-1.1-3.2.4-4.7 5-4.9 9.8-10 14.9-14.8 2.8-2.7 5.5-2.8 8.6.3 20.9 21.4 42 42.7 63 64.1 2.6 2.7 4.2 7.7 7.9 7.7 3.7.1 5.3-4.9 7.9-7.6 4.3-4.4 8.7-8.7 13-13.1C133.1 36.8 149.5 20 166 3.2c4.4-4.5 6.1-4.4 10.7.1 4.3 4.2 8.4 8.6 12.8 12.7 2.4 2.2 2.6 3.8.4 6.6-4.4 5.4-9.5 10.2-14.4 15.2C157.7 56 140.1 74 122.2 92c-2.3 2.3-2.3 3.7 0 6 20.6 20.8 41.2 41.7 61.7 62.6 2.4 2.5 4.6 5.2 6.9 7.9.5.6.7 1.4 1.1 2.2z"/></svg>