<svg xmlns="http://www.w3.org/2000/svg" width="16" height="16" viewBox="0 0 16 16"><defs><style>.cls-1{fill:#ff4f2f;fill-rule:evenodd}</style></defs><path id="clip.svg" class="cls-1" d="M103.148 784.063a3.382 3.382 0 0 0 .572 1.885.374.374 0 0 1-.041.342 2.3 2.3 0 0 0-.5 1.934 2.2 2.2 0 0 0 1.61 1.571 2.262 2.262 0 0 0 2.169-.753c2.308-2.325 4.628-4.636 6.929-6.967a3.566 3.566 0 0 0 .818-1.1 2 2 0 0 0-.846-2.557 2.027 2.027 0 0 0-2.62.321c-1.357 1.33-2.683 2.692-4.023 4.039-.247.25-.511.484-.744.746a.5.5 0 0 0 .015.784.578.578 0 0 0 .755-.062c.6-.6 1.2-1.207 1.8-1.812l1.88-1.9a1.914 1.914 0 0 1 .587 1.13 2.314 2.314 0 0 1-.755 2.092c-.748.7-1.441 1.461-2.2 2.148a2.621 2.621 0 0 1-4.247-1.186 2.452 2.452 0 0 1 .583-2.584 376.874 376.874 0 0 1 5-5.035 3.818 3.818 0 0 1 2.351-1.066 4.225 4.225 0 0 1 4.534 5.506 5.776 5.776 0 0 1-1.651 2.322c-1.9 1.9-3.789 3.812-5.7 5.706a13.777 13.777 0 0 1-1.886 1.711 4.164 4.164 0 0 1-6.094-1.665 4.23 4.23 0 0 1 1.057-5.126c.181-.163.357-.332.535-.5z" transform="translate(-101 -776)"/></svg>