<svg xmlns="http://www.w3.org/2000/svg" width="70" height="80" viewBox="0 0 70.000001 80.000001" id="svg2"><defs id="defs4"><style id="style4687">.cls-1{fill:#fecb31}.cls-1,.cls-2,.cls-3{fill-rule:evenodd}.cls-2{fill:#cca74d}</style></defs><g id="layer1" transform="translate(0 -972.362)"><g id="g4700" transform="matrix(.24009 0 0 .21025 1.146 975.569)"><path id="path4689" transform="translate(-411 -231)" d="M693 381.95h-87.99V231c-2.452 1.775-3.707 2.642-4.95 3.617l-132.521 103.86c-15.2 11.9-31.2 22.833-43.865 37.7-7.458 8.756-12.458 18.5-12.48 30.247q-.156 82.942-.181 165.884c0 16.312 10.853 27.538 27.061 27.563q124.692.185 249.385.133a11.558 11.558 0 0 0 1.751-.121H693V381.95z" class="cls-1" fill="#fecb31" fill-rule="evenodd"/><path id="path4691" transform="translate(-411 -231)" d="M605 382v89L448 579l198-65V382h-41z" class="cls-2" fill="#cca74d" fill-rule="evenodd"/><path id="path4693" transform="translate(-411 -231)" d="M565.757 379.8c-.372 14.789-14.291 30.755-28.12 32.255-8.7.944-15.445-5.135-15.531-14-.141-14.473 13.973-30.536 28.193-32.085 8.988-.97 15.68 5.012 15.458 13.83z" class="cls-3" fill-rule="evenodd"/></g></g></svg>