<svg xmlns="http://www.w3.org/2000/svg" width="94" height="6" viewBox="0 0 94 6"><defs><style>.cls-1{fill:#8dc8e8;fill-rule:evenodd}</style></defs><path id="ellipse.svg" class="cls-1" d="M556 834a3 3 0 1 1-3 3 3 3 0 0 1 3-3zm11 0a3 3 0 1 1-3 3 3 3 0 0 1 3-3zm11 0a3 3 0 1 1-3 3 3 3 0 0 1 3-3zm11 0a3 3 0 1 1-3 3 3 3 0 0 1 3-3zm11 0a3 3 0 1 1-3 3 3 3 0 0 1 3-3zm11 0a3 3 0 1 1-3 3 3 3 0 0 1 3-3zm11 0a3 3 0 1 1-3 3 3 3 0 0 1 3-3zm11 0a3 3 0 1 1-3 3 3 3 0 0 1 3-3zm11 0a3 3 0 1 1-3 3 3 3 0 0 1 3-3z" transform="translate(-553 -834)"/></svg>