<svg id="noimg.svg" xmlns="http://www.w3.org/2000/svg" width="99" height="41" viewBox="0 0 99 41"><defs><style>.cls-1{fill:#22315e}.cls-1,.cls-2,.cls-3{fill-rule:evenodd}.cls-2{fill:#89c9eb}.cls-3{fill:#ff4f2f}</style></defs><path class="cls-1" d="M184.7 88.549c-1.843 1.535-2.773 3.159-2.773 4.848 0 2.728 2.419 4.749 5.285 6.215h-18.961v28.281h43.733V99.616h-10.91c2.017-1.19 3.6-2.773 3.6-4.833a5.5 5.5 0 0 0-2.349-4.134c-1.987-1.665-3.614-1.447-4.636-.983-1.6.738-2.619 2.55-3.287 4.482-.8-2.887-2.137-5.763-4.319-6.766-1.169-.539-3.058-.777-5.383 1.167zm14.215 3.888a1.6 1.6 0 0 1 1.524.566 2.822 2.822 0 0 1 1.247 1.779c0 .968-1.8 2.417-5.276 3.634.42-2.563 1.354-5.438 2.5-5.979zm-10.06-2.288c1.658.771 2.937 4.848 3.42 8.3-5.07-1.662-7.368-3.676-7.368-5.054 0-.91.918-1.853 1.682-2.506 1.387-1.152 2.048-.84 2.265-.742z" transform="translate(-113 -87)"/><path class="cls-2" d="M162.461 103.28a6.988 6.988 0 0 0-13.974 0h-3.867v24.712h21.707V103.28h-3.866zm-6.987-4.945a5.169 5.169 0 0 1 5.083 4.945h-10.168a5.171 5.171 0 0 1 5.085-4.945z" transform="translate(-113 -87)"/><path class="cls-3" d="M120.78 111.091v3.879c-.747-1.474-1.775-2.7-3.162-2.7a3.343 3.343 0 0 0-2.533 1.512 2.774 2.774 0 0 0-.6 2.985 4.568 4.568 0 0 0 2.812 2.138c-1.735.512-3.465 1.36-4.069 2.736a3.2 3.2 0 0 0 .7 3.415 3.892 3.892 0 0 0 2.936 1.758c1.749 0 3.026-1.725 3.921-3.69v4.78h21.581v-16.813H120.78zm-4.625 4.894a1.081 1.081 0 0 1 .345-1.011 1.8 1.8 0 0 1 1.118-.815c.609 0 1.516 1.189 2.268 3.466-1.595-.267-3.4-.881-3.734-1.64zm.7 8.933a2.424 2.424 0 0 1-1.512-1.066c-.7-.879-.509-1.3-.453-1.437.469-1.049 2.93-1.859 5.016-2.167-1.007 3.215-2.215 4.67-3.051 4.67z" transform="translate(-113 -87)"/></svg>