<svg xmlns="http://www.w3.org/2000/svg" width="719.91" height="719.91" viewBox="0 0 719.91 719.91"><path fill-rule="evenodd" clip-rule="evenodd" fill="#89C8EA" d="M540.933 1c0 37.652.017 75.306-.014 112.958-.006 7.887.926 7.014-6.827 7.015-135.451.016-270.902.011-406.353.012-6.751 0-6.754.002-6.754 6.611v466.831c0 6.493.003 6.497 6.368 6.497l406.853.001c6.715 0 6.847.007 6.669 6.651-.96 35.796-.993 71.602-.969 107.405.003 4.825-1.315 6.037-6.099 6.034-177.603-.124-355.205-.105-532.807-.105C1 482.439 1.01 243.97.907 5.5.905 1.751 1.75.904 5.5.906 183.977 1.014 362.455 1 540.933 1z"/><path fill-rule="evenodd" clip-rule="evenodd" fill="#89C8EA" d="M362.282 540.03L480.39 421.965c-2.598-1.477-4.606-.993-6.489-.993-95.487-.028-190.975-.024-286.462-.025-6.457 0-6.46-.004-6.46-6.407-.001-35.828.127-71.658-.14-107.484-.04-5.273 1.555-6.205 6.418-6.198 95.487.142 190.975.109 286.462.076 1.903-.001 3.924.555 6.016-.661a6570577.2 6570577.2 0 0 1-117.989-117.978c2.089-1.876 3.645-1.284 5.028-1.285 56.325-.037 112.651-.005 168.977-.097 3.423-.006 5.882.93 8.326 3.38a101708.72 101708.72 0 0 0 172.874 172.856c2.874 2.866 3.133 4.5.109 7.514-57.825 57.652-115.549 115.409-173.255 173.181-1.981 1.983-3.911 3.158-6.909 3.153-57.146-.09-114.294-.063-171.44-.088-.924.001-1.981.41-3.174-.879z"/></svg>