<svg xmlns="http://www.w3.org/2000/svg" width="20" height="20" viewBox="0 0 20 20"><defs><style>.cls-1{fill:#fff;fill-rule:evenodd}</style></defs><path id="g.svg" class="cls-1" d="M1269.05 490.947a3.54 3.54 0 0 1 .53.449 5.172 5.172 0 0 1 1.01 1.757 4.893 4.893 0 0 1 .17 1.345 4.142 4.142 0 0 1-.59 2.257 7.33 7.33 0 0 1-.6.756c-.23.231-.47.466-.73.706a3.763 3.763 0 0 0-.42.551 1.257 1.257 0 0 0-.22.743 1.028 1.028 0 0 0 .23.68c.13.171.26.32.38.449l.84.731a8.71 8.71 0 0 1 1.39 1.5 4.032 4.032 0 0 1 .59 2.179 4.487 4.487 0 0 1-1.61 3.384 7.036 7.036 0 0 1-4.8 1.578 5.859 5.859 0 0 1-3.92-1.178 3.229 3.229 0 0 1-1.3-2.572 3.881 3.881 0 0 1 .42-1.625 3.8 3.8 0 0 1 1.49-1.574 7.555 7.555 0 0 1 2.55-.972 18.549 18.549 0 0 1 2.2-.231 5.6 5.6 0 0 1-.48-.8 1.945 1.945 0 0 1-.25-.993 1.413 1.413 0 0 1 .1-.58c.05-.163.1-.314.15-.451a6.7 6.7 0 0 1-.8.052 3.741 3.741 0 0 1-3.04-1.321 4.05 4.05 0 0 1-1.1-2.807 4.917 4.917 0 0 1 1.55-3.513 5.331 5.331 0 0 1 2.22-1.2 10.176 10.176 0 0 1 2.13-.243h5l-1.55.947h-1.54zm.97 15.131a2.654 2.654 0 0 0-.62-1.744 15.638 15.638 0 0 0-2.06-1.732 5.3 5.3 0 0 0-.56-.025 6.049 6.049 0 0 0-.98.051 10.389 10.389 0 0 0-1.58.372c-.13.052-.31.128-.54.231a3.069 3.069 0 0 0-.7.474 2.627 2.627 0 0 0-.59.8 2.5 2.5 0 0 0-.27 1.205 2.728 2.728 0 0 0 1.19 2.282 4.987 4.987 0 0 0 3.1.924 4.149 4.149 0 0 0 2.7-.821 2.555 2.555 0 0 0 .91-2.017zm-3.49-7.7a2.3 2.3 0 0 0 1.65-.746 2.8 2.8 0 0 0 .4-1.027 8.059 8.059 0 0 0 .06-.887 7.14 7.14 0 0 0-.76-3.134 3.343 3.343 0 0 0-.93-1.233 2.32 2.32 0 0 0-1.36-.476 2.163 2.163 0 0 0-1.69.861 3.321 3.321 0 0 0-.54 1.952 6.459 6.459 0 0 0 .79 2.968 4.141 4.141 0 0 0 .99 1.221 2.136 2.136 0 0 0 1.39.496zm2.52-7.426a3.54 3.54 0 0 1 .53.449 5.172 5.172 0 0 1 1.01 1.757 4.893 4.893 0 0 1 .17 1.345 4.142 4.142 0 0 1-.59 2.257 7.33 7.33 0 0 1-.6.756c-.23.231-.47.466-.73.706a3.763 3.763 0 0 0-.42.551 1.257 1.257 0 0 0-.22.743 1.028 1.028 0 0 0 .23.68c.13.171.26.32.38.449l.84.731a8.71 8.71 0 0 1 1.39 1.5 4.032 4.032 0 0 1 .59 2.179 4.487 4.487 0 0 1-1.61 3.384 7.036 7.036 0 0 1-4.8 1.578 5.859 5.859 0 0 1-3.92-1.178 3.229 3.229 0 0 1-1.3-2.572 3.881 3.881 0 0 1 .42-1.625 3.8 3.8 0 0 1 1.49-1.574 7.555 7.555 0 0 1 2.55-.972 18.549 18.549 0 0 1 2.2-.231 5.6 5.6 0 0 1-.48-.8 1.945 1.945 0 0 1-.25-.993 1.413 1.413 0 0 1 .1-.58c.05-.163.1-.314.15-.451a6.7 6.7 0 0 1-.8.052 3.741 3.741 0 0 1-3.04-1.321 4.05 4.05 0 0 1-1.1-2.807 4.917 4.917 0 0 1 1.55-3.513 5.331 5.331 0 0 1 2.22-1.2 10.176 10.176 0 0 1 2.13-.243h5l-1.55.947h-1.54zm.97 15.131a2.654 2.654 0 0 0-.62-1.744 15.638 15.638 0 0 0-2.06-1.732 5.3 5.3 0 0 0-.56-.025 6.049 6.049 0 0 0-.98.051 10.389 10.389 0 0 0-1.58.372c-.13.052-.31.128-.54.231a3.069 3.069 0 0 0-.7.474 2.627 2.627 0 0 0-.59.8 2.5 2.5 0 0 0-.27 1.205 2.728 2.728 0 0 0 1.19 2.282 4.987 4.987 0 0 0 3.1.924 4.149 4.149 0 0 0 2.7-.821 2.555 2.555 0 0 0 .91-2.022zm-3.49-7.7a2.3 2.3 0 0 0 1.65-.746 2.8 2.8 0 0 0 .4-1.027 8.059 8.059 0 0 0 .06-.887 7.14 7.14 0 0 0-.76-3.134 3.343 3.343 0 0 0-.93-1.233 2.32 2.32 0 0 0-1.36-.476 2.163 2.163 0 0 0-1.69.861 3.321 3.321 0 0 0-.54 1.952 6.459 6.459 0 0 0 .79 2.968 4.141 4.141 0 0 0 .99 1.221 2.136 2.136 0 0 0 1.39.491zm9.25-2.978h1.49v7.134h-1.49V495.4zm4.15 2.784v1.566h-6.81v-1.566h6.81zm-4.17-2.807h1.54v7.186h-1.54v-7.186zm4.23 2.821v1.597h-6.85v-1.611h6.85z" transform="translate(-1260 -490)"/></svg>