<svg id="google2.svg" xmlns="http://www.w3.org/2000/svg" width="44.344" height="45" viewBox="0 0 44.344 45"><defs><style>.cls-1{fill:#e84c34}.cls-2{fill:#fdfdfd;fill-rule:evenodd}</style></defs><circle class="cls-1" cx="22.172" cy="22.5" r="22.172"/><path id="googl" class="cls-2" d="M915.366 266.023l-.579.354c-.357.218-.713.438-1.071.653a.321.321 0 0 1-.151.043h-1.557l.08.07a5.24 5.24 0 0 1 1.215 1.328 3.861 3.861 0 0 1 .555 1.617 3.972 3.972 0 0 1-.313 2.147 4.237 4.237 0 0 1-1.1 1.4c-.218.191-.447.371-.674.553a3.106 3.106 0 0 0-.667.7 1.124 1.124 0 0 0 .16 1.5 9.369 9.369 0 0 0 .79.638 13.9 13.9 0 0 1 1.667 1.422 3.631 3.631 0 0 1 .933 1.553 3.85 3.85 0 0 1-.506 3.2 5.329 5.329 0 0 1-2.074 1.84 8.011 8.011 0 0 1-2.228.76 11.128 11.128 0 0 1-2.417.186 8.893 8.893 0 0 1-2.484-.391 5.11 5.11 0 0 1-1.769-.942 3.155 3.155 0 0 1-1.13-1.887 3.076 3.076 0 0 1 .31-1.956 4.146 4.146 0 0 1 1.593-1.672 7.722 7.722 0 0 1 2.532-.951 13.984 13.984 0 0 1 1.682-.24l.989-.083-.05-.069a3.935 3.935 0 0 1-.528-.78 2 2 0 0 1-.028-1.728c.025-.057.049-.116.079-.189-.111.009-.209.016-.307.025a4.754 4.754 0 0 1-3.31-.825 3.915 3.915 0 0 1-1.6-2.525 4.229 4.229 0 0 1 .745-3.241 5.164 5.164 0 0 1 2.266-1.807 8.513 8.513 0 0 1 2.262-.632 10.2 10.2 0 0 1 1.462-.1h5.214zm-6.319 18.88c.266-.018.532-.029.8-.054a4.716 4.716 0 0 0 1.557-.406 2.88 2.88 0 0 0 1.048-.79 2.4 2.4 0 0 0 .537-1.378 2.3 2.3 0 0 0-.371-1.481 4.1 4.1 0 0 0-.771-.836c-.522-.45-1.091-.841-1.655-1.238a.447.447 0 0 0-.271-.087c-.315 0-.631 0-.946.015a9.963 9.963 0 0 0-1.819.256 4.72 4.72 0 0 0-1.646.7 2.469 2.469 0 0 0-1.1 2.528 2.54 2.54 0 0 0 .777 1.477 4.141 4.141 0 0 0 1.691.968 7.683 7.683 0 0 0 2.169.323zm2.476-13.225c-.01-.126-.019-.359-.049-.59a6.57 6.57 0 0 0-.487-1.768 4.5 4.5 0 0 0-1.164-1.674 2.386 2.386 0 0 0-2.1-.6 2.287 2.287 0 0 0-1.838 1.553 4.038 4.038 0 0 0-.125 1.9 6.244 6.244 0 0 0 .548 1.857 4.2 4.2 0 0 0 1.008 1.391 2.561 2.561 0 0 0 1.471.655 2.667 2.667 0 0 0 1.578-.353 2.082 2.082 0 0 0 .978-1.117 3.527 3.527 0 0 0 .18-1.254zm6.443 2.692v-2.492c0-.112 0-.112.116-.112h1.118c.107 0 .108 0 .108.1v2.5H921.893c.082 0 .107.022.106.1q-.006.559 0 1.119c0 .082-.027.1-.107.1h-2.474c-.11 0-.11 0-.11.108v2.413c0 .081-.022.1-.1.1q-.567-.006-1.135 0a.085.085 0 0 1-.105-.1v-2.4c0-.115 0-.115-.121-.115h-2.433c-.116 0-.116 0-.116-.112v-1.111a.08.08 0 0 1 .1-.1H917.972z" transform="translate(-888.656 -253)"/></svg>