<svg id="help04.svg" xmlns="http://www.w3.org/2000/svg" width="51" height="44" viewBox="0 0 51 44"><defs><style>.cls-1,.cls-2{fill:#22315e;fill-rule:evenodd}.cls-2{fill:#ff4f2f}</style></defs><path class="cls-1" d="M210.02 526.017h20.488a2.476 2.476 0 0 1 2.046.876 2.424 2.424 0 0 1 .5 1.616v11.116c0 .307 0 .615.013.923a.31.31 0 0 1-.361.375c-1.3 0-2.6-.006-3.9 0a.379.379 0 0 1-.429-.477c.013-1.308.009-2.616.01-3.924 0-.544-.018-.561-.562-.561q-17.846 0-35.689-.006a.388.388 0 0 0-.479.46q.011 11.6 0 23.194a.417.417 0 0 0 .5.51c.946.014 1.89.108 2.835.121a11.923 11.923 0 0 0 1.491-.137c.383-.043.489.138.486.494a268.256 268.256 0 0 0 0 3.806.305.305 0 0 1-.382.349 108.935 108.935 0 0 0-3.233-.1c-.446-.007-.894.087-1.341.081a19.234 19.234 0 0 1-2.994-.119c-1.142-.2-1.969-.62-1.99-2.068-.024-1.663.077-3.327.073-4.991-.021-9.651-.038-19.3-.1-28.953a2.458 2.458 0 0 1 2.608-2.6c6.803.033 13.607.015 20.41.015zm-12.784 5.006a2.454 2.454 0 0 0-2.47-2.482 2.422 2.422 0 0 0-2.486 2.38 2.5 2.5 0 0 0 2.461 2.577 2.547 2.547 0 0 0 2.495-2.475zm8.578-.021a2.452 2.452 0 0 0 2.433 2.48 2.47 2.47 0 1 0 .016-4.94 2.45 2.45 0 0 0-2.449 2.458zm-1.835.061a2.459 2.459 0 1 0-4.917-.064 2.49 2.49 0 0 0 2.413 2.5 2.464 2.464 0 0 0 2.504-2.436z" transform="translate(-187 -526)"/><path class="cls-2" d="M219.13 569.988c-5.1 0-10.193-.008-15.29.006a3.451 3.451 0 0 1-2.967-1.4 2.789 2.789 0 0 1-.521-1.689c-.035-2.073-.072-4.146-.082-6.219-.005-1 .074-1.994.07-2.991q-.021-5.2-.08-10.407a3.4 3.4 0 0 1 1.229-2.852 3.2 3.2 0 0 1 2.057-.739c2.439-.007 4.878 0 7.317 0h23.762a3.32 3.32 0 0 1 3.368 3.358c0 6.507-.016 13.015.009 19.522a3.413 3.413 0 0 1-3.468 3.423c-5.134-.033-10.269-.013-15.404-.012zm-15.03-13.144a10.9 10.9 0 0 0 .016 1.3.86.86 0 0 0 .339.573 97.122 97.122 0 0 0 3.113 1.761c.885.484 1.79.933 2.674 1.421 1.008.557 2 1.141 3 1.711.208.118.383.121.383-.187 0-.833 0-1.665-.026-2.5a.539.539 0 0 0-.194-.385c-.706-.46-1.413-.922-2.149-1.333-1.327-.74-2.675-1.443-4.012-2.166a.352.352 0 0 1-.192-.2.338.338 0 0 1 .175-.213q3.014-1.7 6.032-3.384a.61.61 0 0 0 .353-.585c-.006-.781.006-1.562.01-2.343 0-.343-.1-.4-.422-.22q-3.341 1.841-6.683 3.679c-.7.383-1.4.755-2.069 1.175a.88.88 0 0 0-.338.579 11.128 11.128 0 0 0-.01 1.317zm20.617-6.909a.956.956 0 0 0-.082.222c-.005.884-.019 1.768 0 2.65a.612.612 0 0 0 .293.409c.794.467 1.606.9 2.409 1.358q1.841 1.037 3.679 2.079c.218.123.254.238.007.376-.525.294-1.045.6-1.569.894-1.526.864-3.056 1.721-4.574 2.6a.588.588 0 0 0-.248.422c-.023.844-.013 1.69-.009 2.535a1.023 1.023 0 0 0 .075.249c.137-.061.254-.1.36-.163q4.349-2.457 8.7-4.911a.6.6 0 0 0 .356-.609 42.797 42.797 0 0 1 0-2.266.79.79 0 0 0-.474-.814c-2.6-1.455-5.194-2.93-7.79-4.4-.35-.205-.722-.405-1.129-.631zm-7.517 13.9c.411 0 .822-.006 1.233 0a.4.4 0 0 0 .457-.355c.173-.708.369-1.41.564-2.113q.909-3.291 1.822-6.58c.416-1.5.824-3.007 1.248-4.508.083-.3 0-.4-.3-.4-.809.006-1.618.009-2.427 0a.385.385 0 0 0-.432.334c-.316 1.172-.643 2.341-.967 3.511l-1.021 3.7q-.525 1.9-1.049 3.807c-.2.714-.406 1.425-.6 2.14-.1.374-.022.468.352.468s.752-.009 1.12-.009z" transform="translate(-187 -526)"/></svg>