<svg xmlns="http://www.w3.org/2000/svg" width="50" height="47" viewBox="0 0 50 47"><defs><style>.cls-1{fill:#22315e;fill-rule:evenodd}</style></defs><path id="help03.svg" class="cls-1" d="M797.989 340.537a19.554 19.554 0 0 1-1.146 6.877 21.81 21.81 0 0 1-2.114 4.458 23.891 23.891 0 0 1-8.952 8.47 29.426 29.426 0 0 1-4.308 1.911 24.15 24.15 0 0 1-5.133 1.145 27.517 27.517 0 0 1-5.913.082 34.876 34.876 0 0 1-3.931-.7 19.508 19.508 0 0 1-5.323-1.969 2 2 0 0 0-1.909.095c-1.507.58-3 1.19-4.51 1.773-1.07.415-2.143.826-3.228 1.2a1.82 1.82 0 0 1-2.5-1.843 7.584 7.584 0 0 1 .754-2.254c.585-1.5 1.195-2.986 1.8-4.477.181-.448.363-.9.557-1.338a.827.827 0 0 0-.073-.916 20.977 20.977 0 0 1-2.5-4.556 23.106 23.106 0 0 1-1.352-5.07 22.375 22.375 0 0 1-.139-4.959 21.41 21.41 0 0 1 .543-3.239 23.817 23.817 0 0 1 .826-2.734 20.919 20.919 0 0 1 2.829-5.247 24.6 24.6 0 0 1 8.848-7.467 25 25 0 0 1 4.756-1.816 26.37 26.37 0 0 1 7.491-.97 27.382 27.382 0 0 1 5.735.713 25.511 25.511 0 0 1 6.61 2.516 24.252 24.252 0 0 1 7.452 6.274 21.955 21.955 0 0 1 3.047 5.067 33.211 33.211 0 0 1 1.107 3.32 18.4 18.4 0 0 1 .676 5.654zm-24.966-5.928h12.967c.536 0 .572-.036.573-.59v-2.361c0-.741-.009-.747-.729-.746q-7.4 0-14.8.006h-11c-.51 0-.591.081-.591.6 0 .859.01 1.717 0 2.575a.449.449 0 0 0 .538.529q6.519-.022 13.042-.013zm0 11.429q-6.546 0-13.091-.007a.417.417 0 0 0-.508.521c.028.828.01 1.659.011 2.488 0 .6.034.631.623.632q13.007 0 26.012.01a.408.408 0 0 0 .493-.5 84.175 84.175 0 0 1 0-2.659.407.407 0 0 0-.5-.5q-6.513.023-13.038.015zm-6.359-3.891h6.7c.55 0 .568-.018.567-.582v-2.4c0-.644.007-.649-.62-.649-4.464 0-8.928.008-13.392 0a.406.406 0 0 0-.486.5c.015.843 0 1.687 0 2.531 0 .537.05.6.578.6q3.328.004 6.655 0zm16.249-3.632c-1.064 0-2.129.01-3.193 0a.384.384 0 0 0-.462.477c.02.9.012 1.8 0 2.7a.391.391 0 0 0 .473.474q3.173-.019 6.344 0a.4.4 0 0 0 .487-.465 86.363 86.363 0 0 1 0-2.741.366.366 0 0 0-.457-.435c-1.061-.002-2.125-.01-3.19-.01z" transform="translate(-748 -317)"/></svg>