<svg id="help02.svg" xmlns="http://www.w3.org/2000/svg" width="62" height="49.969" viewBox="0 0 62 49.969"><defs><style>.cls-1,.cls-2{fill:#ff4f2f;fill-rule:evenodd}.cls-2{fill:#22315e}</style></defs><path class="cls-1" d="M516.17 342.126q2.232 0 4.465.007a3.549 3.549 0 0 1 .365.031V313c-.16.01-.309.026-.457.026h-40.405c-.6 0-.616.012-.617.631v8.825c0 .617 0 .616.6.616h23.062c.636 0 .636 0 .636.66v17.875c0 .484.018.469.5.51a1.765 1.765 0 0 1 .78.262c.9.579 1.78 1.192 2.669 1.791l6.35 4.279c.716.481 1.431.966 2.162 1.424a.611.611 0 0 0 .526.071.875.875 0 0 0 .169-.515.825.825 0 0 0-.04-.294c-.1-.513-.2-1.023-.287-1.537-.2-1.239-.382-2.479-.579-3.718-.07-.44-.146-.881-.246-1.316-.095-.4-.063-.465.347-.464zm-6.5-11.511a3.04 3.04 0 1 1 3.015-3.026 3.008 3.008 0 0 1-3.015 3.026z" transform="translate(-459 -313)"/><path class="cls-2" d="M464.3 355.169c-.177-.016-.331-.041-.485-.041-1.463 0-2.926-.007-4.389.009a.347.347 0 0 1-.419-.43q.01-14.077 0-28.154c0-.408.2-.395.484-.395h39.684c.332 0 .664.006 1 0a.258.258 0 0 1 .308.31V354.624c0 .5 0 .5-.482.506H481.56c-.785 0-1.57-.062-2.354-.06-1.179 0-2.357.035-3.536.063a.8.8 0 0 0-.385.094c-.919.567-1.841 1.131-2.743 1.725-1.52 1-3.03 2.024-4.537 3.047-.325.22-.608.5-.935.718-1.056.7-2.123 1.376-3.187 2.06a2.61 2.61 0 0 1-.261.139.291.291 0 0 1-.477-.246 1.774 1.774 0 0 1 0-.554c.21-1.094.458-2.181.645-3.278.165-.961.266-1.933.4-2.9.024-.244.064-.485.11-.769zm26.049-11.514a2.973 2.973 0 0 0 3.057-2.948 3.015 3.015 0 0 0-2.85-3.084 3.018 3.018 0 1 0-.21 6.032zm-19.934 0a3.016 3.016 0 1 0-3.031-2.9 2.985 2.985 0 0 0 3.028 2.902zm12.971-2.989a3 3 0 0 0-3.108-3.046 3.019 3.019 0 0 0 .1 6.035 2.974 2.974 0 0 0 3.005-2.987z" transform="translate(-459 -313)"/></svg>