<svg xmlns="http://www.w3.org/2000/svg" width="10" height="10" viewBox="0 0 10 10"><defs><style>.cls-1{fill:#b8bcc6;fill-rule:evenodd}</style></defs><path id="kont_01.svg" class="cls-1" d="M216 4700.58a2.365 2.365 0 0 1 1.309-2.35 2.954 2.954 0 0 1 .929-.23.537.537 0 0 1 .418.24c.453.77.877 1.57 1.312 2.36a.443.443 0 0 1-.085.58c-.313.31-.619.63-.936.94a.45.45 0 0 0-.073.64 7.724 7.724 0 0 0 2.315 2.33c.355.23.456.21.764-.1.288-.28.579-.56.862-.85a.45.45 0 0 1 .6-.09c.759.41 1.518.83 2.282 1.23a.586.586 0 0 1 .313.67 2.259 2.259 0 0 1-1.359 1.78 2.11 2.11 0 0 1-1.517.21 9.329 9.329 0 0 1-1.057-.18 9.637 9.637 0 0 1-1.121-.49 6.525 6.525 0 0 1-.643-.3 10.227 10.227 0 0 1-3.28-3.29 6.4 6.4 0 0 1-1.033-3.1z" transform="translate(-216 -4698)"/></svg>