<svg xmlns="http://www.w3.org/2000/svg" width="11" height="8" viewBox="0 0 11 8"><defs><style>.cls-1{fill:#b8bcc6;fill-rule:evenodd}</style></defs><path id="kont_02.svg" class="cls-1" d="M226.425 4722.25c-.256.28-.489.56-.744.82q-1.94 1.935-3.888 3.86c-.282.28-.2.31-.511 0l-4.286-4.2c-.142-.14-.277-.29-.43-.45a1.155 1.155 0 0 1 .6-.27 2.069 2.069 0 0 1 .249 0c2.724 0 5.448-.01 8.173 0a1.367 1.367 0 0 1 .837.24zm-.233 7.64c-.113.03-.226.07-.343.09a2.7 2.7 0 0 1-.4.02h-7.905a5.874 5.874 0 0 1-.589-.07.525.525 0 0 1-.119-.05c.963-1.02 1.925-2.03 2.9-3.06.332.32.649.64.966.95.148.14.294.29.442.44a.509.509 0 0 0 .807-.02c.419-.42.842-.84 1.264-1.26.022-.02.049-.04.082-.07.961 1 1.917 2.01 2.895 3.03zm-10.169-6.74q1.527 1.5 2.948 2.91c-.96 1.01-1.91 2-2.894 3.04a2.914 2.914 0 0 1-.075-.43q-.006-2.655 0-5.31c-.002-.05.008-.1.021-.21zm10.858 5.96c-1-.95-1.912-1.96-2.871-2.97.986-.99 1.956-1.96 2.931-2.93a51.166 51.166 0 0 1-.06 5.9z" transform="translate(-216 -4722)"/></svg>