<svg xmlns="http://www.w3.org/2000/svg" width="20.812" height="19" viewBox="0 0 20.812 19"><defs><style>.cls-1{fill:#eb1d1d;fill-rule:evenodd}</style></defs><path id="like02.svg" class="cls-1" d="M584.6 1755a1.247 1.247 0 0 1-.833-.35l-1.459-1.29c-.455-.41-.91-.81-1.366-1.21-.514-.46-1.029-.91-1.543-1.37-.448-.39-.9-.79-1.344-1.19a15.84 15.84 0 0 1-1.588-1.57 10.725 10.725 0 0 1-1.58-2.4 7.815 7.815 0 0 1-.64-2.18 7.481 7.481 0 0 1-.067-1.53 6.553 6.553 0 0 1 1.266-3.49 6.206 6.206 0 0 1 1.3-1.34 5.389 5.389 0 0 1 2.164-.94 6.254 6.254 0 0 1 1.436-.14 5.413 5.413 0 0 1 4.212 1.97l.044.06a5.216 5.216 0 0 1 .875-.87 5.109 5.109 0 0 1 2.265-1.03 6.5 6.5 0 0 1 1.7-.12 5.673 5.673 0 0 1 3.233 1.28 5.75 5.75 0 0 1 1.493 1.9 9.091 9.091 0 0 1 .48 1.2 1.309 1.309 0 0 0 .049.13 2.47 2.47 0 0 1 .141.41 5.572 5.572 0 0 1 .127.77 7.931 7.931 0 0 1 .039.83 7.5 7.5 0 0 1-.831 3.32 10.54 10.54 0 0 1-2.112 2.85c-.4.39-.815.76-1.217 1.12l-.139.12c-.841.75-1.7 1.52-2.525 2.25-.462.42-.924.83-1.386 1.24-.29.26-.584.52-.869.78-.163.14-.326.29-.489.44a1.291 1.291 0 0 1-.832.35z" transform="translate(-574.188 -1736)"/></svg>