<svg xmlns="http://www.w3.org/2000/svg" width="20.844" height="19" viewBox="0 0 20.844 19"><defs><style>.cls-1{fill:#eb1d1d;fill-rule:evenodd}</style></defs><path id="like01.svg" class="cls-1" d="M560.433 1755a1.247 1.247 0 0 1-.833-.35l-1.459-1.29c-.455-.41-.91-.81-1.366-1.21-.514-.46-1.029-.91-1.543-1.37-.448-.39-.9-.79-1.343-1.19a15.738 15.738 0 0 1-1.589-1.57 10.684 10.684 0 0 1-1.579-2.4 7.784 7.784 0 0 1-.641-2.18 7.481 7.481 0 0 1-.067-1.53 6.546 6.546 0 0 1 1.267-3.49 6.2 6.2 0 0 1 1.3-1.34 5.389 5.389 0 0 1 2.164-.94 6.265 6.265 0 0 1 1.436-.14 5.413 5.413 0 0 1 4.212 1.97l.044.06a5.254 5.254 0 0 1 .875-.87 5.114 5.114 0 0 1 2.265-1.03 6.5 6.5 0 0 1 1.7-.12 5.67 5.67 0 0 1 3.233 1.28 5.737 5.737 0 0 1 1.493 1.9 8.956 8.956 0 0 1 .48 1.2c.011.04.03.08.049.13a2.382 2.382 0 0 1 .141.41 5.724 5.724 0 0 1 .128.77 7.923 7.923 0 0 1 .038.83 7.5 7.5 0 0 1-.831 3.32 10.519 10.519 0 0 1-2.112 2.85c-.4.39-.815.76-1.217 1.12l-.139.12c-.841.75-1.7 1.52-2.525 2.25-.462.42-.924.83-1.385 1.24-.29.26-.585.52-.87.78-.163.14-.326.29-.489.44a1.288 1.288 0 0 1-.832.35zm-4.336-17.23a5.5 5.5 0 0 0-1 .1 3.747 3.747 0 0 0-1.466.64 4.29 4.29 0 0 0-.917.96 4.721 4.721 0 0 0-.928 2.56 5.808 5.808 0 0 0 .053 1.17 5.93 5.93 0 0 0 .5 1.67 8.688 8.688 0 0 0 1.319 2 14.968 14.968 0 0 0 1.414 1.4c.447.39.9.79 1.342 1.18.515.46 1.03.91 1.545 1.37.455.4.911.81 1.366 1.21.369.33.739.65 1.108.98l.14-.12c.285-.26.581-.52.873-.78.461-.42.923-.83 1.385-1.24.828-.74 1.683-1.5 2.523-2.25l.14-.12c.388-.35.79-.71 1.163-1.07a9.058 9.058 0 0 0 1.763-2.37 5.713 5.713 0 0 0 .642-2.55 6.059 6.059 0 0 0-.03-.64 3.754 3.754 0 0 0-.088-.53 1.226 1.226 0 0 0-.053-.14 5.17 5.17 0 0 1-.1-.25 6.984 6.984 0 0 0-.38-.96 3.894 3.894 0 0 0-3.258-2.21 4.663 4.663 0 0 0-1.234.09 3.332 3.332 0 0 0-1.509.68 4.059 4.059 0 0 0-1.038 1.26c-.03.05-.061.1-.094.16l-.054.1a.887.887 0 0 1-1.513.07.785.785 0 0 1-.054-.08 2.425 2.425 0 0 1-.163-.25 4.445 4.445 0 0 0-.459-.68 3.634 3.634 0 0 0-2.881-1.35.125.125 0 0 0-.054-.01zm4.336 17.23a1.247 1.247 0 0 1-.833-.35l-1.459-1.29c-.455-.41-.91-.81-1.366-1.21-.514-.46-1.029-.91-1.543-1.37-.448-.39-.9-.79-1.343-1.19a15.738 15.738 0 0 1-1.589-1.57 10.684 10.684 0 0 1-1.579-2.4 7.784 7.784 0 0 1-.641-2.18 7.481 7.481 0 0 1-.067-1.53 6.546 6.546 0 0 1 1.267-3.49 6.2 6.2 0 0 1 1.3-1.34 5.389 5.389 0 0 1 2.164-.94 6.265 6.265 0 0 1 1.436-.14 5.413 5.413 0 0 1 4.212 1.97l.044.06a5.254 5.254 0 0 1 .875-.87 5.114 5.114 0 0 1 2.265-1.03 6.5 6.5 0 0 1 1.7-.12 5.67 5.67 0 0 1 3.233 1.28 5.737 5.737 0 0 1 1.493 1.9 8.956 8.956 0 0 1 .48 1.2c.011.04.03.08.049.13a2.382 2.382 0 0 1 .141.41 5.724 5.724 0 0 1 .128.77 7.923 7.923 0 0 1 .038.83 7.5 7.5 0 0 1-.831 3.32 10.519 10.519 0 0 1-2.112 2.85c-.4.39-.815.76-1.217 1.12l-.139.12c-.841.75-1.7 1.52-2.525 2.25-.462.42-.924.83-1.385 1.24-.29.26-.585.52-.87.78-.163.14-.326.29-.489.44a1.288 1.288 0 0 1-.832.35zm-4.336-17.23a5.5 5.5 0 0 0-1 .1 3.747 3.747 0 0 0-1.466.64 4.29 4.29 0 0 0-.917.96 4.721 4.721 0 0 0-.928 2.56 5.808 5.808 0 0 0 .053 1.17 5.93 5.93 0 0 0 .5 1.67 8.688 8.688 0 0 0 1.319 2 14.968 14.968 0 0 0 1.414 1.4c.447.39.9.79 1.342 1.18.515.46 1.03.91 1.545 1.37.455.4.911.81 1.366 1.21.369.33.739.65 1.108.98l.14-.12c.285-.26.581-.52.873-.78.461-.42.923-.83 1.385-1.24.828-.74 1.683-1.5 2.523-2.25l.14-.12c.388-.35.79-.71 1.163-1.07a9.058 9.058 0 0 0 1.763-2.37 5.713 5.713 0 0 0 .642-2.55 6.059 6.059 0 0 0-.03-.64 3.754 3.754 0 0 0-.088-.53 1.226 1.226 0 0 0-.053-.14 5.17 5.17 0 0 1-.1-.25 6.984 6.984 0 0 0-.38-.96 3.894 3.894 0 0 0-3.258-2.21 4.663 4.663 0 0 0-1.234.09 3.332 3.332 0 0 0-1.509.68 4.059 4.059 0 0 0-1.038 1.26c-.03.05-.061.1-.094.16l-.054.1a.887.887 0 0 1-1.513.07.785.785 0 0 1-.054-.08 2.425 2.425 0 0 1-.163-.25 4.445 4.445 0 0 0-.459-.68 3.634 3.634 0 0 0-2.881-1.35.125.125 0 0 0-.054-.01z" transform="translate(-550 -1736)"/></svg>