<svg xmlns="http://www.w3.org/2000/svg" width="235.75" height="50.937" viewBox="0 0 235.75 50.937"><defs><style>.cls-1{fill:#fff;fill-rule:evenodd}</style></defs><path id="logo_white.svg" class="cls-1" d="M651.238 288.22v3.848c-.767-1.463-1.821-2.682-3.246-2.682a3.454 3.454 0 0 0-2.6 1.5 2.682 2.682 0 0 0-.621 2.961 4.67 4.67 0 0 0 2.887 2.12c-1.78.508-3.557 1.35-4.178 2.715a3.092 3.092 0 0 0 .719 3.387 4.026 4.026 0 0 0 3.014 1.743c1.8 0 3.107-1.71 4.026-3.66v4.741H673.4V288.22h-22.162zm-4.749 4.854a1.048 1.048 0 0 1 .355-1 1.85 1.85 0 0 1 1.148-.809c.625 0 1.556 1.182 2.332 3.441-1.642-.27-3.495-.88-3.835-1.632zm.723 8.86a2.489 2.489 0 0 1-1.552-1.057c-.719-.872-.523-1.286-.466-1.425.482-1.04 3.009-1.843 5.15-2.149-1.033 3.189-2.274 4.631-3.132 4.631zm57.909-24.589c-1.528-1.86-3.144-2.8-4.827-2.8-2.715 0-4.728 2.442-6.191 5.334v-19.135H676.39v44.148h17.71v-11.013c1.185 2.035 2.761 3.631 4.811 3.631a5.466 5.466 0 0 0 4.116-2.372c1.659-2.006 1.442-3.647.98-4.683-.735-1.613-2.539-2.644-4.463-3.319 2.875-.809 5.738-2.157 6.737-4.359.539-1.177.776-3.083-1.16-5.432zm-3.871 14.349a1.625 1.625 0 0 1-.564 1.539 2.816 2.816 0 0 1-1.772 1.259c-.964 0-2.406-1.819-3.618-5.326 2.552.423 5.415 1.366 5.954 2.528zm2.279-10.156c-.769 1.673-4.827 2.965-8.267 3.453 1.655-5.119 3.66-7.438 5.032-7.438.906 0 1.846.926 2.491 1.7 1.147 1.399.842 2.066.744 2.285zm-34.209-20.75a7.137 7.137 0 0 0-14.26 0h-3.945v24.523h22.15v-24.523h-3.945zm-7.129-4.907a5.208 5.208 0 0 1 5.186 4.907H657a5.211 5.211 0 0 1 5.191-4.907zm78.134 45.267c0 1.074-1.325 1.677-2.409 2.094a24.459 24.459 0 0 1-8.2 1.385c-6.813 0-10.071-2.584-12.12-5.159-3.56-4.56-4.1-10.256-4.1-15.958 0-4.858.482-11.331 4.158-16.374 3.254-4.436 8.018-5.638 12.062-5.638 3.978 0 10.131 1.681 10.131 3.96v8.035c0 1.2-.723 1.024-1.028 1.024h-4.463c-1.2 0-1.026-.483-1.026-1.024v-4.976a9.784 9.784 0 0 0-3.2-.541 6.913 6.913 0 0 0-5.244 1.918c-2.536 2.583-2.833 7.56-2.833 12.24 0 6.355.6 11.4 3.012 13.918a7.32 7.32 0 0 0 5.551 2.092 18.185 18.185 0 0 0 3.194-.357v-5.337c0-.3-.183-1.021 1.026-1.021h4.463c1.205 0 1.02.72 1.02 1.021v8.7zM771 302.763c0 .42.117.845-.845.845h-7.536c-1.088 0-1.51-.965-1.752-2.227 0-.116-.059-.233-.059-.353-2.413 2.455-4.522 3.6-7.779 3.6-4.463 0-9.044-2.638-9.044-9.237 0-7.563 5.848-10.139 14.895-10.139h.844v-1.859c0-1.619.063-4.437-3.8-4.437a18.607 18.607 0 0 0-6.094 1.2 6.942 6.942 0 0 1-1.87.6.647.647 0 0 1-.6-.6l-1.2-3.658c-.177-.482-.666-1.264 1.2-1.922a28.653 28.653 0 0 1 9.891-1.618c8.625 0 9.7 5.879 9.7 9.656v10.376a14.1 14.1 0 0 0 .549 4.8l.057.242h2.593a.694.694 0 0 1 .845.839v3.895zm-11.276-12.594h-.363c-1.753 0-4.162 0-5.973 1.019a4.147 4.147 0 0 0-2.166 3.778 3.852 3.852 0 0 0 3.977 4.081c1.811 0 3.137-.961 4.525-2.279v-6.6zm27.947-11.214a12.99 12.99 0 0 0-2.414-.244c-3.617 0-3.856 2.28-3.856 3 0 1.618 1.02 2.217 2.108 2.7s2.053.777 3.982 1.5a12.793 12.793 0 0 1 5.785 3.659 8.483 8.483 0 0 1 1.868 5.4 9.522 9.522 0 0 1-2.713 6.84 10.24 10.24 0 0 1-7.655 2.821c-2.714 0-10.611-1.261-10.611-3.479V294.6a.692.692 0 0 1 .84-.836h4.1c.965 0 .841.54.841 1.077v2.942a13.472 13.472 0 0 0 4.282.84c3.138 0 3.678-1.859 3.678-3 0-1.739-1.147-2.4-2.348-2.94-1.451-.658-3.2-1.2-4.342-1.616a12.873 12.873 0 0 1-4.766-2.883 7.558 7.558 0 0 1-1.988-5.4 9.377 9.377 0 0 1 2.831-6.9c1.866-1.86 4.4-2.938 8.441-2.938 2.112 0 7.721.778 7.721 2.755v6.178c0 .961-.36.84-.786.84h-4.157a.694.694 0 0 1-.845-.84v-2.934zm41.444 23.808c0 .42.117.845-.845.845h-9.888a.7.7 0 0 1-.846-.845v-18.472a6.829 6.829 0 0 0-.6-3.48 3.093 3.093 0 0 0-2.84-1.559c-1.748 0-3.86 1.319-5.124 2.521v16.256h3.075c.963 0 .845.42.845.839v3.895c0 .42.118.845-.845.845h-13.806a.7.7 0 0 1-.846-.845v-3.895a.693.693 0 0 1 .846-.839h3.077v-31.851H798.3a.7.7 0 0 1-.845-.84v-3.9a.694.694 0 0 1 .845-.84h9.833c.963 0 .841.419.841.84v14.932a12.051 12.051 0 0 1 8.378-3.416c7.42 0 7.843 6 7.843 9.478v15.595h3.074c.962 0 .845.42.845.839v3.895zm12.243-27.169l.781-.541a11.8 11.8 0 0 1 6.58-2.1c5.358 0 10.606 3 10.606 15.178 0 13.247-7.294 16.493-12.418 16.493a8.478 8.478 0 0 1-6.215-2.343l-.3-.3-.176.479c-.963 2.517-1.448 2.275-2.41 2.038l-4.827-1.2a.645.645 0 0 1-.606-.479v-.12c.181-1.14 1.327-.841 1.327-6.72v-29.801h-3.012a.7.7 0 0 1-.846-.84v-3.9a.694.694 0 0 1 .846-.84h9.825c.97 0 .846.419.846.84v14.154zm0 21.773a6.632 6.632 0 0 0 3.8 1.26c5.609 0 6.512-5.874 6.512-10.2 0-4.019-.418-9.475-5.483-9.475a7.771 7.771 0 0 0-4.526 1.8l-.3.237v16.376zm37.527 5.4c0 .42.118.845-.844.845h-15.378a.7.7 0 0 1-.846-.845v-3.895a.7.7 0 0 1 .846-.839h3.856v-18.482H862.6a.692.692 0 0 1-.84-.84v-3.9a.692.692 0 0 1 .84-.841h10.733c.961 0 .844.417.844.841v23.213h3.861c.962 0 .844.42.844.839v3.895zm-8.565-32.686a4.977 4.977 0 0 1-5-4.98 4.927 4.927 0 0 1 5-4.918 4.877 4.877 0 0 1 4.947 4.918 4.927 4.927 0 0 1-4.95 4.976z" transform="translate(-643.25 -253.969)"/></svg>