<svg xmlns="http://www.w3.org/2000/svg" width="19" height="14" viewBox="0 0 19 14"><defs><style>.cls-1{fill:#ff4f2f;fill-rule:evenodd}</style></defs><path id="mail.svg" class="cls-1" d="M1326.01 311.442c-.45.493-.85.981-1.29 1.427q-3.345 3.391-6.71 6.763c-.49.487-.35.532-.89 0q-3.69-3.683-7.4-7.363c-.25-.246-.48-.506-.74-.787a1.886 1.886 0 0 1 1.04-.46 2.769 2.769 0 0 1 .43-.014q7.05 0 14.11.006a2.321 2.321 0 0 1 1.45.428zm-.41 13.363a3.16 3.16 0 0 1-1.28.19h-13.66a6.922 6.922 0 0 1-1.01-.113.572.572 0 0 1-.21-.091c1.66-1.778 3.33-3.553 5.01-5.357.58.57 1.12 1.117 1.67 1.664.26.255.51.512.77.766a.864.864 0 0 0 1.39-.023c.72-.742 1.45-1.478 2.18-2.215.04-.039.09-.071.14-.118 1.66 1.756 3.32 3.506 5 5.297zm-17.56-11.8l5.09 5.094-5 5.316a4.934 4.934 0 0 1-.13-.746v-9.287c0-.082.02-.171.04-.372zm18.75 10.433c-1.72-1.662-3.3-3.434-4.95-5.206 1.7-1.721 3.37-3.414 5.06-5.115a88.892 88.892 0 0 1-.11 10.326z" transform="translate(-1308 -311)"/></svg>