<svg xmlns="http://www.w3.org/2000/svg" width="27" height="23" viewBox="0 0 27 23"><defs><style>.cls-1{fill:#fff;fill-rule:evenodd}</style></defs><path id="no_photo.svg" class="cls-1" d="M766.486 79h-11.082a2.408 2.408 0 0 1-1.7-.607 2.132 2.132 0 0 1-.682-1.344 3.361 3.361 0 0 1-.022-.438V65.4c0-.382-.007-.766.025-1.146a4.526 4.526 0 0 1 .21-1.225c.043-.116.065-.241.111-.356a2.436 2.436 0 0 1 1.942-1.584 13.431 13.431 0 0 1 1.359-.143c.763-.056 1.527-.1 2.291-.143.723-.043 1.446-.082 2.169-.122.665-.038 1.331-.06 1.994-.116a1.331 1.331 0 0 0 1.062-.67c.524-.875 1.033-1.759 1.549-2.638a3.7 3.7 0 0 1 .61-.837 1.435 1.435 0 0 1 1.018-.41q2.049-.008 4.1 0a1.428 1.428 0 0 1 1.2.618c.258.36.484.743.711 1.124q.622 1.04 1.228 2.091a1.19 1.19 0 0 0 .5.466 6.335 6.335 0 0 0 1.276.425c.671.184 1.345.359 2.009.568a2.513 2.513 0 0 1 1.062.677 2.038 2.038 0 0 1 .574 1.46v13.155a2.353 2.353 0 0 1-1.969 2.373 2.657 2.657 0 0 1-.451.03q-5.548.003-11.094.003zm10.252-9.257a7.3 7.3 0 1 0-7.3 7.4 7.342 7.342 0 0 0 7.3-7.4zM769.571 57.8h-1.76a.322.322 0 0 0-.34.328q-.006 1.013 0 2.027a.324.324 0 0 0 .289.326 1.245 1.245 0 0 0 .174.01h3.345a.352.352 0 0 0 .4-.4v-1.918a.334.334 0 0 0-.375-.378h-1.729zm-13.422 2.18a2.78 2.78 0 0 1 .155-1.269 1.153 1.153 0 0 1 1.1-.713c1.043 0 2.086-.005 3.129 0a1.236 1.236 0 0 1 1.138.906 1.9 1.9 0 0 1 .063.691.107.107 0 0 1-.08.061c-.277.019-.555.032-.832.048l-2.363.14-2.239.135h-.075zm19.1 9.769a5.806 5.806 0 1 1-5.653-5.889 5.49 5.49 0 0 1 3.941 1.708 5.9 5.9 0 0 1 1.71 4.176zm-9.884-1.379a1.064 1.064 0 1 0 1.062-1.073 1.072 1.072 0 0 0-1.064 1.068z" transform="translate(-753 -56)"/></svg>