<svg xmlns="http://www.w3.org/2000/svg" viewBox="0 0 128 128.1"><path fill="#E81D1D" d="M128 103v5c-4.7 6-10.5 10.9-15.8 16.3-5 5.1-7.5 5.1-12.5.1-10.8-10.8-21.7-21.5-32.4-32.5-2.6-2.7-4-2.7-6.7 0-10.8 11.1-21.8 21.9-32.7 32.8-4 4-7.1 4.5-10.4 1.3-6-5.9-12.3-11.4-17.6-18v-5L37 66.2c1.7-1.7 1.7-2.8 0-4.5C24.7 49.6 12.4 37.3 0 25v-5C6.2 12.8 12.9 6.2 20 0h4c11.3 9.8 21.3 20.9 32 31.3 8.1 7.9 7.9 7.9 16.1 0C82.7 20.9 92.7 9.8 104 0h4c7.1 6.2 13.8 12.8 20 20v5c-12.4 12.3-24.7 24.6-37.1 36.8-1.7 1.7-1.7 2.8 0 4.5 12.4 12.2 24.7 24.4 37.1 36.7z"/></svg>