<svg id="r_vk.svg" xmlns="http://www.w3.org/2000/svg" width="44.37" height="45" viewBox="0 0 44.37 45"><defs><style>.cls-1{fill:#507299}.cls-2{fill:#fff;fill-rule:evenodd}</style></defs><circle id="Ellipse_7_copy" data-name="Ellipse 7 copy" class="cls-1" cx="22.185" cy="22.5" r="22.185"/><path id="vk" class="cls-2" d="M1089.28 603.255l-.03 1.5a4.586 4.586 0 0 0 .08.979 1.067 1.067 0 0 0 .23.484.307.307 0 0 0 .45.086 2.012 2.012 0 0 0 .41-.337 8.016 8.016 0 0 0 .97-1.369 18.957 18.957 0 0 0 1.61-3.406 1.237 1.237 0 0 1 .12-.252.555.555 0 0 1 .52-.3h1.03c.71 0 1.43-.01 2.15-.011a4.687 4.687 0 0 1 .72.027.517.517 0 0 1 .46.715 3.692 3.692 0 0 1-.31.866 14.993 14.993 0 0 1-1.2 2.007c-.48.694-.97 1.378-1.45 2.073a5.265 5.265 0 0 0-.37.656.865.865 0 0 0 .08.926 6.317 6.317 0 0 0 .72.828 18.55 18.55 0 0 1 1.76 1.954 5.634 5.634 0 0 1 .64 1.01 2.225 2.225 0 0 1 .13.362.615.615 0 0 1-.24.671 1.272 1.272 0 0 1-.74.241c-.89.017-1.78.021-2.67.045a2.152 2.152 0 0 1-.86-.109 2.9 2.9 0 0 1-1.13-.816c-.33-.366-.63-.752-.95-1.12-.22-.255-.46-.5-.69-.738a1.017 1.017 0 0 0-.27-.177.52.52 0 0 0-.67.131 1.419 1.419 0 0 0-.3.553 4.074 4.074 0 0 0-.18 1.1c-.01.171-.02.343-.04.512a.6.6 0 0 1-.42.536 1.492 1.492 0 0 1-.42.084c-.41.011-.82.007-1.22 0a5.986 5.986 0 0 1-2.31-.509 7.9 7.9 0 0 1-3.02-2.3 19.609 19.609 0 0 1-1.93-2.818 46.981 46.981 0 0 1-2.85-5.839 1.364 1.364 0 0 1-.08-.349.336.336 0 0 1 .23-.416 1.561 1.561 0 0 1 .5-.1c.84-.016 1.68-.017 2.53-.023h.25a.959.959 0 0 1 .95.68 20.315 20.315 0 0 0 2.07 4.109 7.1 7.1 0 0 0 .6.742.99.99 0 0 0 .33.229.389.389 0 0 0 .52-.2 1.987 1.987 0 0 0 .2-.635 9.18 9.18 0 0 0 .1-1.572c-.01-.541-.04-1.081-.07-1.621a2.282 2.282 0 0 0-.09-.442 1.091 1.091 0 0 0-.79-.857c-.09-.029-.18-.049-.27-.069s-.12-.06-.07-.159a1.076 1.076 0 0 1 .45-.463 1.9 1.9 0 0 1 .71-.231 13.376 13.376 0 0 1 2.28-.077 4.55 4.55 0 0 1 1.13.147.907.907 0 0 1 .73.894 10.092 10.092 0 0 1 .01 1.347l-.03.833z" transform="translate(-1065.91 -583)"/></svg>