<svg id="ruka.svg" xmlns="http://www.w3.org/2000/svg" width="65.156" height="53.593" viewBox="0 0 65.156 53.593"><defs><style>.cls-1,.cls-2{fill:#202e5c;fill-rule:evenodd}.cls-2{fill:#ff4f2f}</style></defs><path class="cls-1" d="M154.508 929.994c.769 0 1.539-.03 2.3.007.948.047 1.893.152 2.839.227.51.04 1.021.059 1.529.109.718.07 1.433.178 2.151.237 1.469.121 2.938.25 4.41.321 1.333.064 2.67.038 4 .089a5.97 5.97 0 0 1 1.456.231 14.2 14.2 0 0 1 2.068.755 3.637 3.637 0 0 1 2.049 2.71 2.449 2.449 0 0 1-.25 1.385 3.56 3.56 0 0 1-1.507 1.553 6.994 6.994 0 0 1-3.158.834 18.077 18.077 0 0 1-2.439-.156c-1.14-.077-2.281-.143-3.42-.224-.379-.027-.755-.086-1.132-.131a1.584 1.584 0 0 0-.254-.03 6.63 6.63 0 0 0-3.2.864 2.108 2.108 0 0 0-.8 1.356c-.405 1.416.375 2.325 1.405 3.068a12.618 12.618 0 0 0 4.495 1.951c1.031.249 2.056.528 3.1.721 1.488.275 2.99.472 4.483.724a28.265 28.265 0 0 0 5.774.324 16.675 16.675 0 0 0 5.309-1.058c1.55-.588 3.108-1.157 4.679-1.687a14.006 14.006 0 0 1 4.292-.79 5.343 5.343 0 0 1 4.261 1.668 2.791 2.791 0 0 1 .344 3.653 10.931 10.931 0 0 1-2.818 2.859 25.048 25.048 0 0 1-5.551 3.041c-1.236.524-2.5.993-3.781 1.4-1.549.492-3.124.906-4.694 1.328a76.478 76.478 0 0 1-3.135.759c-.523.116-1.06.172-1.59.255s-1.087.176-1.632.255c-.826.122-1.651.3-2.482.34a22.274 22.274 0 0 1-5.484-.135c-.483-.1-.98-.133-1.47-.2a43.53 43.53 0 0 1-6.97-1.692c-1.518-.455-3.021-.963-4.537-1.425-1.8-.549-3.6-1.1-5.411-1.6-.733-.2-1.5-.287-2.249-.428-.458-.086-.912-.2-1.373-.262a10.828 10.828 0 0 0-1.435-.142c-1.49-.018-2.982-.029-4.473 0-1.178.024-2.355.124-3.533.166-.794.028-.942-.068-1.132-.839s-.319-1.572-.46-2.362a40.209 40.209 0 0 1-.389-8.092c.03-1.252.241-2.5.378-3.747a12.966 12.966 0 0 1 .2-1.377 7.039 7.039 0 0 1 .466-1.572 1.225 1.225 0 0 1 .78-.545 25.545 25.545 0 0 0 4.762-1.188c1.534-.627 3.024-1.361 4.562-1.978a23.747 23.747 0 0 1 2.955-.936 20.19 20.19 0 0 1 2.938-.561 27.247 27.247 0 0 1 2.772-.02v-.018z" transform="translate(-134.656 -905.469)"/><path class="cls-2" d="M196.444 911.31a5.857 5.857 0 0 1-11.713-.013 5.857 5.857 0 0 1 6-5.83c2.826-.004 5.947 2.572 5.713 5.843zm-.01 19.356a5.71 5.71 0 0 1-5.91 5.829 5.855 5.855 0 0 1-5.8-5.953 5.513 5.513 0 0 1 1.524-3.828 6.141 6.141 0 0 1 4.456-1.881 5.728 5.728 0 0 1 5.73 5.833zm-20.734-3.884a5.807 5.807 0 1 1 5.753-6.023 5.7 5.7 0 0 1-5.753 6.023z" transform="translate(-134.656 -905.469)"/></svg>