<svg xmlns="http://www.w3.org/2000/svg" width="15" height="13" viewBox="0 0 15 13"><defs><style>.cls-1{fill:#00c0ff;fill-rule:evenodd}</style></defs><path id="tw.svg" class="cls-1" d="M781.387 4730.99a3.186 3.186 0 0 0-3.076 3.29 3.445 3.445 0 0 0 .08.74 8.53 8.53 0 0 1-6.341-3.43 3.452 3.452 0 0 0-.416 1.65 3.36 3.36 0 0 0 1.368 2.74 3.02 3.02 0 0 1-1.393-.41v.04a3.239 3.239 0 0 0 2.467 3.22 3.093 3.093 0 0 1-.81.11 3.656 3.656 0 0 1-.579-.05 3.121 3.121 0 0 0 2.874 2.28 6.023 6.023 0 0 1-4.555 1.36 8.324 8.324 0 0 0 4.716 1.47c5.658 0 8.752-5 8.752-9.34 0-.15 0-.29-.009-.43a6.426 6.426 0 0 0 1.535-1.7 5.9 5.9 0 0 1-1.767.52 3.272 3.272 0 0 0 1.353-1.82 5.916 5.916 0 0 1-1.953.8 2.983 2.983 0 0 0-2.246-1.04" transform="translate(-771 -4731)"/></svg>