<svg id="v_card.svg" xmlns="http://www.w3.org/2000/svg" width="70" height="64" viewBox="0 0 70 64"><defs><style>.cls-1,.cls-2{fill:#ff4f2f;fill-rule:evenodd}.cls-2{fill:#202e5c}</style></defs><path class="cls-1" d="M387.9 2332.98c.042.44.116.9.128 1.37.084 3.23-.475 3.65-3.554 2.73a5.977 5.977 0 0 1-4.4-5.89c-.058-9.39-.088-18.77 0-28.16.037-3.79 2.695-6.03 6.755-6.03q17.352-.015 34.7 0c3.025 0 6.051-.03 9.076.02 3.873.06 6.238 2.43 6.271 6.3.041 4.81.01 9.61.01 14.7a23.945 23.945 0 0 1-3.632-.07 1.8 1.8 0 0 1-.846-1.38c-.182-2.49-.138-2.5-2.616-2.5q-21.355.015-42.712.01c-2.482 0-2.483 0-2.483 2.59v12.27c.003 3.41.003 3.41 3.303 4.04zm20.479-26.06c7.359 0 14.717.02 22.076-.02a2.777 2.777 0 0 0 1.71-.46 9.641 9.641 0 0 0-.08-3.89c-.167-.53-1.558-.93-2.4-.94-7.476-.07-14.953-.04-22.431-.04-6.824 0-13.648-.01-20.473.02-1.984.01-2.147.51-2.219 3.58-.041 1.73.833 1.77 2.1 1.77 7.238-.03 14.476-.02 21.716-.02z" transform="translate(-380 -2297)"/><path class="cls-2" d="M421.568 2361c-7.833 0-15.667.01-23.5-.01-3.452 0-4.926-1.53-4.928-5.08q-.006-14.25 0-28.52c0-3.56 1.471-5.07 4.951-5.07q23.5-.015 47 0c3.435 0 4.9 1.47 4.9 4.91q.009 14.445 0 28.89c0 3.34-1.472 4.86-4.746 4.87-7.892.02-15.784.01-23.677.01zm-15.856-18.69v-.02c1.066 0 2.134.05 3.2-.01 2.247-.11 3.408-1.37 3.481-3.67.09-2.9-.94-4.55-3.221-4.71a55.112 55.112 0 0 0-6.921 0c-2.273.14-3.335 1.83-3.222 4.71.089 2.3 1.288 3.59 3.491 3.69 1.06.04 2.127.01 3.192.01zm37.63 7.34h-4.662c-3.51 0-3.77.31-3.27 3.86a.362.362 0 0 0 .017.17 2.3 2.3 0 0 0 .9.82c2.287.07 4.578.04 7.011.04v-4.89zm-42.1 4.91h3.938c4.324 0 4.325 0 3.856-4.44a.968.968 0 0 0-.225-.34h-7.571v4.78zm15.291 0v-.02a22.381 22.381 0 0 0 2.839-.04 1.5 1.5 0 0 0 1.1-.78c.827-3.07.051-4.07-3.044-4.07h-2.488c-2.4.01-2.4.01-2.407 2.44 0 2.46 0 2.46 2.4 2.47h1.6zm7.453-4.83c0 1.4-.07 2.6.041 3.77a1.37 1.37 0 0 0 .86.99c2.277.09 4.559.05 6.9.05v-4.81h-7.805z" transform="translate(-380 -2297)"/></svg>