<svg id="v_mob.svg" xmlns="http://www.w3.org/2000/svg" width="72.031" height="72" viewBox="0 0 72.031 72"><defs><style>.cls-1,.cls-2{fill:#202e5c;fill-rule:evenodd}.cls-2{fill:#f14c2d}</style></defs><path class="cls-1" d="M156.8 2298.52c5.292.35 10.112.54 14.9 1.05 2.532.27 4.236 2.68 4.273 5.41.05 3.83.013 7.66.014 11.48v36.88c0 4.34-1.692 6.34-6 6.81a139.439 139.439 0 0 1-30.9-.02c-3.951-.45-5.8-2.55-5.82-6.47q-.04-9.825.007-19.65a2.228 2.228 0 0 1 .416-1.5 2.746 2.746 0 0 1 1.708.38 5.384 5.384 0 0 1 3.186 6.03c-.309 2.4 0 4.87-.09 7.3-.05 1.28.449 1.71 1.668 1.85a132.2 132.2 0 0 0 29.156-.02 1.4 1.4 0 0 0 1.461-1.67q-.045-17.31 0-34.62c0-1.24-.483-1.57-1.642-1.61-2.562-.09-5.126-.25-7.677-.51a1.89 1.89 0 0 1-1.394-1.01 22.317 22.317 0 0 0-3.266-10.11zm-2.247 57.96a9.509 9.509 0 0 0 3.118-.08 3.178 3.178 0 0 0 1.977-1.94 2.749 2.749 0 0 0-1.58-2.21 34.907 34.907 0 0 0-6.782-.1 1.906 1.906 0 0 0-1.685 2.28 2 2 0 0 0 1.98 2.04c.988.07 1.984.02 2.975.01z" transform="translate(-104 -2289)"/><path class="cls-2" d="M148.5 2326.73c-.5-1.77.056-3.04 1.581-4.32 9.306-7.79 8.834-20.25-.917-27.43-10.865-8.01-27.055-8-37.766.23-5.369 4.12-8.272 9.56-7.145 16.53.97 6 4.706 10.12 9.742 13.14a30.912 30.912 0 0 0 19.653 4.16 4.824 4.824 0 0 1 3.5 1.01c4.131 2.81 8.374 5.45 12.6 8.11a8.8 8.8 0 0 0 1.88.65l.375-.39c-.208-.63-.433-1.27-.623-1.91-.973-3.26-1.967-6.51-2.88-9.78zm-17.591-15.04h-1.7v1.04h5.743a.484.484 0 0 1 .482.48v2.09a.484.484 0 0 1-.482.48H129.2v1.59h2.118c.257 0 .674-.13.674.67v1.72c0 .8-.417.67-.674.67h-8.087c-.257 0-.674.13-.674-.67v-1.72c0-.8.417-.67.674-.67h1.637v-1.59h-1.829a.484.484 0 0 1-.482-.48v-2.09a.484.484 0 0 1 .482-.48h1.829v-11.09h-1.637c-.257 0-.674.13-.674-.67v-1.72c0-.8.417-.67.674-.67h7.509c2.472 0 7.478-.1 7.478 6 .004 4.3-2.918 7.11-7.313 7.11zm-.385-9.76H129.2v6.41h1c1.733 0 3.69-.25 3.69-3.54-.001-2.81-1.701-2.87-3.37-2.87z" transform="translate(-104 -2289)"/></svg>