<svg xmlns="http://www.w3.org/2000/svg" width="70" height="73" viewBox="0 0 70 73"><defs><style>.cls-1{fill:#f8981d;fill-rule:evenodd}</style></defs><path id="v_qiwi.svg" class="cls-1" d="M382 2551.49c.128-1.15.213-2.31.391-3.46a33.043 33.043 0 0 1 14.232-22.73 33.418 33.418 0 0 1 22.32-6.2c14.182 1.07 25.121 10.76 27.85 23.67 2.024 9.58-.27 18.26-6.028 26.11-.08.1-.181.2-.331.36-1.582-5.35-4.91-8.7-10.578-9.54a6.983 6.983 0 0 1 3.741.08c1.188.37 2.317.93 3.631 1.47.246-1.28.6-2.6.739-3.94.86-8.46-1.865-15.78-7.362-22.13a27.55 27.55 0 0 0-14.586-9.04c-10.749-2.6-20.234 2.69-23.547 13.23-2.361 7.51-1.264 14.71 2.465 21.54 3.213 5.89 8.342 9.51 14.535 11.79a28.918 28.918 0 0 0 7.64 1.62c.183.01.366.02.549.02a2.514 2.514 0 0 0 .288-.06 12.06 12.06 0 0 1-.5-4.72 30.3 30.3 0 0 0 2 2.58 16.988 16.988 0 0 0 9.582 4.96c2.437.41 4.912.68 7.3 1.28a23.452 23.452 0 0 1 14.55 10.46 11.064 11.064 0 0 1 .956 1.97A4.848 4.848 0 0 1 452 2592h-.275a20.49 20.49 0 0 0-1.4-2.18 24.913 24.913 0 0 0-9.749-7.27 26.756 26.756 0 0 0-18.006-1.25 26.752 26.752 0 0 1-7.063.93 38.915 38.915 0 0 1-16.1-3.3c-9.7-4.27-15.35-11.66-17.008-22.07-.19-1.19-.27-2.39-.4-3.59v-1.78zm51.6 20.98a1.5 1.5 0 0 1-1.5 1.67 2.412 2.412 0 0 1-2.232-2.35 1.55 1.55 0 0 1 1.521-1.67 2.364 2.364 0 0 1 2.211 2.35zm5.193-1.76c-.043.08-.169.33-.294.58a1.951 1.951 0 0 1-.713-.5 14.188 14.188 0 0 1-.85-2.08 1.568 1.568 0 0 1 .2-.73 2.125 2.125 0 0 1 .732.24 3.52 3.52 0 0 1 .932 2.49z" transform="translate(-382 -2519)"/></svg>