<svg xmlns="http://www.w3.org/2000/svg" width="65" height="64.97" viewBox="0 0 65 64.97"><defs><style>.cls-1{fill:#006ab4;fill-rule:evenodd}</style></defs><path id="v_webm.svg" class="cls-1" d="M228.682 2525.11c-1.507-1.64-2.97-3.23-4.475-4.87-.185.15-.348.26-.494.39l-13.254 11.94c-.42.37-.258.58.024.89q3.861 4.23 7.706 8.48c.275.31.539.62.871 1-.307.29-.581.56-.866.81-.708.63-1.4 1.29-2.142 1.88-.439.35-.408.59-.054.99 2.364 2.62 4.708 5.26 7.058 7.9.344.38.669.78 1.033 1.15a.465.465 0 0 1-.053.81c-.894.76-1.758 1.56-2.651 2.33a.5.5 0 0 0-.073.86q6.033 6.7 12.048 13.41c.093.1.21.19.36.32.847-.78 1.68-1.55 2.512-2.31 1.521-1.4 3.05-2.78 4.555-4.2a.506.506 0 0 1 .89.04c1.874 2.17 3.761 4.34 5.675 6.48.39.43.305.61-.126.93a33.341 33.341 0 0 1-9.24 4.91 32.225 32.225 0 0 1-14.092 1.54 31.683 31.683 0 0 1-10.575-3.07 32.221 32.221 0 0 1-15.421-15.88 31.57 31.57 0 0 1-2.659-17.17 32.455 32.455 0 0 1 45.025-26.04c1.147.49 2.251 1.08 3.5 1.68-.82.75-1.524 1.4-2.242 2.03-.876.78-.644.76-1.417-.03-1.127-1.15-2.25-2.3-3.352-3.48a.57.57 0 0 0-.964-.04c-2.174 1.97-4.372 3.91-6.563 5.86-.157.13-.314.26-.544.46zm6.08 27.82a2.729 2.729 0 0 1 .345.27q3.169 3.51 6.337 7.03a.4.4 0 0 1-.051.67q-3.5 3.135-6.986 6.29c-.315.29-.5.22-.758-.07q-3.091-3.465-6.207-6.9a.474.474 0 0 1 .059-.81q3.44-3.06 6.857-6.16c.119-.11.252-.2.404-.32zm-10.987-26.55a3.48 3.48 0 0 1 .384.34c2.072 2.3 4.137 4.61 6.217 6.9a.426.426 0 0 1-.022.72q-3.528 3.165-7.042 6.34c-.352.32-.5.07-.689-.14-2.056-2.29-4.1-4.59-6.176-6.86a.491.491 0 0 1 .042-.85c1.837-1.63 3.659-3.28 5.485-4.92.461-.41.915-.84 1.379-1.25a3.96 3.96 0 0 1 .422-.28zm12.406 20.81a4.682 4.682 0 0 1-.339.38q-3.47 3.135-6.939 6.26a.411.411 0 0 1-.713-.04q-3.156-3.525-6.329-7.04a.358.358 0 0 1 .053-.61q3.548-3.18 7.084-6.38c.351-.32.507-.04.694.16 1.439 1.6 2.873 3.19 4.309 4.79.608.67 1.218 1.34 1.823 2.02a5.322 5.322 0 0 1 .357.46zm-.733-11.98c-.124-.11-.238-.2-.331-.3-1.507-1.67-3.006-3.35-4.522-5.01a.441.441 0 0 1 .02-.76q2.544-2.265 5.058-4.56a.389.389 0 0 1 .664.04q2.285 2.565 4.594 5.11a.389.389 0 0 1-.059.66l-5.112 4.59c-.088.08-.194.14-.312.23zm10.292 23.98c-1.69-1.88-3.319-3.68-4.924-5.51a.583.583 0 0 1 .057-.56c1.7-1.56 3.413-3.11 5.146-4.63a.6.6 0 0 1 .592.05q2.346 2.55 4.635 5.15a.532.532 0 0 1 .012.51c-1.805 1.66-3.63 3.29-5.518 4.99zm5.042 11.62c-.392-.42-.815-.87-1.226-1.32-1.175-1.31-2.336-2.62-3.523-3.91a.5.5 0 0 1 .032-.86c1.653-1.47 3.294-2.94 4.924-4.43a.469.469 0 0 1 .81.03c1.5 1.68 3.012 3.34 4.5 5.03a.622.622 0 0 1 .008.6c-1.762 1.62-3.549 3.21-5.333 4.81a.9.9 0 0 1-.192.05zm-9.983-23.88c-.357-.39-.662-.72-.963-1.05-1.286-1.43-2.561-2.86-3.863-4.27-.31-.34-.321-.55.027-.85q2.5-2.22 4.968-4.48a.438.438 0 0 1 .756.05q2.247 2.52 4.512 5.02c.219.24.283.42.009.67-1.796 1.61-3.584 3.23-5.445 4.91zm12.113 2.83c1.245-1.12 2.417-2.18 3.607-3.23a.475.475 0 0 1 .46.04c1.009 1.08 2 2.18 2.976 3.31a.556.556 0 0 1-.068.54 114.66 114.66 0 0 1-3.214 2.9.554.554 0 0 1-.544-.01c-1.065-1.14-2.103-2.31-3.217-3.55zm-1.089-14.87c.118.11.231.19.323.29.942 1.04 1.875 2.09 2.822 3.12a.4.4 0 0 1-.025.67c-1.076.96-2.138 1.94-3.226 2.89a.519.519 0 0 1-.5-.01 136.511 136.511 0 0 1-2.982-3.3.528.528 0 0 1 .006-.51c1.085-1.01 2.194-1.99 3.3-2.98a1.774 1.774 0 0 1 .282-.17zm-1.565-7.71c-.126.14-.226.27-.345.38-1.006.91-2.023 1.81-3.018 2.74a.439.439 0 0 1-.753-.05c-.912-1.04-1.841-2.06-2.773-3.08a.415.415 0 0 1 .024-.71c1.065-.94 2.1-1.92 3.174-2.85a.6.6 0 0 1 .589.05c.988 1.04 1.946 2.12 2.908 3.2a1.8 1.8 0 0 1 .194.32z" transform="translate(-195 -2516)"/></svg>