<svg xmlns="http://www.w3.org/2000/svg" width="17" height="10" viewBox="0 0 17 10"><defs><style>.cls-1{fill:#222c4c;fill-rule:evenodd}</style></defs><path id="vk.svg" class="cls-1" d="M681.929 4735.51c-.007.38-.015.77-.02 1.15a2.9 2.9 0 0 0 .061.75.844.844 0 0 0 .184.38.26.26 0 0 0 .369.06 1.644 1.644 0 0 0 .33-.26 6.133 6.133 0 0 0 .784-1.05 14.448 14.448 0 0 0 1.3-2.61 1.148 1.148 0 0 1 .094-.2.456.456 0 0 1 .422-.23c.278 0 .556 0 .835-.01h1.735a3.828 3.828 0 0 1 .587.02.4.4 0 0 1 .368.55 2.49 2.49 0 0 1-.249.66 11.022 11.022 0 0 1-.973 1.54c-.387.54-.784 1.06-1.17 1.6a3.677 3.677 0 0 0-.3.5.645.645 0 0 0 .063.71 4.472 4.472 0 0 0 .589.64 14.965 14.965 0 0 1 1.423 1.5 4.652 4.652 0 0 1 .514.77 1.6 1.6 0 0 1 .106.28.463.463 0 0 1-.195.52 1.07 1.07 0 0 1-.6.18c-.72.02-1.44.02-2.16.04a1.8 1.8 0 0 1-.691-.09 2.32 2.32 0 0 1-.919-.62c-.26-.28-.5-.58-.764-.86-.18-.2-.369-.39-.561-.57a.873.873 0 0 0-.213-.14.452.452 0 0 0-.546.1 1.08 1.08 0 0 0-.243.43 3.141 3.141 0 0 0-.148.84c-.008.13-.011.27-.028.4a.478.478 0 0 1-.34.41 1.342 1.342 0 0 1-.342.06c-.329.01-.658.01-.987.01a5.21 5.21 0 0 1-1.865-.4 6.4 6.4 0 0 1-2.448-1.77 15.729 15.729 0 0 1-1.561-2.16 34.659 34.659 0 0 1-2.3-4.49.891.891 0 0 1-.066-.27.254.254 0 0 1 .187-.31 1.156 1.156 0 0 1 .407-.08c.68-.01 1.36-.01 2.04-.02h.2a.775.775 0 0 1 .773.52 15.116 15.116 0 0 0 1.673 3.16 5.413 5.413 0 0 0 .481.57.889.889 0 0 0 .271.17.316.316 0 0 0 .416-.15 1.435 1.435 0 0 0 .161-.49 5.933 5.933 0 0 0 .082-1.2c-.009-.42-.032-.83-.057-1.25a2.047 2.047 0 0 0-.068-.34.876.876 0 0 0-.642-.66c-.072-.02-.146-.03-.219-.05s-.1-.05-.059-.12a.91.91 0 0 1 .365-.36 1.7 1.7 0 0 1 .581-.18 11.28 11.28 0 0 1 1.838-.05 3.555 3.555 0 0 1 .918.11.7.7 0 0 1 .586.69 6.811 6.811 0 0 1 .008 1.03c-.006.21-.016.43-.024.64z" transform="translate(-672 -4733)"/></svg>