<svg xmlns="http://www.w3.org/2000/svg" viewBox="0 0 130 400" height="400" width="130"><path d="M.036-.152v400H56.64c-4.593-2.07-8.608-5.03-8.605-9.07 0-2.35 1.384-4.63 4.113-6.77 3.453-2.71 6.248-2.381 7.985-1.621 3.206 1.39 5.198 5.351 6.39 9.341 1-2.77 2.57-5.381 5-6.441 1.532-.66 3.98-.96 6.98 1.39 2.342 1.84 3.53 3.81 3.53 5.86 0 3.19-2.83 5.58-6.273 7.31h54.275v-400h-130zM57.643 386.09c-.547-.02-1.411.19-2.693 1.197h-.002c-1.136.9-2.49 2.23-2.488 3.49 0 1.93 3.4 4.731 10.916 7.051-.71-4.81-2.614-10.51-5.069-11.58-.122-.053-.335-.147-.664-.158zm16.174 2.978c-.17 0-.327.027-.469.09-1.775.77-3.215 4.94-3.843 8.63 5.335-1.75 8.109-3.85 8.109-5.25 0-.69-.678-1.61-1.912-2.58-.745-.586-1.376-.883-1.885-.89z" opacity=".97" fill="#fff" fill-rule="evenodd"/></svg>