<?xml version="1.0" encoding="UTF-8" standalone="no"?>
<svg
   xmlns:dc="http://purl.org/dc/elements/1.1/"
   xmlns:cc="http://creativecommons.org/ns#"
   xmlns:rdf="http://www.w3.org/1999/02/22-rdf-syntax-ns#"
   xmlns:svg="http://www.w3.org/2000/svg"
   xmlns="http://www.w3.org/2000/svg"
   version="1.1"
   id="svg4134"
   viewBox="0 0 130 400"
   height="400"
   width="130">
  <defs
     id="defs4136" />
  <metadata
     id="metadata4139">
    <rdf:RDF>
      <cc:Work
         rdf:about="">
        <dc:format>image/svg+xml</dc:format>
        <dc:type
           rdf:resource="http://purl.org/dc/dcmitype/StillImage" />
        <dc:title></dc:title>
      </cc:Work>
    </rdf:RDF>
  </metadata>
  <g
     transform="translate(0,-652.36163)"
     id="layer1">
    <path
       id="path4143"
       d="m 0.03589026,652.20919 0,399.99991 56.60547174,0 c -4.593,-2.07 -8.60847,-5.0303 -8.60547,-9.0703 0.001,-2.35 1.38428,-4.6295 4.11328,-6.7695 3.453,-2.71 6.24738,-2.3811 7.98438,-1.6211 3.206,1.39 5.19862,5.3518 6.39062,9.3418 1,-2.77 2.569,-5.3814 5,-6.4414 1.532,-0.66 3.98047,-0.9594 6.98047,1.3906 2.341,1.84 3.5293,3.8094 3.5293,5.8594 0,3.19 -2.83044,5.5805 -6.27344,7.3105 l 54.275358,0 0,-399.99991 -129.99996974,0 z M 57.643312,1038.4513 c -0.5476,-0.019 -1.41148,0.191 -2.69336,1.1973 l -0.002,0 c -1.136,0.9 -2.49028,2.2302 -2.48828,3.4902 0,1.93 3.40102,4.7308 10.91602,7.0508 -0.709,-4.81 -2.61336,-10.5101 -5.06836,-11.5801 -0.12188,-0.053 -0.33551,-0.147 -0.66406,-0.1582 z m 16.17383,2.9785 c -0.16959,0 -0.327,0.027 -0.46875,0.09 -1.775,0.77 -3.21575,4.939 -3.84375,8.629 5.335,-1.75 8.10938,-3.85 8.10938,-5.25 0,-0.69 -0.67811,-1.6101 -1.91211,-2.5801 -0.74475,-0.585 -1.37599,-0.8817 -1.88477,-0.8887 z"
       style="opacity:0.97000002;fill:#ffffff;fill-rule:evenodd" />
  </g>
</svg>
