<svg id="_01_03.svg" data-name="01_03.svg" xmlns="http://www.w3.org/2000/svg" width="82" height="95" viewBox="0 0 82 95">
  <defs>
    <style>
      .cls-1 {
        fill: #202e5c;
      }

      .cls-1, .cls-2 {
        fill-rule: evenodd;
      }

      .cls-2 {
        fill: #ff4f2f;
      }
    </style>
  </defs>
  <path class="cls-1" d="M1202.14,801.694q16.425,0,32.84-.011a0.715,0.715,0,0,1,.86.858c-0.01,3.912-.01,7.823.02,11.734,0.01,0.785-.41.793-0.97,0.792-8.22-.008-16.44.019-24.66-0.015a15.075,15.075,0,0,0-11.32,4.617,13.182,13.182,0,0,0-3.55,6.328,2.706,2.706,0,0,1-.2.63c-1.04,2.062-.72,4.234-0.54,6.4a8.86,8.86,0,0,1,.08,1.025,17.914,17.914,0,0,0,1.91,8.527,8.354,8.354,0,0,0,2.17,3.171,24.622,24.622,0,0,0,6.51,3.834,15.348,15.348,0,0,0,5.69.794c2.88-.03,5.75-0.153,8.62-0.167,1.79-.009,3.59.17,5.39,0.161,3.26-.018,6.52-0.119,9.78-0.175,1.06-.019,1.1.013,1.07,1.051-0.04,2.209-.16,4.417-0.15,6.625,0,2.406.08,4.811,0.16,7.217a0.727,0.727,0,0,1-.87.909q-11.385-.045-22.75-0.04c-6.15,0-12.29.009-18.44,0q-9.765-.014-19.53-0.059a29.488,29.488,0,0,1-4.87-.192,12.125,12.125,0,0,1-8.49-5.813,13.879,13.879,0,0,1-1.9-7.6c0.03-17.146-.03-34.293.03-51.438a12.243,12.243,0,0,1,5.04-9.867c2.92-2.3,6.29-2.705,9.83-2.488a0.568,0.568,0,0,1,.62.645q-0.015,2.878,0,5.756a0.639,0.639,0,0,1-.79.7c-1.42,0-2.83-.013-4.24.02a2.932,2.932,0,0,0-2.71,1.7,2.853,2.853,0,0,0,.29,3.126,2.564,2.564,0,0,0,2,1.184c0.71,0.03,1.42.051,2.12,0.052q15.48,0,30.95,0v0Zm18.73,19.6c3.86,0,7.71.048,11.56-.013a8.624,8.624,0,0,1,8.53,8.717c-0.03,1.672.06,3.348-.02,5.017a11.375,11.375,0,0,1-.5,3.251,6.973,6.973,0,0,1-1.62,2.4,16.07,16.07,0,0,1-3.18,2.644,6.046,6.046,0,0,1-2.89.638c-3.36.03-6.72-.105-10.08-0.105-3.16,0-6.33.182-9.49,0.118a51.394,51.394,0,0,1-6.44-.6,4.375,4.375,0,0,1-3.01-1.727,16.179,16.179,0,0,1-2.44-4.222,7.709,7.709,0,0,1-.42-2.786c0-1.919-.12-3.853.07-5.753a8.283,8.283,0,0,1,4.72-6.724,8.665,8.665,0,0,1,4.24-.873c3.66,0.02,7.32.006,10.97,0.006v0.012Zm-4.63,11.381a4.329,4.329,0,0,0-4.13-4.3c-2.21-.113-4.74,2.294-4.63,4.225a4.6,4.6,0,0,0,4.39,4.576A4.762,4.762,0,0,0,1216.24,832.671Zm16.08-44.175c0.93,0,1.85.013,2.78-.007a0.613,0.613,0,0,1,.74.73c-0.01,1.891-.01,3.781.01,5.672a0.618,0.618,0,0,1-.74.732c-1.9-.021-3.79-0.025-5.69-0.009a0.58,0.58,0,0,1-.67-0.718q0.015-2.835,0-5.671a0.6,0.6,0,0,1,.72-0.737C1230.42,788.517,1231.37,788.5,1232.32,788.5Z" transform="translate(-1159 -771)"/>
  <path class="cls-2" d="M1200.58,771.037c5.46,0,10.93.072,16.39-.03a4.412,4.412,0,0,1,4.61,4.64c-0.05,6.37-.01,12.74.01,19.11a0.726,0.726,0,0,1-.87.86q-3.4-.034-6.8,0a0.808,0.808,0,0,1-.94-0.983c0.02-3.024-.01-6.05.03-9.074a1.061,1.061,0,0,0-.88-1.266,5.119,5.119,0,0,1-3.33-2.566c-0.27-.513-0.38-1.113-0.66-1.623a1.043,1.043,0,0,0-.72-0.521c-4.51-.032-9.02-0.02-13.53-0.036a0.894,0.894,0,0,0-1,.757,5.187,5.187,0,0,1-4.07,4.068,0.888,0.888,0,0,0-.76,1.077c0.02,3.05.01,6.1,0.01,9.15,0,1.006,0,1.007-1.03,1.008-2.22,0-4.44-.012-6.65.011a0.739,0.739,0,0,1-.91-0.884c0.02-6.345.04-12.691,0-19.035a4.448,4.448,0,0,1,2.78-4.411,6.557,6.557,0,0,1,1.94-.276c5.46-.022,10.92-0.013,16.38-0.013v0.036Z" transform="translate(-1159 -771)"/>
</svg>
