<svg id="_01_02.svg" data-name="01_02.svg" xmlns="http://www.w3.org/2000/svg" width="91" height="91" viewBox="0 0 91 91">
  <defs>
    <style>
      .cls-1 {
        fill: #202e5c;
      }

      .cls-1, .cls-2 {
        fill-rule: evenodd;
      }

      .cls-2 {
        fill: #ff4f2f;
      }
    </style>
  </defs>
  <path class="cls-1" d="M800.5,865.994H760.077a5.048,5.048,0,0,1-5.066-5.3q-0.016-13.5,0-27c0-4.174-.015-8.348,0-12.521,0-.94.157-1.881,0.15-2.82-0.038-5.365-.113-10.73-0.15-16.094-0.007-.964.157-1.93,0.149-2.894-0.025-2.928-.12-5.856-0.141-8.785a5.014,5.014,0,0,1,5.178-5.4c1.062-.043,1.089-0.064,1.1-1.108,0.009-1.293,0-2.585,0-3.878A4.986,4.986,0,0,1,766.5,775l63.762,0.007c1.491,0,2.983-.025,4.474.01a5.091,5.091,0,0,1,5.11,4.98c0.089,1.337.011,2.684,0.011,4.026,0,1.12,0,1.1,1.1,1.169,2.252,0.136,3.983,1.094,4.725,3.318a8.262,8.262,0,0,1,.3,2.57q0.023,34.418.012,68.834c0,0.4.007,0.8-.01,1.194a4.74,4.74,0,0,1-2.9,4.408,6.426,6.426,0,0,1-2.392.441c-1.937.062-3.877,0.026-5.816,0.027H800.5v0.011Zm-0.375-42.135c-1.064-.161-2.295-0.3-3.5-0.549a10.865,10.865,0,0,1-1.966-.679,15.418,15.418,0,0,1-8.993-9.361,0.709,0.709,0,0,1,.213-0.9,5.819,5.819,0,0,0,1.923-4.229,6.141,6.141,0,0,0-12.251-.725,5.825,5.825,0,0,0,2.87,5.733,2.728,2.728,0,0,1,1.371,1.893,4.223,4.223,0,0,0,.142.5,23.069,23.069,0,0,0,4.25,7.027,21.289,21.289,0,0,0,12.918,7.1,21,21,0,0,0,11.959-1.474,21.661,21.661,0,0,0,12.09-12.854,3.63,3.63,0,0,1,1.033-1.884,6.113,6.113,0,1,0-7.413-1.561,1.745,1.745,0,0,1,.277,2.348c-0.1.174-.2,0.344-0.287,0.523C811.793,820.757,806.85,823.557,800.121,823.859Zm0.459-40.918H771.27c-0.447,0-.895,0-1.342-0.006a0.619,0.619,0,0,0-.748.7c0.011,1.566.006,3.132,0.018,4.7a0.756,0.756,0,0,0,.925.807c0.546-.021,1.093-0.05,1.639-0.05q27.968,0,55.935,0c1.069,0,2.139-.026,3.206.006a0.783,0.783,0,0,0,.964-0.951c-0.044-1.366-.014-2.734-0.015-4.1,0-1.086-.012-1.1-1.067-1.1h-30.2Z" transform="translate(-755 -775)"/>
  <path class="cls-2" d="M800.127,824.081c-1.089-.168-2.352-0.317-3.594-0.573a11.033,11.033,0,0,1-2.016-.709,15.954,15.954,0,0,1-9.22-9.761,0.747,0.747,0,0,1,.22-0.937,6.107,6.107,0,0,0,1.97-4.409,6.293,6.293,0,0,0-12.56-.756,6.1,6.1,0,0,0,2.943,5.978,2.861,2.861,0,0,1,1.407,1.976,4.475,4.475,0,0,0,.143.522,24.143,24.143,0,0,0,4.36,7.328,21.731,21.731,0,0,0,13.242,7.406,21.235,21.235,0,0,0,12.264-1.537,22.446,22.446,0,0,0,12.4-13.405,3.8,3.8,0,0,1,1.058-1.967,6.319,6.319,0,0,0,3.387-5.89,6.2,6.2,0,0,0-8.278-5.825,6.323,6.323,0,0,0-2.711,10.088,1.839,1.839,0,0,1,.285,2.449c-0.1.18-.2,0.358-0.294,0.544C812.1,820.845,807.026,823.767,800.127,824.081Z" transform="translate(-755 -775)"/>
</svg>
