<svg xmlns="http://www.w3.org/2000/svg" width="8" height="15" viewBox="0 0 8 15">
  <defs>
    <style>
      .cls-1 {
        fill: #ff4f2f;
        fill-rule: evenodd;
      }
    </style>
  </defs>
  <path id="_04m.svg" data-name="04m.svg" class="cls-1" d="M976.549,299.983c0.031-.147.061-0.3,0.094-0.442q0.148-.664.3-1.328c0.11-.488.223-0.974,0.333-1.462q0.225-1,.448-2.01c0.087-.387.177-0.774,0.264-1.16,0.027-.12.014-0.144-0.105-0.147-0.237-.005-0.474,0-0.711,0l-1.824.008c-0.08,0-.161,0-0.24,0A0.54,0.54,0,0,1,975,293.4a0.451,0.451,0,0,1,.044-0.111c0.156-.206.317-0.409,0.474-0.615l1.937-2.53c0.4-.529.809-1.06,1.216-1.588,0.151-.2.315-0.38,0.465-0.576,0.225-.3.439-0.6,0.664-0.893,0.169-.219.355-0.425,0.522-0.646,0.339-.448.671-0.9,1.006-1.354a0.932,0.932,0,0,1,.088-0.09l0.029,0.015c-0.019.1-.035,0.2-0.057,0.3-0.088.4-.173,0.79-0.266,1.184-0.174.745-.357,1.489-0.528,2.235-0.1.431-.177,0.867-0.272,1.3s-0.2.871-.3,1.306c0,0.022-.008.045-0.012,0.067-0.024.137-.012,0.154,0.123,0.154H982.7c0.062,0,.125,0,0.186,0a0.626,0.626,0,0,1,.111.029,0.534,0.534,0,0,1-.049.117q-1.059,1.388-2.122,2.773-1.322,1.725-2.645,3.449-0.756.987-1.515,1.974a0.856,0.856,0,0,1-.1.093Z" transform="translate(-975 -285)"/>
</svg>
