<?xml version="1.0" encoding="utf-8"?>
<!-- Generator: Adobe Illustrator 19.2.1, SVG Export Plug-In . SVG Version: 6.00 Build 0)  -->
<svg version="1.1" id="Слой_1" xmlns="http://www.w3.org/2000/svg" xmlns:xlink="http://www.w3.org/1999/xlink" x="0px" y="0px"
	 viewBox="0 0 192 192.4" style="enable-background:new 0 0 192 192.4;" xml:space="preserve">
<style type="text/css">
	.st0{fill:#838383;}
</style>
<path class="st0" d="M20.7,192.4c-1-0.9-2-1.5-2.8-2.3c-5.3-5.3-10.4-10.8-15.9-15.9c-2.8-2.6-2.6-4,0-6.6
	c22.2-22.5,44.3-45.3,66.6-67.7c3.2-3.3,3.1-4.9,0-8.1C46.3,69.2,24.3,46.5,2,24c-2.6-2.7-2.7-4.1,0-6.6c5.3-4.8,10.3-9.9,15.1-15.3
	c2.8-3.1,4.4-2.5,7,0.2C47,25.8,70.1,49.2,92.9,72.8c2.3,2.4,3.4,2.9,6.1,0.2c22.8-23.6,45.9-47,68.7-70.5c2.8-2.9,4.5-3.3,7.4-0.1
	c4.8,5.3,9.9,10.4,15.1,15.3c2.6,2.4,2.4,3.8,0,6.2c-22.3,22.7-44.5,45.5-66.9,68.1c-3.1,3.1-3,4.7,0,7.7
	c22.3,22.5,44.3,45.2,66.6,67.7c2.8,2.8,2.9,4.3,0,7c-5.2,4.7-10,9.7-14.8,14.9c-2.5,2.7-4.1,3.3-7,0.2
	c-22.8-23.6-45.9-47-68.7-70.5c-2.5-2.6-3.6-3.1-6.4-0.2c-22.8,23.6-45.8,47-68.8,70.5C23.1,190.3,21.9,191.2,20.7,192.4z"/>
</svg>
