<?xml version="1.0" encoding="utf-8"?>
<!-- Generator: Adobe Illustrator 19.2.1, SVG Export Plug-In . SVG Version: 6.00 Build 0)  -->
<svg version="1.1" id="Слой_1" xmlns="http://www.w3.org/2000/svg" xmlns:xlink="http://www.w3.org/1999/xlink" x="0px" y="0px"
	 viewBox="0 0 191.9 190.4" style="enable-background:new 0 0 191.9 190.4;" xml:space="preserve">
<style type="text/css">
	.st0{fill:#F4F5F9;}
</style>
<path class="st0" d="M191.9,170.7c-0.4,0.7-0.7,1.3-1.1,1.8c-5.8,5.5-10.9,11.7-17.2,16.7c-2,1.6-3.4,1.9-5.4-0.2
	c-21.5-22-43.3-43.8-64.7-65.9c-8-8.2-7.6-8.4-15.1-0.1c-3.9,4.3-8.2,8.3-12.3,12.4c-16.8,17.1-33.5,34.2-50.4,51.3
	c-4.7,4.8-5.9,4.8-10.6,0.1c-4.3-4.2-8.4-8.5-12.8-12.7c-2.2-2.1-3-3.7-0.6-6.6c7.1-8.7,15.5-16,23.3-24
	c14.7-15.2,29.5-30.3,44.4-45.3c2.6-2.6,2.2-4-0.1-6.4C48.7,71.1,28.3,50.3,7.9,29.5C5.5,27,3.3,24.2,1,21.6
	c-1.6-1.8-1.1-3.2,0.4-4.7c5-4.9,9.8-10,14.9-14.8c2.8-2.7,5.5-2.8,8.6,0.3c20.9,21.4,42,42.7,63,64.1c2.6,2.7,4.2,7.7,7.9,7.7
	c3.7,0.1,5.3-4.9,7.9-7.6c4.3-4.4,8.7-8.7,13-13.1c16.4-16.7,32.8-33.5,49.3-50.3c4.4-4.5,6.1-4.4,10.7,0.1
	c4.3,4.2,8.4,8.6,12.8,12.7c2.4,2.2,2.6,3.8,0.4,6.6c-4.4,5.4-9.5,10.2-14.4,15.2C157.7,56,140.1,74,122.2,92c-2.3,2.3-2.3,3.7,0,6
	c20.6,20.8,41.2,41.7,61.7,62.6c2.4,2.5,4.6,5.2,6.9,7.9C191.3,169.1,191.5,169.9,191.9,170.7z"/>
</svg>
