<svg id="chest.svg" xmlns="http://www.w3.org/2000/svg" width="110" height="91" viewBox="0 0 110 91">
  <defs>
    <style>
      .cls-1, .cls-2 {
        fill: #ececec;
      }

      .cls-2 {
        fill-rule: evenodd;
      }
    </style>
  </defs>
  <rect class="cls-1" y="18" width="110" height="73"/>
  <path class="cls-2" d="M659.609,1588h19.119c3.443-1.73,6.273-4.12,6.273-7.31,0-2.05-1.188-4.02-3.529-5.86-3-2.35-5.45-2.05-6.982-1.39-2.431,1.06-4,3.67-5,6.44-1.192-3.99-3.184-7.95-6.39-9.34-1.737-.76-4.531-1.09-7.984,1.62-2.729,2.14-4.112,4.42-4.113,6.77C651,1582.97,655.016,1585.93,659.609,1588Zm16.707-10.69c0.567-.25,1.36.02,2.353,0.8,1.234,0.97,1.911,1.89,1.911,2.58,0,1.4-2.773,3.5-8.108,5.25C673.1,1582.25,674.541,1578.08,676.316,1577.31Zm-18.4-1.87c2.051-1.61,3.034-1.18,3.359-1.04,2.455,1.07,4.359,6.77,5.068,11.58-7.515-2.32-10.917-5.12-10.917-7.05C655.424,1577.67,656.778,1576.34,657.914,1575.44Z" transform="translate(-613 -1570)"/>
</svg>
