<?xml version="1.0" encoding="utf-8"?>
<!-- Generator: Adobe Illustrator 16.0.0, SVG Export Plug-In . SVG Version: 6.00 Build 0)  -->
<!DOCTYPE svg PUBLIC "-//W3C//DTD SVG 1.1//EN" "http://www.w3.org/Graphics/SVG/1.1/DTD/svg11.dtd">
<svg version="1.1" id="Слой_1" xmlns="http://www.w3.org/2000/svg" xmlns:xlink="http://www.w3.org/1999/xlink" x="0px" y="0px"
	 width="12px" height="8px" viewBox="0 0 12 8" enable-background="new 0 0 12 8" xml:space="preserve">
<path id="_01m.svg" fill="#FFFFFF" d="M0.005,0c0.027,0.014,0.053,0.03,0.077,0.05c0.27,0.289,0.54,0.579,0.809,0.869L1.8,1.9
	l0.65,0.7c0.214,0.231,0.43,0.461,0.644,0.692c0.079,0.085,0.157,0.172,0.237,0.257c0.03,0.046,0.092,0.06,0.138,0.03
	c0.015-0.01,0.027-0.023,0.035-0.039c0.165-0.235,0.328-0.47,0.491-0.706s0.324-0.474,0.487-0.71
	C4.706,1.798,4.93,1.473,5.155,1.148l0.527-0.766c0.07-0.1,0.14-0.2,0.208-0.305c0.068-0.105,0.138-0.111,0.212,0l0.722,1.051
	c0.199,0.294,0.408,0.585,0.609,0.88C7.637,2.303,7.857,2.629,8.07,2.939c0.136,0.2,0.275,0.4,0.414,0.6
	C8.51,3.592,8.573,3.615,8.627,3.59c0.019-0.009,0.034-0.023,0.045-0.041c0.301-0.325,0.602-0.65,0.9-0.974l0.8-0.866l0.875-0.945
	c0.218-0.236,0.438-0.471,0.657-0.706c0.002-0.006,0.008-0.011,0.013-0.014l0.065-0.02c0.008,0.021,0.012,0.042,0.013,0.064
	c-0.007,0.055-0.021,0.109-0.032,0.164c-0.066,0.31-0.137,0.619-0.209,0.928c-0.037,0.163-0.07,0.327-0.105,0.49
	c-0.041,0.186-0.086,0.372-0.125,0.559c-0.041,0.187-0.074,0.352-0.112,0.528c-0.038,0.176-0.072,0.326-0.108,0.489
	c-0.041,0.186-0.083,0.372-0.123,0.559l-0.154,0.7c-0.058,0.267-0.115,0.534-0.174,0.8c-0.053,0.237-0.108,0.473-0.16,0.709
	c-0.039,0.17-0.071,0.34-0.108,0.51s-0.08,0.347-0.119,0.52c-0.019,0.08-0.036,0.159-0.053,0.239
	c-0.036,0.176-0.073,0.352-0.108,0.528c-0.002,0.109-0.094,0.198-0.204,0.196c-0.013-0.001-0.026-0.002-0.04-0.005H2.126
	c-0.087,0-0.175,0-0.263,0C1.779,8.003,1.708,7.941,1.697,7.857c-0.068-0.314-0.134-0.629-0.2-0.943
	c-0.076-0.35-0.153-0.699-0.23-1.049C1.206,5.589,1.146,5.313,1.085,5.036c-0.084-0.382-0.17-0.761-0.254-1.142
	c-0.07-0.323-0.138-0.646-0.207-0.969C0.562,2.636,0.5,2.347,0.436,2.058C0.376,1.78,0.315,1.501,0.253,1.223
	C0.2,0.987,0.145,0.751,0.092,0.515C0.06,0.373,0.029,0.231,0,0.088C-0.001,0.059,0,0.029,0.005,0z"/>
</svg>
