<svg xmlns="http://www.w3.org/2000/svg" width="6" height="21" viewBox="0 0 6 21">
  <defs>
    <style>
      .cls-1 {
        fill: #fff;
        fill-rule: evenodd;
      }
    </style>
  </defs>
  <path id="exclam.svg" class="cls-1" d="M155,717.4c-0.025.317-.054,0.634-0.073,0.951-0.037.6-.044,1.208-0.106,1.808-0.1.935-.209,1.869-0.348,2.8a15.227,15.227,0,0,1-.785,3.129,4.261,4.261,0,0,1-.865,1.514,1.028,1.028,0,0,1-1.281.283,2.154,2.154,0,0,1-.527-0.451,4.678,4.678,0,0,1-.776-1.489,17.275,17.275,0,0,1-.773-3.2,37.66,37.66,0,0,1-.464-5.426,3.644,3.644,0,0,1,.246-1.619A3.019,3.019,0,0,1,152.106,714a2.888,2.888,0,0,1,2.155,1,2.719,2.719,0,0,1,.724,1.86c0,0.178,0,.356,0,0.534Zm-0.277,14.993a2.734,2.734,0,0,1-5.463-.007A2.735,2.735,0,0,1,154.722,732.39Z" transform="translate(-149 -714)"/>
</svg>
