<svg id="fbm.svg" xmlns="http://www.w3.org/2000/svg" width="42.594" height="42.66" viewBox="0 0 42.594 42.66">
  <defs>
    <style>
      .cls-1 {
        fill: #009cff;
      }

      .cls-2 {
        fill: #fff;
        fill-rule: evenodd;
      }
    </style>
  </defs>
  <circle id="Ellipse_9_copy_11" data-name="Ellipse 9 copy 11" class="cls-1" cx="21.297" cy="21.33" r="21.297"/>
  <path class="cls-2" d="M233.226,1665.36v-0.53c0-1.11-.011-2.22.007-3.33a0.891,0.891,0,0,0-.373-0.79,10.933,10.933,0,0,1-4.121-6.97,10.783,10.783,0,0,1,3.738-10.13,12.112,12.112,0,0,1,7.634-3.11,12.33,12.33,0,0,1,11.376,5.32,10.939,10.939,0,0,1-2.416,14.96,12.807,12.807,0,0,1-6.931,2.71,14.4,14.4,0,0,1-4.391-.34,1.03,1.03,0,0,0-.644.1c-1.148.6-2.282,1.24-3.42,1.86C233.568,1665.18,233.448,1665.24,233.226,1665.36Zm-0.268-9.51c0.031,0.04.061,0.07,0.092,0.11,0.128-.07.259-0.13,0.385-0.2,1.758-.96,3.518-1.92,5.268-2.9a0.449,0.449,0,0,1,.651.11c0.835,0.93,1.7,1.82,2.536,2.75,0.264,0.29.423,0.3,0.7,0,1.939-2.08,3.9-4.14,5.844-6.21,0.181-.19.351-0.4,0.526-0.6a0.559,0.559,0,0,1-.064-0.08c-0.2.1-.4,0.19-0.593,0.29-1.646.91-3.294,1.82-4.933,2.75a0.5,0.5,0,0,1-.736-0.11c-0.536-.59-1.092-1.16-1.656-1.73-0.427-.43-0.878-0.83-1.346-1.28Q236.308,1652.29,232.958,1655.85Z" transform="translate(-219.125 -1631)"/>
</svg>
