<svg xmlns="http://www.w3.org/2000/svg" width="16" height="16" viewBox="0 0 16 16">
  <defs>
    <style>
      .cls-1 {
        fill: #ff4f2f;
        fill-rule: evenodd;
      }
    </style>
  </defs>
  <path id="gift.svg" class="cls-1" d="M173.382,730.012l0.1-.033c0-.008,0-0.016,0-0.024-0.072-.009-0.143-0.02-0.215-0.026s-0.167-.009-0.25-0.014c-0.469-.031-0.94-0.055-1.409-0.1-0.258-.022-0.513-0.074-0.77-0.111-0.061-.009-0.124-0.01-0.186-0.017-0.268-.033-0.537-0.059-0.8-0.1-0.3-.048-0.608-0.1-0.908-0.167a1.057,1.057,0,0,1-.583-0.3,1.044,1.044,0,0,1-.29-0.75q0-2.97,0-5.938,0-.15-0.012-0.3a0.077,0.077,0,0,1,.086-0.1l0.25,0h5.344c0.133,0,.132,0,0.13.141,0,0.256,0,.512,0,0.768q0,2.715,0,5.429c0,0.5.009,1,.016,1.5a1.006,1.006,0,0,0,.021.132h-0.521Zm2.729,0a1.007,1.007,0,0,0,.022-0.153q0.009-3.779.016-7.556c0-.042,0-0.083,0-0.125-0.011-.132,0-0.141.131-0.141h4.792c0.25,0,.5,0,0.75,0a0.1,0.1,0,0,1,.127.125q0,3.087,0,6.176a1.036,1.036,0,0,1-.571.982,1.059,1.059,0,0,1-.313.1c-0.238.044-.479,0.072-0.719,0.111-0.214.035-.427,0.077-0.64,0.115-0.041.008-.082,0.019-0.123,0.023-0.285.031-.571,0.059-0.857,0.091-0.392.044-.783,0.1-1.176,0.132-0.276.024-.554,0.022-0.832,0.034-0.06,0-.119.015-0.209,0.027l0.087,0.055h-0.48Zm-1.094-9.177h-6.811c-0.08,0-.16,0-0.24,0a1,1,0,0,1-.969-1.086,2.863,2.863,0,0,0-.005-0.4c0.006-.269.014-0.539,0.03-0.808a0.837,0.837,0,0,1,.26-0.493,1.014,1.014,0,0,1,.8-0.3c0.74-.008,1.479,0,2.219,0,0.3,0,.608.008,0.913,0a0.187,0.187,0,0,0,.125-0.086,0.168,0.168,0,0,0-.062-0.112c-0.213-.2-0.437-0.38-0.643-0.583a1.273,1.273,0,0,1-.3-0.546,2.529,2.529,0,0,1-.084-0.287,1.786,1.786,0,0,1,.113-1.027,1.427,1.427,0,0,1,.332-0.5,1.7,1.7,0,0,1,.361-0.317,4.99,4.99,0,0,1,.509-0.222,1.4,1.4,0,0,1,.708-0.058,1.676,1.676,0,0,1,.886.367c0.329,0.29.65,0.589,0.972,0.887,0.174,0.16.346,0.323,0.514,0.49a0.126,0.126,0,0,0,.2.006c0.412-.394.82-0.792,1.233-1.184a1.9,1.9,0,0,1,.762-0.483,1.83,1.83,0,0,1,1.2.019,1.892,1.892,0,0,1,.77.519,1.567,1.567,0,0,1,.39.785,2.491,2.491,0,0,1,.058.34,1.729,1.729,0,0,1-.318,1.084,5.474,5.474,0,0,1-.558.583c-0.048.049-.107,0.088-0.151,0.14a0.165,0.165,0,0,0-.04.116,0.129,0.129,0,0,0,.1.048c0.252,0.01.5,0.018,0.756,0.019,0.986,0,1.972-.01,2.958,0a0.971,0.971,0,0,1,1.007,1c0.007,0.394.02,0.789,0,1.182a0.941,0.941,0,0,1-.485.769,1.13,1.13,0,0,1-.636.137h-6.863Z" transform="translate(-167 -714)"/>
</svg>
