<svg id="google2.svg" xmlns="http://www.w3.org/2000/svg" width="44.344" height="45" viewBox="0 0 44.344 45">
  <defs>
    <style>
      .cls-1 {
        fill: #e84c34;
      }

      .cls-2 {
        fill: #fdfdfd;
        fill-rule: evenodd;
      }
    </style>
  </defs>
  <circle class="cls-1" cx="22.172" cy="22.5" r="22.172"/>
  <path id="googl" class="cls-2" d="M915.366,266.023l-0.579.354c-0.357.218-.713,0.438-1.071,0.653a0.321,0.321,0,0,1-.151.043c-0.512,0-1.023,0-1.557,0,0.035,0.031.057,0.051,0.08,0.07a5.24,5.24,0,0,1,1.215,1.328,3.861,3.861,0,0,1,.555,1.617,3.972,3.972,0,0,1-.313,2.147,4.237,4.237,0,0,1-1.1,1.4c-0.218.191-.447,0.371-0.674,0.553a3.106,3.106,0,0,0-.667.7,1.124,1.124,0,0,0,.16,1.5,9.369,9.369,0,0,0,.79.638,13.9,13.9,0,0,1,1.667,1.422,3.631,3.631,0,0,1,.933,1.553,3.85,3.85,0,0,1-.506,3.2,5.329,5.329,0,0,1-2.074,1.84,8.011,8.011,0,0,1-2.228.76,11.128,11.128,0,0,1-2.417.186,8.893,8.893,0,0,1-2.484-.391,5.11,5.11,0,0,1-1.769-.942,3.155,3.155,0,0,1-1.13-1.887,3.076,3.076,0,0,1,.31-1.956,4.146,4.146,0,0,1,1.593-1.672,7.722,7.722,0,0,1,2.532-.951,13.984,13.984,0,0,1,1.682-.24l0.989-.083c-0.019-.026-0.034-0.048-0.05-0.069a3.935,3.935,0,0,1-.528-0.78,2,2,0,0,1-.028-1.728c0.025-.057.049-0.116,0.079-0.189-0.111.009-.209,0.016-0.307,0.025a4.754,4.754,0,0,1-3.31-.825,3.915,3.915,0,0,1-1.6-2.525,4.229,4.229,0,0,1,.745-3.241,5.164,5.164,0,0,1,2.266-1.807,8.513,8.513,0,0,1,2.262-.632,10.2,10.2,0,0,1,1.462-.1q2.565,0,5.128,0h0.086Zm-6.319,18.88c0.266-.018.532-0.029,0.8-0.054a4.716,4.716,0,0,0,1.557-.406,2.88,2.88,0,0,0,1.048-.79,2.4,2.4,0,0,0,.537-1.378,2.3,2.3,0,0,0-.371-1.481,4.1,4.1,0,0,0-.771-0.836c-0.522-.45-1.091-0.841-1.655-1.238a0.447,0.447,0,0,0-.271-0.087c-0.315,0-.631,0-0.946.015a9.963,9.963,0,0,0-1.819.256,4.72,4.72,0,0,0-1.646.7,2.469,2.469,0,0,0-1.1,2.528,2.54,2.54,0,0,0,.777,1.477,4.141,4.141,0,0,0,1.691.968A7.683,7.683,0,0,0,909.047,284.9Zm2.476-13.225c-0.01-.126-0.019-0.359-0.049-0.59a6.57,6.57,0,0,0-.487-1.768,4.5,4.5,0,0,0-1.164-1.674,2.386,2.386,0,0,0-2.1-.6,2.287,2.287,0,0,0-1.838,1.553,4.038,4.038,0,0,0-.125,1.9,6.244,6.244,0,0,0,.548,1.857,4.2,4.2,0,0,0,1.008,1.391,2.561,2.561,0,0,0,1.471.655,2.667,2.667,0,0,0,1.578-.353,2.082,2.082,0,0,0,.978-1.117A3.527,3.527,0,0,0,911.523,271.678Zm6.443,2.692v-2.492c0-.112,0-0.112.116-0.112H919.2c0.107,0,.108,0,0.108.1v2.5h0.111c0.824,0,1.649,0,2.474,0,0.082,0,.107.022,0.106,0.1q-0.006.559,0,1.119c0,0.082-.027.1-0.107,0.1q-1.238,0-2.474,0c-0.11,0-.11,0-0.11.108,0,0.8,0,1.609,0,2.413,0,0.081-.022.1-0.1,0.1q-0.567-.006-1.135,0a0.085,0.085,0,0,1-.105-0.1q0-1.2,0-2.4c0-.115,0-0.115-0.121-0.115h-2.433c-0.116,0-.116,0-0.116-0.112,0-.371,0-0.741,0-1.111a0.08,0.08,0,0,1,.1-0.1q1.236,0,2.474,0h0.1Z" transform="translate(-888.656 -253)"/>
</svg>
