<svg id="help05.svg" xmlns="http://www.w3.org/2000/svg" width="59" height="48" viewBox="0 0 59 48">
  <defs>
    <style>
      .cls-1 {
        fill: #22315e;
      }

      .cls-1, .cls-2, .cls-3 {
        fill-rule: evenodd;
      }

      .cls-2 {
        fill: #89c9eb;
      }

      .cls-3 {
        fill: #ff4f2f;
      }
    </style>
  </defs>
  <path class="cls-1" d="M519.525,544.089c-1.462-1.748-3.009-2.631-4.617-2.631-2.6,0-4.524,2.3-5.92,5.015v-17.99H492.04v41.5h16.943V559.632c1.134,1.914,2.641,3.413,4.6,3.413a5.249,5.249,0,0,0,3.938-2.229c1.586-1.886,1.378-3.429.936-4.4-0.7-1.516-2.429-2.486-4.268-3.12,2.749-.76,5.489-2.028,6.444-4.1C521.15,548.092,521.376,546.3,519.525,544.089Zm-3.7,13.489a1.514,1.514,0,0,1-.539,1.447,2.684,2.684,0,0,1-1.7,1.183c-0.922,0-2.3-1.71-3.461-5.006,2.442,0.4,5.18,1.284,5.7,2.376h0Zm2.18-9.546c-0.734,1.573-4.617,2.787-7.907,3.246,1.583-4.812,3.5-6.993,4.814-6.993a3.851,3.851,0,0,1,2.387,1.6c1.1,1.316.8,1.943,0.706,2.149h0Z" transform="translate(-462 -522)"/>
  <path class="cls-2" d="M486.459,528.523a6.708,6.708,0,0,0-13.411,0h-3.711v23.563h20.832V528.523h-3.71Zm-6.7-4.715a4.945,4.945,0,0,1,4.877,4.715h-9.757a4.948,4.948,0,0,1,4.88-4.715h0Z" transform="translate(-462 -522)"/>
  <path class="cls-3" d="M469.458,553.971v3.7c-0.717-1.406-1.7-2.578-3.034-2.578a3.208,3.208,0,0,0-2.431,1.441,2.633,2.633,0,0,0-.58,2.847,4.387,4.387,0,0,0,2.7,2.038c-1.664.488-3.325,1.3-3.9,2.609a3.034,3.034,0,0,0,.671,3.256,3.742,3.742,0,0,0,2.818,1.676c1.679,0,2.9-1.645,3.763-3.519V570h20.711V553.971H469.458Zm-4.439,4.666a1.025,1.025,0,0,1,.332-0.963,1.727,1.727,0,0,1,1.073-.777c0.584,0,1.454,1.133,2.176,3.3-1.531-.254-3.263-0.84-3.583-1.564h0Zm0.676,8.518a2.318,2.318,0,0,1-1.45-1.016c-0.672-.838-0.49-1.237-0.436-1.371,0.451-1,2.812-1.772,4.814-2.066-0.966,3.066-2.126,4.453-2.928,4.453h0Z" transform="translate(-462 -522)"/>
</svg>
