<svg id="help01.svg" xmlns="http://www.w3.org/2000/svg" width="60" height="54" viewBox="0 0 60 54">
  <defs>
    <style>
      .cls-1 {
        fill: #22315e;
      }

      .cls-1, .cls-2 {
        fill-rule: evenodd;
      }

      .cls-2 {
        fill: #ff4f2f;
      }
    </style>
  </defs>
  <path class="cls-1" d="M209.944,345.759q2.762,0.082,5.521.169a2.429,2.429,0,0,1,1.767.6,1.992,1.992,0,0,1,.552,1.059,2.576,2.576,0,0,1-2.41,2.914c-1.227.184-2.48,0.2-3.722,0.276a17.552,17.552,0,0,0-5.193.83,2.576,2.576,0,0,0-2.072,2.282c-0.058.306,0.2,0.39,0.449,0.4a32.263,32.263,0,0,0,3.357.129,33.843,33.843,0,0,0,7.306-1.274,27.535,27.535,0,0,0,5.915-2.618c2-1.126,3.989-2.288,6.019-3.367a9.207,9.207,0,0,1,4.254-1.277,9.061,9.061,0,0,1,2.614.371c1.124,0.338,1.365,1.3.728,2.342a13.408,13.408,0,0,1-3.173,3.239,49.149,49.149,0,0,1-7.782,5.34,59.674,59.674,0,0,1-5.848,2.767,38.8,38.8,0,0,1-5.244,1.647,33.018,33.018,0,0,1-10.725.865c-1.8-.154-3.6-0.347-5.4-0.534-0.573-.059-1.14-0.176-1.713-0.228a0.37,0.37,0,0,1-.405-0.471c0.058-.629.137-1.26,0.146-1.89,0.033-2.406.077-4.812,0.048-7.217-0.019-1.524-.158-3.047-0.248-4.57-0.038-.646-0.035-0.628.588-0.707,1.5-.192,2.991-0.431,4.49-0.612a54.484,54.484,0,0,1,8.214-.485c0.655,0.02,1.311,0,1.966,0v0.02Zm-18.684,9.034c-0.144,2.476-.29,5.061-0.45,7.646-0.029.475-.1,0.949-0.175,1.42a1.186,1.186,0,0,1-1.42,1.13c-2-.18-4-0.391-6-0.591-0.621-.062-1.242-0.119-1.86-0.2a1.033,1.033,0,0,1-1.1-1.286c0.073-2.419.239-4.84,0.179-7.256-0.056-2.228-.353-4.45-0.554-6.673-0.045-.491-0.131-0.977-0.2-1.466a0.907,0.907,0,0,1,1-1.174c2.6-.064,5.209-0.117,7.813-0.173,0.328-.007.656-0.013,0.983-0.014a1.2,1.2,0,0,1,1.229.869,2.49,2.49,0,0,1,.137.63C190.981,350,191.116,352.336,191.26,354.793Z" transform="translate(-178 -311)"/>
  <path class="cls-2" d="M207.969,341.116q-13.62,0-27.241-.009a3.869,3.869,0,0,1-1.417-.22,2.176,2.176,0,0,1-1.264-2.468,2.355,2.355,0,0,1,2.23-1.764c0.689-.013,1.379,0,2.068,0,0.547,0,.567-0.042.652-0.578a31.4,31.4,0,0,1,.592-3.372A35.354,35.354,0,0,1,185,328.555a21.956,21.956,0,0,1,3.68-5.881,25.357,25.357,0,0,1,6.612-5.5,24.106,24.106,0,0,1,5.354-2.314c1.3-.379,2.654-0.577,3.989-0.829,0.591-.111.751-0.07,0.785-0.7a2.556,2.556,0,0,1,2.062-2.276,2.524,2.524,0,0,1,2.708,1.162,4.361,4.361,0,0,1,.4,1.317,0.457,0.457,0,0,0,.428.436c0.931,0.144,1.875.243,2.787,0.467a29.983,29.983,0,0,1,3.2.98,24.071,24.071,0,0,1,5.315,2.767,25.487,25.487,0,0,1,5.437,5.035,24.361,24.361,0,0,1,4.058,7.309,22.324,22.324,0,0,1,1.2,5.52c0.048,0.576.084,0.6,0.7,0.608a21.538,21.538,0,0,1,2.582.105,2.135,2.135,0,0,1,1.7,1.95,2.189,2.189,0,0,1-1.318,2.189,3.225,3.225,0,0,1-1.137.2c-4.567.014-9.135,0.01-13.7,0.011H207.969Zm17.249-10.581a20.743,20.743,0,0,0-.541-2.154,12.428,12.428,0,0,0-3.342-4.825,16.44,16.44,0,0,0-7.467-4.041,9.736,9.736,0,0,0-4.289-.184,3.393,3.393,0,0,0-2.228,1.322,0.826,0.826,0,0,0,.139,1.206,3.709,3.709,0,0,0,.934.545c1.52,0.579,3.062,1.105,4.576,1.7a14.933,14.933,0,0,1,5.253,3.3c1.27,1.28,2.423,2.673,3.648,4a10.631,10.631,0,0,0,1.37,1.28,0.83,0.83,0,0,0,1.289-.25A3.986,3.986,0,0,0,225.218,330.535Z" transform="translate(-178 -311)"/>
</svg>
