<svg id="help04.svg" xmlns="http://www.w3.org/2000/svg" width="51" height="44" viewBox="0 0 51 44">
  <defs>
    <style>
      .cls-1 {
        fill: #22315e;
      }

      .cls-1, .cls-2 {
        fill-rule: evenodd;
      }

      .cls-2 {
        fill: #ff4f2f;
      }
    </style>
  </defs>
  <path class="cls-1" d="M210.02,526.017q10.243,0,20.488,0a2.476,2.476,0,0,1,2.046.876,2.424,2.424,0,0,1,.5,1.616q0,5.558,0,11.116c0,0.307,0,.615.013,0.923a0.31,0.31,0,0,1-.361.375c-1.3,0-2.6-.006-3.9,0a0.379,0.379,0,0,1-.429-0.477c0.013-1.308.009-2.616,0.01-3.924,0-.544-0.018-0.561-0.562-0.561q-17.846,0-35.689-.006a0.388,0.388,0,0,0-.479.46q0.011,11.6,0,23.194a0.417,0.417,0,0,0,.5.51c0.946,0.014,1.89.108,2.835,0.121a11.923,11.923,0,0,0,1.491-.137c0.383-.043.489,0.138,0.486,0.494-0.012,1.269-.006,2.538,0,3.806a0.305,0.305,0,0,1-.382.349c-1.077-.044-2.155-0.088-3.233-0.1-0.446-.007-0.894.087-1.341,0.081a19.234,19.234,0,0,1-2.994-.119c-1.142-.2-1.969-0.62-1.99-2.068-0.024-1.663.077-3.327,0.073-4.991-0.021-9.651-.038-19.3-0.1-28.953a2.458,2.458,0,0,1,2.608-2.6C196.413,526.035,203.217,526.017,210.02,526.017Zm-12.784,5.006a2.454,2.454,0,0,0-2.47-2.482,2.422,2.422,0,0,0-2.486,2.38,2.5,2.5,0,0,0,2.461,2.577A2.547,2.547,0,0,0,197.236,531.023Zm8.578-.021a2.452,2.452,0,0,0,2.433,2.48,2.47,2.47,0,1,0,.016-4.94A2.45,2.45,0,0,0,205.814,531Zm-1.835.061a2.459,2.459,0,1,0-4.917-.064,2.49,2.49,0,0,0,2.413,2.5A2.464,2.464,0,0,0,203.979,531.063Z" transform="translate(-187 -526)"/>
  <path class="cls-2" d="M219.13,569.988c-5.1,0-10.193-.008-15.29.006a3.451,3.451,0,0,1-2.967-1.4,2.789,2.789,0,0,1-.521-1.689c-0.035-2.073-.072-4.146-0.082-6.219-0.005-1,.074-1.994.07-2.991q-0.021-5.2-.08-10.407a3.4,3.4,0,0,1,1.229-2.852,3.2,3.2,0,0,1,2.057-.739c2.439-.007,4.878,0,7.317,0h23.762a3.32,3.32,0,0,1,3.368,3.358c0,6.507-.016,13.015.009,19.522A3.413,3.413,0,0,1,234.534,570C229.4,569.967,224.265,569.987,219.13,569.988ZM204.1,556.844h0a10.9,10.9,0,0,0,.016,1.3,0.86,0.86,0,0,0,.339.573c1.024,0.61,2.067,1.189,3.113,1.761,0.885,0.484,1.79.933,2.674,1.421,1.008,0.557,2,1.141,3,1.711,0.208,0.118.383,0.121,0.383-.187,0-.833,0-1.665-0.026-2.5a0.539,0.539,0,0,0-.194-0.385c-0.706-.46-1.413-0.922-2.149-1.333-1.327-.74-2.675-1.443-4.012-2.166a0.352,0.352,0,0,1-.192-0.2,0.338,0.338,0,0,1,.175-0.213q3.014-1.7,6.032-3.384a0.61,0.61,0,0,0,.353-0.585c-0.006-.781.006-1.562,0.01-2.343,0-.343-0.1-0.4-0.422-0.22q-3.341,1.841-6.683,3.679c-0.7.383-1.4,0.755-2.069,1.175a0.88,0.88,0,0,0-.338.579A11.128,11.128,0,0,0,204.1,556.844Zm20.617-6.909a0.956,0.956,0,0,0-.082.222c-0.005.884-.019,1.768,0,2.65a0.612,0.612,0,0,0,.293.409c0.794,0.467,1.606.9,2.409,1.358q1.841,1.037,3.679,2.079c0.218,0.123.254,0.238,0.007,0.376-0.525.294-1.045,0.6-1.569,0.894-1.526.864-3.056,1.721-4.574,2.6a0.588,0.588,0,0,0-.248.422c-0.023.844-.013,1.69-0.009,2.535a1.023,1.023,0,0,0,.075.249c0.137-.061.254-0.1,0.36-0.163q4.349-2.457,8.7-4.911a0.6,0.6,0,0,0,.356-0.609c-0.015-.755-0.025-1.512,0-2.266a0.79,0.79,0,0,0-.474-0.814c-2.6-1.455-5.194-2.93-7.79-4.4C225.5,550.361,225.128,550.161,224.721,549.935Zm-7.517,13.9h0c0.411,0,.822-0.006,1.233,0a0.4,0.4,0,0,0,.457-0.355c0.173-.708.369-1.41,0.564-2.113q0.909-3.291,1.822-6.58c0.416-1.5.824-3.007,1.248-4.508,0.083-.3,0-0.4-0.3-0.4-0.809.006-1.618,0.009-2.427,0a0.385,0.385,0,0,0-.432.334c-0.316,1.172-.643,2.341-0.967,3.511q-0.51,1.848-1.021,3.7-0.525,1.9-1.049,3.807c-0.2.714-.406,1.425-0.6,2.14-0.1.374-.022,0.468,0.352,0.468S216.832,563.83,217.2,563.83Z" transform="translate(-187 -526)"/>
</svg>
