<svg id="help02.svg" xmlns="http://www.w3.org/2000/svg" width="62" height="49.969" viewBox="0 0 62 49.969">
  <defs>
    <style>
      .cls-1 {
        fill: #ff4f2f;
      }

      .cls-1, .cls-2 {
        fill-rule: evenodd;
      }

      .cls-2 {
        fill: #22315e;
      }
    </style>
  </defs>
  <path class="cls-1" d="M516.17,342.126q2.232,0,4.465.007a3.549,3.549,0,0,1,.365.031V313c-0.16.01-.309,0.026-0.457,0.026q-20.2,0-40.405,0c-0.6,0-.616.012-0.617,0.631q0,4.413,0,8.825c0,0.617,0,.616.6,0.616h23.062c0.636,0,.636,0,0.636.66q0,4.676,0,9.349,0,4.263,0,8.526c0,0.484.018,0.469,0.5,0.51a1.765,1.765,0,0,1,.78.262c0.9,0.579,1.78,1.192,2.669,1.791q3.174,2.14,6.35,4.279c0.716,0.481,1.431.966,2.162,1.424a0.611,0.611,0,0,0,.526.071,0.875,0.875,0,0,0,.169-0.515,0.825,0.825,0,0,0-.04-0.294c-0.1-.513-0.2-1.023-0.287-1.537-0.2-1.239-.382-2.479-0.579-3.718-0.07-.44-0.146-0.881-0.246-1.316C515.728,342.19,515.76,342.125,516.17,342.126Zm-6.5-11.511a3.04,3.04,0,1,1,3.015-3.026A3.008,3.008,0,0,1,509.67,330.615Z" transform="translate(-459 -313)"/>
  <path class="cls-2" d="M464.3,355.169c-0.177-.016-0.331-0.041-0.485-0.041-1.463,0-2.926-.007-4.389.009a0.347,0.347,0,0,1-.419-0.43q0.01-14.077,0-28.154c0-.408.2-0.395,0.484-0.395q19.842,0,39.684,0c0.332,0,.664.006,1,0a0.258,0.258,0,0,1,.308.31c0,0.1,0,.2,0,0.3q0,13.928,0,27.856c0,0.5,0,.5-0.482.506q-9.221,0-18.441,0c-0.785,0-1.57-.062-2.354-0.06-1.179,0-2.357.035-3.536,0.063a0.8,0.8,0,0,0-.385.094c-0.919.567-1.841,1.131-2.743,1.725-1.52,1-3.03,2.024-4.537,3.047-0.325.22-.608,0.5-0.935,0.718-1.056.7-2.123,1.376-3.187,2.06a2.61,2.61,0,0,1-.261.139,0.291,0.291,0,0,1-.477-0.246,1.774,1.774,0,0,1,0-.554c0.21-1.094.458-2.181,0.645-3.278,0.165-.961.266-1.933,0.4-2.9C464.214,355.694,464.254,355.453,464.3,355.169Zm26.049-11.514a2.973,2.973,0,0,0,3.057-2.948,3.015,3.015,0,0,0-2.85-3.084A3.018,3.018,0,1,0,490.346,343.655Zm-19.934,0a3.016,3.016,0,1,0-3.031-2.9A2.985,2.985,0,0,0,470.412,343.657Zm12.971-2.989a3,3,0,0,0-3.108-3.046,3.019,3.019,0,0,0,.1,6.035A2.974,2.974,0,0,0,483.383,340.668Z" transform="translate(-459 -313)"/>
</svg>
