<svg xmlns="http://www.w3.org/2000/svg" width="50" height="47" viewBox="0 0 50 47">
  <defs>
    <style>
      .cls-1 {
        fill: #22315e;
        fill-rule: evenodd;
      }
    </style>
  </defs>
  <path id="help03.svg" class="cls-1" d="M797.989,340.537a19.554,19.554,0,0,1-1.146,6.877,21.81,21.81,0,0,1-2.114,4.458,23.891,23.891,0,0,1-8.952,8.47,29.426,29.426,0,0,1-4.308,1.911,24.15,24.15,0,0,1-5.133,1.145,27.517,27.517,0,0,1-5.913.082,34.876,34.876,0,0,1-3.931-.7,19.508,19.508,0,0,1-5.323-1.969,2,2,0,0,0-1.909.095c-1.507.58-3,1.19-4.51,1.773-1.07.415-2.143,0.826-3.228,1.2a1.82,1.82,0,0,1-2.5-1.843,7.584,7.584,0,0,1,.754-2.254c0.585-1.5,1.195-2.986,1.8-4.477,0.181-.448.363-0.9,0.557-1.338a0.827,0.827,0,0,0-.073-0.916,20.977,20.977,0,0,1-2.5-4.556,23.106,23.106,0,0,1-1.352-5.07,22.375,22.375,0,0,1-.139-4.959,21.41,21.41,0,0,1,.543-3.239,23.817,23.817,0,0,1,.826-2.734,20.919,20.919,0,0,1,2.829-5.247,24.6,24.6,0,0,1,8.848-7.467,25,25,0,0,1,4.756-1.816,26.37,26.37,0,0,1,7.491-.97,27.382,27.382,0,0,1,5.735.713,25.511,25.511,0,0,1,6.61,2.516,24.252,24.252,0,0,1,7.452,6.274,21.955,21.955,0,0,1,3.047,5.067,33.211,33.211,0,0,1,1.107,3.32A18.4,18.4,0,0,1,797.989,340.537Zm-24.966-5.928H785.99c0.536,0,.572-0.036.573-0.59q0-1.18,0-2.361c0-.741-0.009-0.747-0.729-0.746q-7.4,0-14.8.006-5.5,0-11,0c-0.51,0-.591.081-0.591,0.6,0,0.859.01,1.717,0,2.575a0.449,0.449,0,0,0,.538.529Q766.5,334.6,773.023,334.609Zm0,11.429v0q-6.546,0-13.091-.007a0.417,0.417,0,0,0-.508.521c0.028,0.828.01,1.659,0.011,2.488,0,0.6.034,0.631,0.623,0.632q13.007,0,26.012.01a0.408,0.408,0,0,0,.493-0.5c-0.011-.886-0.017-1.773,0-2.659a0.407,0.407,0,0,0-.5-0.5Q779.55,346.046,773.025,346.038Zm-6.359-3.891h6.7c0.55,0,.568-0.018.567-0.582,0-.8,0-1.6,0-2.4,0-.644.007-0.649-0.62-0.649-4.464,0-8.928.008-13.392,0a0.406,0.406,0,0,0-.486.5c0.015,0.843,0,1.687,0,2.531,0,0.537.05,0.6,0.578,0.6Q763.339,342.151,766.666,342.147Zm16.249-3.632v0c-1.064,0-2.129.01-3.193,0a0.384,0.384,0,0,0-.462.477c0.02,0.9.012,1.8,0,2.7a0.391,0.391,0,0,0,.473.474q3.173-.019,6.344,0a0.4,0.4,0,0,0,.487-0.465c-0.013-.913-0.016-1.827,0-2.741a0.366,0.366,0,0,0-.457-0.435C785.044,338.523,783.98,338.515,782.915,338.515Z" transform="translate(-748 -317)"/>
</svg>
