<svg id="help06.svg" xmlns="http://www.w3.org/2000/svg" width="57" height="49" viewBox="0 0 57 49">
  <defs>
    <style>
      .cls-1 {
        fill: #ff4f2f;
      }

      .cls-1, .cls-2 {
        fill-rule: evenodd;
      }

      .cls-2 {
        fill: #22315e;
      }
    </style>
  </defs>
  <path class="cls-1" d="M794.1,566.555c0,1.067,0,2.167,0,3.268,0,0.673-.185.756-0.844,0.78a20.691,20.691,0,0,0-2.065.315c-1.085.151-2.17,0.325-3.261,0.41q-3.045.238-6.1,0.379c-2.824.127-5.65,0.238-8.477,0.295-1.187.025-2.379-.094-3.567-0.167-2.915-.18-5.833-0.331-8.743-0.572-1.9-.157-3.8-0.452-5.7-0.686a0.472,0.472,0,0,1-.508-0.5,47.415,47.415,0,0,1,.255-5.053,8.079,8.079,0,0,1,3.385-5.1,16.791,16.791,0,0,1,5.586-2.468,9.46,9.46,0,0,1,1.386-.4,1.215,1.215,0,0,1,.828.2c1.55,1.187,3.076,2.406,4.607,3.619,1.041,0.825,2.084,1.647,3.11,2.49a0.588,0.588,0,0,0,.886.012c2.563-2.056,5.15-4.083,7.713-6.137a1.7,1.7,0,0,1,1.748-.021,27.866,27.866,0,0,1,3.873,1.494,10.541,10.541,0,0,1,4.679,3.915A9.787,9.787,0,0,1,794.1,566.555Zm-29.352-24.291a8.648,8.648,0,0,1,1.161-5.3A6.507,6.507,0,0,1,769.725,534a16.884,16.884,0,0,1,8.774-.2,6.806,6.806,0,0,1,5.294,5.025,13.76,13.76,0,0,1,.4,5.229,28.9,28.9,0,0,1-1.221,4.9,7.973,7.973,0,0,1-2,3.433,8.957,8.957,0,0,1-3.992,2.448,8.717,8.717,0,0,1-9.449-2.883,13.268,13.268,0,0,1-2.373-5.266A13.1,13.1,0,0,1,764.746,542.264Z" transform="translate(-746 -523)"/>
  <path class="cls-2" d="M787.259,523a13.306,13.306,0,0,1,4.407.829,5.277,5.277,0,0,1,2.948,3.3,10.216,10.216,0,0,1,.34,4.9,12.877,12.877,0,0,1-1.455,4.765,6.67,6.67,0,0,1-4.7,3.519c-0.612.106-.634,0.083-0.689-0.522a12.546,12.546,0,0,0-2.166-6.339A10.427,10.427,0,0,0,780,529.325a0.51,0.51,0,0,1-.447-0.611,5.633,5.633,0,0,1,4.656-5.3C785.223,523.245,786.243,523.136,787.259,523ZM753.8,530.285a7.823,7.823,0,0,1,.765-3.942,5.519,5.519,0,0,1,3.957-2.943,15.291,15.291,0,0,1,5.28-.167c2.726,0.36,4.618,1.666,5.325,4.551,0.33,1.344.327,1.32-.979,1.765a10.476,10.476,0,0,0-6.321,5.841,18.748,18.748,0,0,0-1.123,4.32c-0.116.588-.251,0.7-0.844,0.572a6.466,6.466,0,0,1-4-2.715A12.785,12.785,0,0,1,753.8,530.285Zm-7.766,20a6.378,6.378,0,0,1,.829-3.865,7.563,7.563,0,0,1,2.08-2.284,13.6,13.6,0,0,1,5.295-2.207,1.183,1.183,0,0,1,1.05.267c1.644,1.308,3.31,2.588,4.952,3.9a4.181,4.181,0,0,1,1.448,2.043,32.441,32.441,0,0,0,1.738,3.887c0.159,0.331.071,0.443-.224,0.549-0.979.351-1.937,0.774-2.939,1.045a6.367,6.367,0,0,1-1.875.11c-1.859-.072-3.718-0.163-5.573-0.29-1.171-.08-2.337-0.224-3.5-0.364-0.914-.11-1.819-0.283-2.734-0.377a0.507,0.507,0,0,1-.55-0.608C746.041,551.559,746.029,551.025,746.029,550.288Zm56.837,0.358c0,0.517-.006,1.033,0,1.549a0.425,0.425,0,0,1-.443.483c-1.253.16-2.5,0.37-3.756,0.5-1.128.117-2.265,0.155-3.4,0.228-1.886.121-3.771,0.268-5.659,0.343a4.3,4.3,0,0,1-1.387-.316c-0.821-.261-1.622-0.59-2.45-0.827-0.447-.128-0.529-0.277-0.285-0.662a15.935,15.935,0,0,0,1.9-4.459,1.178,1.178,0,0,1,.376-0.56c2-1.634,4-3.267,6.032-4.856a1.4,1.4,0,0,1,1-.085,12.247,12.247,0,0,1,5.3,2.311,6.774,6.774,0,0,1,2.464,3.848c0.181,0.82.3,1.654,0.441,2.481Z" transform="translate(-746 -523)"/>
</svg>
