<svg xmlns="http://www.w3.org/2000/svg" width="14" height="14" viewBox="0 0 14 14">
  <defs>
    <style>
      .cls-1 {
        fill: #222c4c;
        fill-rule: evenodd;
      }
    </style>
  </defs>
  <path id="insta.svg" class="cls-1" d="M827.987,4745h-5.293a1.614,1.614,0,0,1-1.694-1.69q0-5.31,0-10.63a1.614,1.614,0,0,1,1.678-1.68H833.33a1.61,1.61,0,0,1,1.669,1.67q0,5.325,0,10.67a1.6,1.6,0,0,1-1.653,1.66h-5.359Zm-5.371-8.06v5.78a0.561,0.561,0,0,0,.66.66h9.445a0.558,0.558,0,0,0,.663-0.66v-5.78h-1.2a4.25,4.25,0,0,1-.8,3.72,4.136,4.136,0,0,1-3.441,1.64,4.056,4.056,0,0,1-3.073-1.35,4.253,4.253,0,0,1-1.051-4.01h-1.2Zm2.7,1.07a2.693,2.693,0,1,0,2.692-2.7A2.7,2.7,0,0,0,825.311,4738.01Zm5.386-4.05c0,0.26,0,.51,0,0.77a0.534,0.534,0,0,0,.567.58q0.775,0.015,1.552,0a0.532,0.532,0,0,0,.567-0.58q0-.765,0-1.53a0.53,0.53,0,0,0-.567-0.58q-0.776-.015-1.552,0a0.522,0.522,0,0,0-.566.55C830.692,4733.44,830.7,4733.7,830.7,4733.96Z" transform="translate(-821 -4731)"/>
</svg>
