<svg id="iosm.svg" xmlns="http://www.w3.org/2000/svg" width="42.594" height="42.66" viewBox="0 0 42.594 42.66">
  <defs>
    <style>
      .cls-1 {
        fill: #13d615;
      }

      .cls-2 {
        fill: #fff;
        fill-rule: evenodd;
      }
    </style>
  </defs>
  <circle id="Ellipse_9_copy_15" data-name="Ellipse 9 copy 15" class="cls-1" cx="21.297" cy="21.33" r="21.297"/>
  <path class="cls-2" d="M233,1717.65c0.269-.28.492-0.5,0.695-0.74,0.287-.34.571-0.67,0.833-1.03,0.486-.65.411-1.01-0.3-1.45-0.543-.34-1.127-0.62-1.634-1a9.125,9.125,0,0,1-3.456-5.49,8,8,0,0,1,.36-5.01,8.344,8.344,0,0,1,1.852-2.51,13.623,13.623,0,0,1,6.571-3.73,14.022,14.022,0,0,1,4.833-.27,13.74,13.74,0,0,1,5.176,1.56,11.326,11.326,0,0,1,5.134,5.22,6.813,6.813,0,0,1,.025,5.75,12.1,12.1,0,0,1-4.493,5.46,11.28,11.28,0,0,1-3.212,1.29,12.994,12.994,0,0,1-4.108.56,25.663,25.663,0,0,1-2.624-.23,2.54,2.54,0,0,0-1.842.37,7.682,7.682,0,0,1-3.282,1.22C233.383,1717.64,233.23,1717.64,233,1717.65Z" transform="translate(-220.406 -1685.34)"/>
</svg>
