<svg xmlns="http://www.w3.org/2000/svg" width="10" height="10" viewBox="0 0 10 10">
  <defs>
    <style>
      .cls-1 {
        fill: #b8bcc6;
        fill-rule: evenodd;
      }
    </style>
  </defs>
  <path id="kont_01.svg" class="cls-1" d="M216,4700.58a2.365,2.365,0,0,1,1.309-2.35,2.954,2.954,0,0,1,.929-0.23,0.537,0.537,0,0,1,.418.24c0.453,0.77.877,1.57,1.312,2.36a0.443,0.443,0,0,1-.085.58c-0.313.31-.619,0.63-0.936,0.94a0.45,0.45,0,0,0-.073.64,7.724,7.724,0,0,0,2.315,2.33c0.355,0.23.456,0.21,0.764-.1,0.288-.28.579-0.56,0.862-0.85a0.45,0.45,0,0,1,.6-0.09c0.759,0.41,1.518.83,2.282,1.23a0.586,0.586,0,0,1,.313.67,2.259,2.259,0,0,1-1.359,1.78,2.11,2.11,0,0,1-1.517.21,9.329,9.329,0,0,1-1.057-.18,9.637,9.637,0,0,1-1.121-.49,6.525,6.525,0,0,1-.643-0.3,10.227,10.227,0,0,1-3.28-3.29A6.4,6.4,0,0,1,216,4700.58Z" transform="translate(-216 -4698)"/>
</svg>
