<svg xmlns="http://www.w3.org/2000/svg" width="11" height="8" viewBox="0 0 11 8">
  <defs>
    <style>
      .cls-1 {
        fill: #b8bcc6;
        fill-rule: evenodd;
      }
    </style>
  </defs>
  <path id="kont_02.svg" class="cls-1" d="M226.425,4722.25c-0.256.28-.489,0.56-0.744,0.82q-1.94,1.935-3.888,3.86c-0.282.28-.2,0.31-0.511,0l-4.286-4.2c-0.142-.14-0.277-0.29-0.43-0.45a1.155,1.155,0,0,1,.6-0.27,2.069,2.069,0,0,1,.249,0c2.724,0,5.448-.01,8.173,0A1.367,1.367,0,0,1,226.425,4722.25Zm-0.233,7.64c-0.113.03-.226,0.07-0.343,0.09a2.7,2.7,0,0,1-.4.02h-7.905a5.874,5.874,0,0,1-.589-0.07,0.525,0.525,0,0,1-.119-0.05c0.963-1.02,1.925-2.03,2.9-3.06,0.332,0.32.649,0.64,0.966,0.95,0.148,0.14.294,0.29,0.442,0.44a0.509,0.509,0,0,0,.807-0.02c0.419-.42.842-0.84,1.264-1.26,0.022-.02.049-0.04,0.082-0.07C224.258,4727.86,225.214,4728.87,226.192,4729.89Zm-10.169-6.74q1.527,1.5,2.948,2.91c-0.96,1.01-1.91,2-2.894,3.04a2.914,2.914,0,0,1-.075-0.43q-0.006-2.655,0-5.31C216,4723.31,216.01,4723.26,216.023,4723.15Zm10.858,5.96c-1-.95-1.912-1.96-2.871-2.97,0.986-.99,1.956-1.96,2.931-2.93A51.166,51.166,0,0,1,226.881,4729.11Z" transform="translate(-216 -4722)"/>
</svg>
