<svg xmlns="http://www.w3.org/2000/svg" width="9" height="11.03" viewBox="0 0 9 11.03">
  <defs>
    <style>
      .cls-1 {
        fill: #b8bcc6;
        fill-rule: evenodd;
      }
    </style>
  </defs>
  <path id="kont_03.svg" class="cls-1" d="M226,4747.38a5.911,5.911,0,0,1-.943,2.83,14.286,14.286,0,0,1-2.849,3.41,0.835,0.835,0,0,1-1.324.1,12.373,12.373,0,0,1-3.548-4.77,4.436,4.436,0,0,1-.323-1.99,4.071,4.071,0,0,1,2.273-3.42,4.722,4.722,0,0,1,5.892,1.25A4.084,4.084,0,0,1,226,4747.38Zm-4.2-2.24a2.162,2.162,0,0,0-2.314,1.29,1.6,1.6,0,0,0,.319,1.85,2.538,2.538,0,0,0,2.308.59,2.191,2.191,0,0,0,1.291-.9,1.573,1.573,0,0,0,.1-1.59A1.985,1.985,0,0,0,221.8,4745.14Z" transform="translate(-217 -4742.97)"/>
</svg>
