<?xml version="1.0" encoding="utf-8"?>
<!-- Generator: Adobe Illustrator 16.0.0, SVG Export Plug-In . SVG Version: 6.00 Build 0)  -->
<!DOCTYPE svg PUBLIC "-//W3C//DTD SVG 1.1//EN" "http://www.w3.org/Graphics/SVG/1.1/DTD/svg11.dtd">
<svg version="1.1" id="Слой_1" xmlns="http://www.w3.org/2000/svg" xmlns:xlink="http://www.w3.org/1999/xlink" x="0px" y="0px"
	 width="13px" height="25px" viewBox="0 0 13 25" enable-background="new 0 0 13 25" xml:space="preserve">
<path id="light.svg" fill="#FFFFFF" d="M2.517,24.973c0.051-0.246,0.1-0.492,0.152-0.738c0.161-0.738,0.323-1.477,0.486-2.213
	c0.18-0.813,0.363-1.623,0.541-2.436c0.245-1.117,0.485-2.234,0.729-3.352c0.141-0.645,0.287-1.289,0.429-1.934
	c0.044-0.199,0.023-0.24-0.172-0.244c-0.385-0.009-0.77-0.008-1.154,0c-0.988,0-1.977,0.008-2.965,0.012c-0.13,0-0.26,0-0.39-0.006
	C0.114,14.049,0.056,14.03,0,14.006c0.016-0.064,0.04-0.127,0.072-0.186c0.254-0.344,0.515-0.682,0.771-1.025L3.99,8.579
	c0.659-0.883,1.315-1.768,1.977-2.647c0.245-0.326,0.512-0.633,0.756-0.961c0.365-0.491,0.712-1,1.079-1.487
	c0.274-0.366,0.575-0.709,0.847-1.077c0.552-0.747,1.09-1.5,1.637-2.256c0.043-0.053,0.09-0.104,0.141-0.151l0.049,0.024
	c-0.031,0.169-0.059,0.339-0.095,0.507c-0.142,0.658-0.28,1.316-0.431,1.972C9.665,3.746,9.368,4.985,9.09,6.229
	C8.93,6.947,8.802,7.673,8.648,8.392c-0.154,0.719-0.323,1.451-0.484,2.176c-0.008,0.037-0.014,0.075-0.02,0.113
	c-0.039,0.227-0.02,0.256,0.199,0.256h4.174c0.1,0,0.199-0.006,0.299,0c0.063,0.011,0.122,0.027,0.181,0.049
	c-0.019,0.07-0.045,0.137-0.08,0.2c-1.147,1.541-2.296,3.081-3.446,4.621c-1.433,1.916-2.866,3.832-4.301,5.748
	c-0.82,1.098-1.641,2.193-2.462,3.289C2.659,24.9,2.606,24.952,2.55,25L2.517,24.973z"/>
</svg>
