<svg xmlns="http://www.w3.org/2000/svg" width="13" height="25" viewBox="0 0 13 25">
  <defs>
    <style>
      .cls-1 {
        fill: #ff4f2f;
        fill-rule: evenodd;
      }
    </style>
  </defs>
  <path id="light.svg" class="cls-1" d="M64.517,738.972c0.051-.246.1-0.492,0.152-0.738q0.241-1.107.486-2.213c0.18-.812.363-1.623,0.541-2.435,0.245-1.117.485-2.234,0.729-3.351,0.141-.645.287-1.289,0.429-1.934,0.044-.2.023-0.24-0.172-0.245-0.385-.008-0.77-0.007-1.154,0-0.988,0-1.977.009-2.965,0.013-0.13,0-.26,0-0.39-0.007A0.933,0.933,0,0,1,62,728.006a0.758,0.758,0,0,1,.072-0.185c0.254-.345.515-0.683,0.771-1.026l3.147-4.216c0.659-.883,1.315-1.768,1.977-2.647,0.245-.326.512-0.633,0.756-0.961,0.365-.491.713-1,1.079-1.487,0.274-.366.575-0.709,0.847-1.077,0.551-.747,1.09-1.5,1.636-2.256A1.541,1.541,0,0,1,72.426,714l0.048,0.024c-0.031.169-.058,0.339-0.094,0.507-0.142.658-.281,1.316-0.431,1.972-0.284,1.243-.581,2.482-0.859,3.726-0.16.718-.288,1.444-0.442,2.163s-0.323,1.451-.484,2.176c-0.008.037-.014,0.075-0.02,0.113-0.038.227-.019,0.256,0.2,0.256h4.173c0.1,0,.2-0.006.3,0a0.987,0.987,0,0,1,.18.049,0.861,0.861,0,0,1-.08.2q-1.721,2.311-3.447,4.62-2.148,2.875-4.3,5.749-1.23,1.646-2.462,3.289a1.489,1.489,0,0,1-.158.156Z" transform="translate(-62 -714)"/>
</svg>
