<svg xmlns="http://www.w3.org/2000/svg" width="20.844" height="19" viewBox="0 0 20.844 19">
  <defs>
    <style>
      .cls-1 {
        fill: #eb1d1d;
        fill-rule: evenodd;
      }
    </style>
  </defs>
  <path id="like01.svg" class="cls-1" d="M560.433,1755a1.247,1.247,0,0,1-.833-0.35l-1.459-1.29c-0.455-.41-0.91-0.81-1.366-1.21-0.514-.46-1.029-0.91-1.543-1.37-0.448-.39-0.9-0.79-1.343-1.19a15.738,15.738,0,0,1-1.589-1.57,10.684,10.684,0,0,1-1.579-2.4,7.784,7.784,0,0,1-.641-2.18,7.481,7.481,0,0,1-.067-1.53,6.546,6.546,0,0,1,1.267-3.49,6.2,6.2,0,0,1,1.3-1.34,5.389,5.389,0,0,1,2.164-.94,6.265,6.265,0,0,1,1.436-.14,5.413,5.413,0,0,1,4.212,1.97l0.044,0.06a5.254,5.254,0,0,1,.875-0.87,5.114,5.114,0,0,1,2.265-1.03,6.5,6.5,0,0,1,1.7-.12,5.67,5.67,0,0,1,3.233,1.28,5.737,5.737,0,0,1,1.493,1.9,8.956,8.956,0,0,1,.48,1.2c0.011,0.04.03,0.08,0.049,0.13a2.382,2.382,0,0,1,.141.41,5.724,5.724,0,0,1,.128.77,7.923,7.923,0,0,1,.038.83,7.5,7.5,0,0,1-.831,3.32,10.519,10.519,0,0,1-2.112,2.85c-0.4.39-.815,0.76-1.217,1.12l-0.139.12c-0.841.75-1.7,1.52-2.525,2.25-0.462.42-.924,0.83-1.385,1.24-0.29.26-.585,0.52-0.87,0.78-0.163.14-.326,0.29-0.489,0.44a1.288,1.288,0,0,1-.832.35h0Zm-4.336-17.23a5.5,5.5,0,0,0-1,.1,3.747,3.747,0,0,0-1.466.64,4.29,4.29,0,0,0-.917.96,4.721,4.721,0,0,0-.928,2.56,5.808,5.808,0,0,0,.053,1.17,5.93,5.93,0,0,0,.5,1.67,8.688,8.688,0,0,0,1.319,2,14.968,14.968,0,0,0,1.414,1.4c0.447,0.39.9,0.79,1.342,1.18,0.515,0.46,1.03.91,1.545,1.37,0.455,0.4.911,0.81,1.366,1.21,0.369,0.33.739,0.65,1.108,0.98l0.14-.12c0.285-.26.581-0.52,0.873-0.78,0.461-.42.923-0.83,1.385-1.24,0.828-.74,1.683-1.5,2.523-2.25l0.14-.12c0.388-.35.79-0.71,1.163-1.07a9.058,9.058,0,0,0,1.763-2.37,5.713,5.713,0,0,0,.642-2.55,6.059,6.059,0,0,0-.03-0.64,3.754,3.754,0,0,0-.088-0.53,1.226,1.226,0,0,0-.053-0.14c-0.03-.07-0.063-0.15-0.1-0.25a6.984,6.984,0,0,0-.38-0.96,3.894,3.894,0,0,0-3.258-2.21,4.663,4.663,0,0,0-1.234.09,3.332,3.332,0,0,0-1.509.68,4.059,4.059,0,0,0-1.038,1.26c-0.03.05-.061,0.1-0.094,0.16l-0.054.1a0.887,0.887,0,0,1-1.513.07,0.785,0.785,0,0,1-.054-0.08,2.425,2.425,0,0,1-.163-0.25,4.445,4.445,0,0,0-.459-0.68,3.634,3.634,0,0,0-2.881-1.35A0.125,0.125,0,0,0,556.1,1737.77Zm4.336,17.23a1.247,1.247,0,0,1-.833-0.35l-1.459-1.29c-0.455-.41-0.91-0.81-1.366-1.21-0.514-.46-1.029-0.91-1.543-1.37-0.448-.39-0.9-0.79-1.343-1.19a15.738,15.738,0,0,1-1.589-1.57,10.684,10.684,0,0,1-1.579-2.4,7.784,7.784,0,0,1-.641-2.18,7.481,7.481,0,0,1-.067-1.53,6.546,6.546,0,0,1,1.267-3.49,6.2,6.2,0,0,1,1.3-1.34,5.389,5.389,0,0,1,2.164-.94,6.265,6.265,0,0,1,1.436-.14,5.413,5.413,0,0,1,4.212,1.97l0.044,0.06a5.254,5.254,0,0,1,.875-0.87,5.114,5.114,0,0,1,2.265-1.03,6.5,6.5,0,0,1,1.7-.12,5.67,5.67,0,0,1,3.233,1.28,5.737,5.737,0,0,1,1.493,1.9,8.956,8.956,0,0,1,.48,1.2c0.011,0.04.03,0.08,0.049,0.13a2.382,2.382,0,0,1,.141.41,5.724,5.724,0,0,1,.128.77,7.923,7.923,0,0,1,.038.83,7.5,7.5,0,0,1-.831,3.32,10.519,10.519,0,0,1-2.112,2.85c-0.4.39-.815,0.76-1.217,1.12l-0.139.12c-0.841.75-1.7,1.52-2.525,2.25-0.462.42-.924,0.83-1.385,1.24-0.29.26-.585,0.52-0.87,0.78-0.163.14-.326,0.29-0.489,0.44a1.288,1.288,0,0,1-.832.35h0Zm-4.336-17.23a5.5,5.5,0,0,0-1,.1,3.747,3.747,0,0,0-1.466.64,4.29,4.29,0,0,0-.917.96,4.721,4.721,0,0,0-.928,2.56,5.808,5.808,0,0,0,.053,1.17,5.93,5.93,0,0,0,.5,1.67,8.688,8.688,0,0,0,1.319,2,14.968,14.968,0,0,0,1.414,1.4c0.447,0.39.9,0.79,1.342,1.18,0.515,0.46,1.03.91,1.545,1.37,0.455,0.4.911,0.81,1.366,1.21,0.369,0.33.739,0.65,1.108,0.98l0.14-.12c0.285-.26.581-0.52,0.873-0.78,0.461-.42.923-0.83,1.385-1.24,0.828-.74,1.683-1.5,2.523-2.25l0.14-.12c0.388-.35.79-0.71,1.163-1.07a9.058,9.058,0,0,0,1.763-2.37,5.713,5.713,0,0,0,.642-2.55,6.059,6.059,0,0,0-.03-0.64,3.754,3.754,0,0,0-.088-0.53,1.226,1.226,0,0,0-.053-0.14c-0.03-.07-0.063-0.15-0.1-0.25a6.984,6.984,0,0,0-.38-0.96,3.894,3.894,0,0,0-3.258-2.21,4.663,4.663,0,0,0-1.234.09,3.332,3.332,0,0,0-1.509.68,4.059,4.059,0,0,0-1.038,1.26c-0.03.05-.061,0.1-0.094,0.16l-0.054.1a0.887,0.887,0,0,1-1.513.07,0.785,0.785,0,0,1-.054-0.08,2.425,2.425,0,0,1-.163-0.25,4.445,4.445,0,0,0-.459-0.68,3.634,3.634,0,0,0-2.881-1.35A0.125,0.125,0,0,0,556.1,1737.77Z" transform="translate(-550 -1736)"/>
</svg>
