<svg xmlns="http://www.w3.org/2000/svg" width="12" height="12" viewBox="0 0 12 12">
  <defs>
    <style>
      .cls-1 {
        fill: #ff4f2f;
        fill-rule: evenodd;
      }
    </style>
  </defs>
  <path id="link.svg" class="cls-1" d="M617.006,385.267c0-1.217.009-2.433,0-3.649a1.912,1.912,0,0,1,.472-1.343,1.849,1.849,0,0,1,1.328-.63c1.254-.032,2.509-0.013,3.763-0.01a0.707,0.707,0,0,1,.669.324,0.642,0.642,0,0,1-.463.986,1.8,1.8,0,0,1-.282.035c-0.8.021-1.59,0.045-2.385,0.052-0.327,0-.655-0.045-0.982-0.047a0.644,0.644,0,0,0-.768.769c0,1.772,0,3.544,0,5.316,0,0.631.032,1.261,0.049,1.891a0.605,0.605,0,0,0,.679.674c0.874,0,1.748,0,2.622,0,1.436,0,2.873-.015,4.31,0,0.892,0.013.965-.356,0.98-1.1,0.024-1.11.008-2.22,0.027-3.331a0.638,0.638,0,0,1,.65-0.611,0.667,0.667,0,0,1,.654.65c0.006,1.373.031,2.746-.012,4.117a1.625,1.625,0,0,1-1,1.417,2.162,2.162,0,0,1-.892.206c-1.333.019-2.665,0-4,0-1.114,0-2.229-.037-3.341.011a1.95,1.95,0,0,1-2.08-2.007c0.024-.625,0-1.251,0-1.876v-1.85Zm10.5-3.79c-0.31.3-.626,0.59-0.929,0.894-0.654.655-1.3,1.32-1.953,1.974-0.459.458-.928,0.907-1.395,1.357a0.664,0.664,0,0,1-1.183-.208,0.531,0.531,0,0,1,.143-0.617q1.2-1.258,2.413-2.494c0.612-.623,1.235-1.235,1.852-1.853a0.61,0.61,0,0,0,.066-0.117,1.036,1.036,0,0,0-.2-0.042c-0.5,0-1,0-1.5.019a0.771,0.771,0,0,1-.912-0.809,0.533,0.533,0,0,1,.429-0.541,1.965,1.965,0,0,1,.412-0.041q1.725,0,3.451,0a0.706,0.706,0,0,1,.806.814c0,1.163,0,2.327,0,3.49a0.7,0.7,0,0,1-.763.8,0.664,0.664,0,0,1-.641-0.709c-0.007-.538,0-1.076,0-1.615,0-.092-0.009-0.184-0.014-0.277Z" transform="translate(-617 -379)"/>
</svg>
