<svg xmlns="http://www.w3.org/2000/svg" width="14.031" height="19" viewBox="0 0 14.031 19">
  <defs>
    <style>
      .cls-1 {
        fill: #ff4f2f;
        fill-rule: evenodd;
      }
    </style>
  </defs>
  <path id="lock.svg" class="cls-1" d="M969.987,269c-1.868,0-3.736-.008-5.605,0A1.365,1.365,0,0,1,963,267.583c0.006-2.451,0-4.9,0-7.353a1.377,1.377,0,0,1,.594-1.2,1.228,1.228,0,0,1,.714-0.227c2.862,0,5.724,0,8.586,0,0.8,0,1.6.024,2.4,0.033,0.16,0,.321-0.032.48-0.025a0.832,0.832,0,0,1,.639.268,2.207,2.207,0,0,1,.375.516,2.053,2.053,0,0,1,.146.708c0.029,0.893.043,1.786,0.047,2.68,0,0.5-.039,1-0.038,1.5,0,0.733.027,1.467,0.041,2.2a4.163,4.163,0,0,1,0,.724,2.2,2.2,0,0,1-.259,1.033,1.284,1.284,0,0,1-1.071.548h-5.667Zm-5.449-12.6c0.033-.563.045-1.128,0.1-1.688a4.7,4.7,0,0,1,.43-1.459,5.41,5.41,0,0,1,3.021-2.892,5.117,5.117,0,0,1,2.884-.259,5.313,5.313,0,0,1,2.936,1.633,5.593,5.593,0,0,1,1,1.523,5.707,5.707,0,0,1,.494,2.256c0.016,0.687,0,1.374,0,2.061,0,0.118-.038.153-0.14,0.153-0.7,0-1.4,0-2.1,0-0.111,0-.124-0.06-0.123-0.153,0-.581,0-1.162,0-1.742a3.577,3.577,0,0,0-.334-1.655,3.09,3.09,0,0,0-.847-1.065,3,3,0,0,0-3.406-.253,3.119,3.119,0,0,0-1.535,2.694c-0.011.665-.007,1.331,0,2a0.141,0.141,0,0,1-.168.176q-1.017-.006-2.034,0a0.141,0.141,0,0,1-.171-0.174c0.007-.384,0-0.767,0-1.151Z" transform="translate(-963 -250)"/>
</svg>
