<svg xmlns="http://www.w3.org/2000/svg" width="12" height="12" viewBox="0 0 12 12">
  <defs>
    <style>
      .cls-1 {
        fill: #fdfdfd;
        fill-rule: evenodd;
      }
    </style>
  </defs>
  <path id="login.svg" class="cls-1" d="M1205.96,39l-5.06-.211a2.546,2.546,0,0,1-.26-0.027,0.6,0.6,0,0,1-.58-0.9,4.167,4.167,0,0,1,2.25-2.623c0.44-.219.91-0.38,1.35-0.6a0.833,0.833,0,0,0,.42-1.375,12.924,12.924,0,0,1-.7-1.258,4.02,4.02,0,0,1-.36-2.828,2.847,2.847,0,0,1,1.56-1.833,3.088,3.088,0,0,1,3.44.4,2.908,2.908,0,0,1,.95,3.258,8.418,8.418,0,0,1-.88,1.948c-0.6,1.027-.5,1.372.59,1.867a11.808,11.808,0,0,1,1.88,1,3.558,3.558,0,0,1,1.35,1.946c0.22,0.692.05,0.974-.7,1.015-1.36.074-2.73,0.12-4.1,0.17-0.38.014-.76,0-1.15,0V39Z" transform="translate(-1200 -27)"/>
</svg>
