<svg id="logo.svg" xmlns="http://www.w3.org/2000/svg" width="235.906" height="52" viewBox="0 0 235.906 52">
  <defs>
    <style>
      .cls-1 {
        fill: #22315e;
      }

      .cls-1, .cls-2, .cls-3 {
        fill-rule: evenodd;
      }

      .cls-2 {
        fill: #89c9eb;
      }

      .cls-3 {
        fill: #e8242e;
      }
    </style>
  </defs>
  <path class="cls-1" d="M670.787,597.238c-1.531-1.868-3.151-2.811-4.836-2.811-2.721,0-4.738,2.453-6.2,5.358V580.564H642v44.343h17.746V613.845c1.187,2.045,2.766,3.647,4.821,3.647a5.473,5.473,0,0,0,4.124-2.382c1.661-2.015,1.444-3.664.981-4.7-0.736-1.62-2.544-2.656-4.471-3.333,2.88-.813,5.749-2.167,6.75-4.379C672.489,601.515,672.726,599.6,670.787,597.238Zm-3.879,14.413a1.636,1.636,0,0,1-.565,1.546,2.816,2.816,0,0,1-1.775,1.264c-0.966,0-2.411-1.827-3.625-5.349C663.5,609.537,666.368,610.484,666.908,611.651Zm2.283-10.2c-0.769,1.681-4.836,2.978-8.282,3.468,1.658-5.141,3.667-7.471,5.042-7.471,0.908,0,1.849.931,2.5,1.706C669.6,600.56,669.289,601.23,669.191,601.45Zm36.867,19.7c0,1.078-1.328,1.684-2.413,2.1a24.43,24.43,0,0,1-8.215,1.391c-6.826,0-10.09-2.594-12.144-5.181-3.567-4.581-4.107-10.3-4.107-16.028,0-4.88.482-11.382,4.165-16.447,3.261-4.455,8.034-5.662,12.086-5.662,3.985,0,10.15,1.688,10.15,3.977v8.071c0,1.207-.724,1.028-1.03,1.028h-4.472c-1.2,0-1.027-.485-1.027-1.028v-5a9.81,9.81,0,0,0-3.2-.543,6.917,6.917,0,0,0-5.255,1.927c-2.54,2.594-2.838,7.593-2.838,12.294,0,6.382.6,11.446,3.018,13.979a7.323,7.323,0,0,0,5.561,2.1,18.279,18.279,0,0,0,3.2-.358V612.41c0-.3-0.184-1.025,1.027-1.025h4.472c1.207,0,1.022.723,1.022,1.025v8.737Zm30.731,1.622c0,0.421.117,0.848-.847,0.848h-7.55c-1.09,0-1.513-.968-1.756-2.236,0-.117-0.059-0.234-0.059-0.355-2.418,2.466-4.53,3.614-7.794,3.614-4.471,0-9.061-2.649-9.061-9.277,0-7.6,5.859-10.184,14.923-10.184h0.846v-1.867c0-1.626.063-4.456-3.8-4.456a18.63,18.63,0,0,0-6.106,1.2,6.892,6.892,0,0,1-1.873.6,0.649,0.649,0,0,1-.6-0.6l-1.206-3.673c-0.177-.485-0.667-1.27,1.206-1.93a28.619,28.619,0,0,1,9.911-1.626c8.641,0,9.722,5.9,9.722,9.7v10.423a14.19,14.19,0,0,0,.55,4.819l0.057,0.242h2.6a0.7,0.7,0,0,1,.847.844v3.912Zm-11.3-12.65h-0.364c-1.756,0-4.169,0-5.984,1.023a4.166,4.166,0,0,0-2.17,3.795,3.865,3.865,0,0,0,3.985,4.1c1.814,0,3.142-.966,4.533-2.29v-6.628Zm28-11.263a12.945,12.945,0,0,0-2.419-.246c-3.624,0-3.864,2.29-3.864,3.014,0,1.625,1.023,2.227,2.113,2.712s2.057,0.781,3.989,1.5a12.813,12.813,0,0,1,5.8,3.675,8.537,8.537,0,0,1,1.871,5.423,9.578,9.578,0,0,1-2.718,6.871,10.251,10.251,0,0,1-7.67,2.832c-2.719,0-10.631-1.265-10.631-3.493v-6.573a0.694,0.694,0,0,1,.842-0.84h4.111c0.967,0,.843.542,0.843,1.082v2.955a13.477,13.477,0,0,0,4.29.843c3.144,0,3.685-1.867,3.685-3.012,0-1.747-1.149-2.407-2.352-2.954-1.454-.66-3.205-1.205-4.35-1.623a12.9,12.9,0,0,1-4.776-2.895,7.6,7.6,0,0,1-1.991-5.421,9.433,9.433,0,0,1,2.836-6.928c1.87-1.868,4.413-2.951,8.457-2.951,2.117,0,7.735.782,7.735,2.768V601.8c0,0.965-.36.844-0.786,0.844h-4.166a0.7,0.7,0,0,1-.846-0.844v-2.947Zm41.523,23.913c0,0.421.117,0.848-.847,0.848h-9.906a0.7,0.7,0,0,1-.847-0.848V604.215a6.854,6.854,0,0,0-.6-3.5,3.092,3.092,0,0,0-2.844-1.566c-1.752,0-3.868,1.325-5.134,2.532v16.327h3.081c0.964,0,.846.423,0.846,0.844v3.912c0,0.421.118,0.848-.846,0.848H764.085a0.7,0.7,0,0,1-.848-0.848v-3.912a0.7,0.7,0,0,1,.848-0.844h3.083V586.022h-3.026a0.7,0.7,0,0,1-.846-0.844v-3.915a0.7,0.7,0,0,1,.846-0.844h9.852c0.965,0,.843.422,0.843,0.844v15a12.055,12.055,0,0,1,8.394-3.431c7.434,0,7.857,6.026,7.857,9.52v15.663h3.08c0.964,0,.847.423,0.847,0.844v3.912Zm12.266-27.289,0.783-.543a11.8,11.8,0,0,1,6.592-2.107c5.369,0,10.627,3.009,10.627,15.245,0,13.306-7.308,16.565-12.441,16.565a8.487,8.487,0,0,1-6.228-2.352l-0.3-.3-0.177.481c-0.964,2.529-1.45,2.286-2.414,2.048l-4.837-1.208a0.647,0.647,0,0,1-.606-0.481V622.71c0.18-1.145,1.329-.844,1.329-6.749V586.022H796.59a0.7,0.7,0,0,1-.847-0.844v-3.915a0.7,0.7,0,0,1,.847-0.844h9.844c0.972,0,.847.422,0.847,0.844V595.48Zm0,21.868a6.627,6.627,0,0,0,3.805,1.266c5.62,0,6.524-5.9,6.524-10.242,0-4.036-.419-9.516-5.493-9.516a7.782,7.782,0,0,0-4.535,1.806l-0.3.238v16.448Zm37.6,5.421c0,0.421.118,0.848-.846,0.848h-15.4a0.7,0.7,0,0,1-.847-0.848v-3.912a0.7,0.7,0,0,1,.847-0.844h3.864V599.454h-3.926a0.7,0.7,0,0,1-.843-0.844V594.7a0.7,0.7,0,0,1,.843-0.844h10.753c0.963,0,.846.418,0.846,0.844v23.315h3.868c0.964,0,.846.423,0.846,0.844v3.912Zm-8.582-32.83a4.994,4.994,0,0,1-5.013-5A4.943,4.943,0,0,1,836.3,580a4.894,4.894,0,0,1,4.957,4.94A4.945,4.945,0,0,1,836.3,589.939Z" transform="translate(-609.094 -572.906)"/>
  <path class="cls-2" d="M635.043,579.855a7.088,7.088,0,0,0-14.173,0h-3.921v25.019h22.015V579.855h-3.921Zm-7.086-5.006a5.238,5.238,0,0,1,5.155,5.006H622.8A5.24,5.24,0,0,1,627.957,574.849Z" transform="translate(-609.094 -572.906)"/>
  <path class="cls-3" d="M616.994,607.941v3.918c-0.758-1.489-1.8-2.731-3.207-2.731a3.391,3.391,0,0,0-2.569,1.527,2.793,2.793,0,0,0-.613,3.015,4.633,4.633,0,0,0,2.852,2.159c-1.759.517-3.514,1.374-4.127,2.764a3.219,3.219,0,0,0,.709,3.449,3.95,3.95,0,0,0,2.978,1.775c1.774,0,3.069-1.742,3.977-3.727v4.828h21.887V607.941H616.994Zm-4.691,4.943a1.089,1.089,0,0,1,.35-1.021,1.827,1.827,0,0,1,1.134-.823c0.617,0,1.537,1.2,2.3,3.5C614.469,614.271,612.639,613.65,612.3,612.884Zm0.714,9.022a2.452,2.452,0,0,1-1.533-1.076c-0.71-.888-0.517-1.31-0.46-1.452,0.476-1.059,2.972-1.877,5.087-2.188C615.09,620.437,613.865,621.906,613.017,621.906Z" transform="translate(-609.094 -572.906)"/>
</svg>
