<svg xmlns="http://www.w3.org/2000/svg" width="19" height="14" viewBox="0 0 19 14">
  <defs>
    <style>
      .cls-1 {
        fill: #ff4f2f;
        fill-rule: evenodd;
      }
    </style>
  </defs>
  <path id="mail.svg" class="cls-1" d="M1326.01,311.442c-0.45.493-.85,0.981-1.29,1.427q-3.345,3.391-6.71,6.763c-0.49.487-.35,0.532-0.89,0q-3.69-3.683-7.4-7.363c-0.25-.246-0.48-0.506-0.74-0.787a1.886,1.886,0,0,1,1.04-.46,2.769,2.769,0,0,1,.43-0.014q7.05,0,14.11.006A2.321,2.321,0,0,1,1326.01,311.442Zm-0.41,13.363a3.16,3.16,0,0,1-1.28.19q-6.825,0-13.66,0a6.922,6.922,0,0,1-1.01-.113,0.572,0.572,0,0,1-.21-0.091c1.66-1.778,3.33-3.553,5.01-5.357,0.58,0.57,1.12,1.117,1.67,1.664,0.26,0.255.51,0.512,0.77,0.766a0.864,0.864,0,0,0,1.39-.023c0.72-.742,1.45-1.478,2.18-2.215,0.04-.039.09-0.071,0.14-0.118C1322.26,321.264,1323.92,323.014,1325.6,324.805Zm-17.56-11.8c1.76,1.76,3.45,3.453,5.09,5.094l-5,5.316a4.934,4.934,0,0,1-.13-0.746v-9.287C1308,313.3,1308.02,313.211,1308.04,313.01Zm18.75,10.433c-1.72-1.662-3.3-3.434-4.95-5.206,1.7-1.721,3.37-3.414,5.06-5.115A88.892,88.892,0,0,1,1326.79,323.443Z" transform="translate(-1308 -311)"/>
</svg>
