<svg xmlns="http://www.w3.org/2000/svg" width="16.031" height="15" viewBox="0 0 16.031 15">
  <defs>
    <style>
      .cls-1 {
        fill: #ff4f2f;
        fill-rule: evenodd;
      }
    </style>
  </defs>
  <path id="man.svg" class="cls-1" d="M125.949,732l-6.749-.263c-0.115,0-.229-0.018-0.343-0.034-0.771-.109-1-0.422-0.779-1.128a5.346,5.346,0,0,1,3-3.279c0.588-.274,1.214-0.475,1.8-0.749a1.02,1.02,0,0,0,.565-1.719,15.558,15.558,0,0,1-.935-1.572,4.8,4.8,0,0,1-.487-3.534,3.642,3.642,0,0,1,2.09-2.291,4.334,4.334,0,0,1,4.585.493A3.522,3.522,0,0,1,129.962,722a10.448,10.448,0,0,1-1.179,2.436c-0.8,1.283-.667,1.714.789,2.334a16.359,16.359,0,0,1,2.508,1.255,4.516,4.516,0,0,1,1.8,2.432c0.288,0.864.062,1.218-.936,1.269-1.822.092-3.645,0.149-5.468,0.212-0.509.017-1.02,0-1.529,0Z" transform="translate(-117.969 -717)"/>
</svg>
