<svg id="megaphone.svg" xmlns="http://www.w3.org/2000/svg" width="70.281" height="60.16" viewBox="0 0 70.281 60.16">
  <defs>
    <style>
      .cls-1 {
        fill: #202e5c;
      }

      .cls-1, .cls-2 {
        fill-rule: evenodd;
      }

      .cls-2 {
        fill: #ff4f2f;
      }
    </style>
  </defs>
  <path class="cls-1" d="M191.567,1053.28q0,6.3,0,12.61c0,0.57-.122,1.14-0.117,1.71,0.022,2.3.086,4.6,0.105,6.9,0.006,0.83-.111,1.66-0.1,2.5,0.018,2.14.1,4.28,0.107,6.42,0,1.09-.047,2.19-0.142,3.28a2.865,2.865,0,0,1-1.994,2.42,3.257,3.257,0,0,1-3.405-1.03,3.708,3.708,0,0,1-.546-2.68,0.734,0.734,0,0,0-.65-0.87c-0.9-.2-1.81-0.38-2.7-0.64-1.349-.39-2.674-0.87-4.025-1.26-2.811-.8-5.634-1.56-8.449-2.35-2.5-.7-5-1.42-7.495-2.13-0.4-.11-0.79-0.25-1.19-0.35a0.618,0.618,0,0,1-.548-0.74,4.323,4.323,0,0,0,0-.47q0-13.155,0-26.31c0-.86,0-0.85.935-1.11,2.122-.6,4.239-1.22,6.357-1.83,2.217-.64,4.433-1.29,6.648-1.93q3.422-1.005,6.84-2c1.207-.35,2.412-0.7,3.628-1.02a0.583,0.583,0,0,0,.493-0.66,10.308,10.308,0,0,1,.158-1.55,3.037,3.037,0,0,1,3.368-2.35,3.1,3.1,0,0,1,2.725,3.04c-0.031,4.13-.01,8.27-0.01,12.4h0.014Zm-33.828,44.71c-1.879,0-3.757.01-5.636,0a1.589,1.589,0,0,1-1.783-1.37c-0.748-2.76-1.485-5.51-2.235-8.26-0.635-2.33-1.283-4.66-1.922-6.99-0.059-.22-0.079-0.45-0.144-0.66-0.194-.64-0.142-0.72.534-0.72,3-.01,6-0.03,9,0.01a8.071,8.071,0,0,1,1.9.43c0.914,0.25,1.827.51,2.724,0.81a0.859,0.859,0,0,1,.486.51c0.836,3.06,1.648,6.11,2.46,9.17q0.763,2.88,1.512,5.76a0.906,0.906,0,0,1-1,1.31C161.668,1098,159.7,1097.99,157.739,1097.99Zm-1.1-46.7c0-.69-0.056-0.74-0.742-0.74-4.24,0-8.481-.02-12.72.02a10.205,10.205,0,0,0-2.743.4,7.417,7.417,0,0,0-5.126,6.49,0.76,0.76,0,0,1-.635.8,5.05,5.05,0,0,0-3.17,2.57c-0.194.36-.344,0.75-0.5,1.13v3.07a5.228,5.228,0,0,0,3.709,3.8,0.726,0.726,0,0,1,.6.79,3.339,3.339,0,0,0,.077.83,7.611,7.611,0,0,0,7.535,6.07q6.49-.015,12.979-0.01c0.678,0,.743-0.06.743-0.74Q156.641,1063.53,156.639,1051.29Z" transform="translate(-131 -1037.84)"/>
  <path class="cls-2" d="M194.168,1071.52c0-1.06.007-2.13,0-3.19q-0.047-6.69-.1-13.39c0-.63.135-0.74,0.695-0.52a10.007,10.007,0,0,1,4.791,3.66,9.3,9.3,0,0,1,1.678,6.46,9.543,9.543,0,0,1-6.621,8.37c-0.382.15-.564,0.04-0.545-0.39,0.015-.33,0-0.66,0-1h0.1Z" transform="translate(-131 -1037.84)"/>
</svg>
