<svg xmlns="http://www.w3.org/2000/svg" width="27" height="23" viewBox="0 0 27 23">
  <defs>
    <style>
      .cls-1 {
        fill: #fff;
        fill-rule: evenodd;
      }
    </style>
  </defs>
  <path id="no_photo.svg" class="cls-1" d="M766.486,79q-5.541,0-11.082,0a2.408,2.408,0,0,1-1.7-.607,2.132,2.132,0,0,1-.682-1.344A3.361,3.361,0,0,1,753,76.611Q753,71,753,65.4c0-.382-0.007-0.766.025-1.146a4.526,4.526,0,0,1,.21-1.225c0.043-.116.065-0.241,0.111-0.356a2.436,2.436,0,0,1,1.942-1.584,13.431,13.431,0,0,1,1.359-.143c0.763-.056,1.527-0.1,2.291-0.143,0.723-.043,1.446-0.082,2.169-0.122,0.665-.038,1.331-0.06,1.994-0.116a1.331,1.331,0,0,0,1.062-.67c0.524-.875,1.033-1.759,1.549-2.638a3.7,3.7,0,0,1,.61-0.837,1.435,1.435,0,0,1,1.018-.41q2.049-.008,4.1,0a1.428,1.428,0,0,1,1.2.618c0.258,0.36.484,0.743,0.711,1.124q0.622,1.04,1.228,2.091a1.19,1.19,0,0,0,.5.466,6.335,6.335,0,0,0,1.276.425c0.671,0.184,1.345.359,2.009,0.568a2.513,2.513,0,0,1,1.062.677A2.038,2.038,0,0,1,780,63.439v7.505q0,0.877,0,1.756,0,0.658,0,1.316,0,1.289,0,2.578a2.353,2.353,0,0,1-1.969,2.373,2.657,2.657,0,0,1-.451.03Q772.032,79,766.486,79Zm10.252-9.257a7.3,7.3,0,1,0-7.3,7.4A7.342,7.342,0,0,0,776.738,69.743ZM769.571,57.8q-0.88,0-1.76,0a0.322,0.322,0,0,0-.34.328q-0.006,1.013,0,2.027a0.324,0.324,0,0,0,.289.326,1.245,1.245,0,0,0,.174.01l3.345,0a0.352,0.352,0,0,0,.4-0.4V58.173a0.334,0.334,0,0,0-.375-0.378h-1.729Zm-13.422,2.18a2.78,2.78,0,0,1,.155-1.269,1.153,1.153,0,0,1,1.1-.713c1.043,0,2.086-.005,3.129,0a1.236,1.236,0,0,1,1.138.906,1.9,1.9,0,0,1,.063.691,0.107,0.107,0,0,1-.08.061c-0.277.019-.555,0.032-0.832,0.048l-2.363.14-2.239.135h-0.075Zm19.1,9.769a5.806,5.806,0,1,1-5.653-5.889,5.49,5.49,0,0,1,3.941,1.708A5.9,5.9,0,0,1,775.247,69.744Zm-9.884-1.379a1.064,1.064,0,1,0,1.062-1.073A1.072,1.072,0,0,0,765.363,68.365Z" transform="translate(-753 -56)"/>
</svg>
