<svg xmlns="http://www.w3.org/2000/svg" width="10.031" height="17" viewBox="0 0 10.031 17">
  <defs>
    <style>
      .cls-1 {
        fill: #222c4c;
        fill-rule: evenodd;
      }
    </style>
  </defs>
  <path id="ok.svg" class="cls-1" d="M728.154,4741.35c-0.393-.13-0.8-0.23-1.177-0.39a12.118,12.118,0,0,1-1.316-.64,1.253,1.253,0,0,1-.451-1.8,1.324,1.324,0,0,1,1.829-.38,5.706,5.706,0,0,0,5.96,0,1.292,1.292,0,0,1,1.435,0,1.2,1.2,0,0,1,.578,1.26,1.284,1.284,0,0,1-.681.95,7.776,7.776,0,0,1-2.066.87c-0.131.04-.262,0.08-0.438,0.12,0.088,0.1.143,0.16,0.2,0.22,0.739,0.73,1.464,1.47,2.224,2.18a1.3,1.3,0,0,1,.065,1.89,1.348,1.348,0,0,1-1.924-.08c-0.73-.72-1.461-1.43-2.183-2.15a0.222,0.222,0,0,0-.391,0c-0.742.74-1.5,1.48-2.25,2.21a1.331,1.331,0,0,1-1.5.27,1.262,1.262,0,0,1-.734-1.3,1.3,1.3,0,0,1,.407-0.81c0.723-.7,1.444-1.42,2.17-2.12a1.819,1.819,0,0,1,.3-0.21Zm1.873-12.35a4.386,4.386,0,1,1-4.48,4.39A4.4,4.4,0,0,1,730.027,4729Zm-1.848,4.38a1.805,1.805,0,0,0,1.854,1.81A1.815,1.815,0,1,0,728.179,4733.38Z" transform="translate(-725 -4729)"/>
</svg>
