<svg id="ok2.svg" xmlns="http://www.w3.org/2000/svg" width="42.593" height="42.66" viewBox="0 0 42.593 42.66">
  <defs>
    <style>
      .cls-1 {
        fill: #e67817;
      }

      .cls-2 {
        fill: #fff;
        fill-rule: evenodd;
      }
    </style>
  </defs>
  <ellipse id="Ellipse_9_copy_9" data-name="Ellipse 9 copy 9" class="cls-1" cx="21.296" cy="21.33" rx="21.297" ry="21.33"/>
  <path id="ok" class="cls-2" d="M130.055,1656.82c-0.512-.17-1.038-0.3-1.533-0.51a13.578,13.578,0,0,1-1.713-.85,1.667,1.667,0,0,1-.588-2.38,1.707,1.707,0,0,1,2.382-.5,7.3,7.3,0,0,0,7.761-.01,1.693,1.693,0,0,1,1.869,0,1.618,1.618,0,0,1,.752,1.68,1.7,1.7,0,0,1-.886,1.26,10.557,10.557,0,0,1-2.69,1.15c-0.171.05-.342,0.1-0.571,0.16,0.114,0.13.186,0.21,0.265,0.29,0.962,0.96,1.906,1.95,2.9,2.88a1.71,1.71,0,1,1-2.422,2.4c-0.95-.95-1.9-1.89-2.841-2.85a0.292,0.292,0,0,0-.51,0c-0.967.99-1.949,1.96-2.931,2.93a1.718,1.718,0,0,1-1.946.36,1.713,1.713,0,0,1-.426-2.79c0.942-.94,1.88-1.88,2.825-2.82a4.129,4.129,0,0,1,.39-0.28Zm2.439-16.34a5.805,5.805,0,1,1-5.834,5.81A5.779,5.779,0,0,1,132.494,1640.48Zm-2.407,5.8a2.375,2.375,0,0,0,2.415,2.4,2.405,2.405,0,0,0-.008-4.81A2.383,2.383,0,0,0,130.087,1646.28Z" transform="translate(-111.438 -1631)"/>
</svg>
