<svg xmlns="http://www.w3.org/2000/svg" width="19" height="12" viewBox="0 0 19 12">
  <defs>
    <style>
      .cls-1 {
        fill: #ff4f2f;
        fill-rule: evenodd;
      }
    </style>
  </defs>
  <path id="orcrown.svg" class="cls-1" d="M83.008,718a0.73,0.73,0,0,1,.122.074q0.642,0.651,1.281,1.305l1.44,1.477q0.515,0.528,1.029,1.057c0.339,0.347.68,0.692,1.02,1.039,0.125,0.128.249,0.257,0.374,0.385a0.162,0.162,0,0,0,.275-0.013c0.261-.352.519-0.706,0.776-1.06s0.514-.71.772-1.065l1.065-1.464L92,718.587c0.11-.152.221-0.3,0.329-0.458s0.219-.167.337,0c0.382,0.525.76,1.052,1.142,1.576,0.321,0.441.647,0.878,0.967,1.319,0.337,0.465.669,0.933,1.006,1.4q0.325,0.45.656,0.895a0.174,0.174,0,0,0,.3.014q0.715-.729,1.428-1.46l1.271-1.3,1.385-1.417c0.346-.354.694-0.706,1.04-1.059a0.084,0.084,0,0,1,.021-0.021l0.1-.031a0.305,0.305,0,0,1,.02.1c-0.013.083-.032,0.164-0.052,0.246-0.11.464-.222,0.928-0.331,1.392-0.058.245-.111,0.491-0.168,0.735-0.065.28-.134,0.559-0.2,0.838s-0.117.529-.177,0.793c-0.056.245-.114,0.489-0.171,0.733q-0.1.418-.2,0.839l-0.243,1.046c-0.092.4-.183,0.8-0.276,1.2-0.083.354-.171,0.708-0.254,1.063-0.059.254-.112,0.509-0.171,0.763s-0.126.521-.188,0.781c-0.029.119-.057,0.238-0.083,0.357q-0.087.4-.172,0.793a0.318,0.318,0,0,1-.385.288H86.374c-0.139,0-.277,0-0.416,0a0.261,0.261,0,0,1-.264-0.217c-0.107-.472-0.213-0.944-0.321-1.415-0.12-.525-0.243-1.049-0.365-1.573-0.1-.415-0.191-0.83-0.288-1.245-0.133-.571-0.269-1.141-0.4-1.713-0.112-.483-0.219-0.968-0.329-1.452q-0.147-.651-0.3-1.3-0.144-.627-0.291-1.253c-0.083-.354-0.17-0.708-0.254-1.062q-0.076-.319-0.146-0.64A0.593,0.593,0,0,1,83.008,718Z" transform="translate(-83 -718)"/>
</svg>
