<?xml version="1.0" encoding="UTF-8" standalone="no"?>
<!-- Created with Inkscape (http://www.inkscape.org/) -->

<svg
   xmlns:dc="http://purl.org/dc/elements/1.1/"
   xmlns:cc="http://creativecommons.org/ns#"
   xmlns:rdf="http://www.w3.org/1999/02/22-rdf-syntax-ns#"
   xmlns:svg="http://www.w3.org/2000/svg"
   xmlns="http://www.w3.org/2000/svg"
   xmlns:sodipodi="http://sodipodi.sourceforge.net/DTD/sodipodi-0.dtd"
   xmlns:inkscape="http://www.inkscape.org/namespaces/inkscape"
   width="70"
   height="80"
   viewBox="0 0 70.000001 80.000001"
   id="svg2"
   version="1.1"
   inkscape:version="0.91 r13725"
   sodipodi:docname="paypal-icon_70x80.svg">
  <defs
     id="defs4">
    <style
       id="style4687">
      .cls-1 {
        fill: #fecb31;
      }

      .cls-1, .cls-2, .cls-3 {
        fill-rule: evenodd;
      }

      .cls-2 {
        fill: #cca74d;
      }
    </style>
  </defs>
  <sodipodi:namedview
     id="base"
     pagecolor="#ffffff"
     bordercolor="#666666"
     borderopacity="1.0"
     inkscape:pageopacity="0.0"
     inkscape:pageshadow="2"
     inkscape:zoom="0.35"
     inkscape:cx="-175"
     inkscape:cy="384.27346"
     inkscape:document-units="px"
     inkscape:current-layer="layer1"
     showgrid="false"
     units="px"
     inkscape:window-width="1920"
     inkscape:window-height="1017"
     inkscape:window-x="-8"
     inkscape:window-y="-8"
     inkscape:window-maximized="1" />
  <metadata
     id="metadata7">
    <rdf:RDF>
      <cc:Work
         rdf:about="">
        <dc:format>image/svg+xml</dc:format>
        <dc:type
           rdf:resource="http://purl.org/dc/dcmitype/StillImage" />
        <dc:title></dc:title>
      </cc:Work>
    </rdf:RDF>
  </metadata>
  <g
     inkscape:label="Layer 1"
     inkscape:groupmode="layer"
     id="layer1"
     transform="translate(0,-972.36214)">
    <g
       id="g4721"
       transform="matrix(0.24439177,0,0,0.25456858,4.9717438,976.13664)">
      <path
         id="path4707"
         d="M 217.168,23.507 C 203.234,7.625 178.046,0.816 145.823,0.816 l -93.52,0 A 13.393,13.393 0 0 0 39.076,12.11 L 0.136,259.077 c -0.774,4.87 2.997,9.28 7.933,9.28 l 57.736,0 14.5,-91.971 -0.45,2.88 c 1.033,-6.501 6.593,-11.296 13.177,-11.296 l 27.436,0 c 53.898,0 96.101,-21.892 108.429,-85.221 0.366,-1.873 0.683,-3.696 0.957,-5.477 -1.556,-0.824 -1.556,-0.824 0,0 3.671,-23.407 -0.025,-39.34 -12.686,-53.765"
         inkscape:connector-curvature="0"
         style="fill:#27346a" />
      <path
         id="path4709"
         d="m 102.397,68.84 a 11.737,11.737 0 0 1 5.053,-1.14 l 73.318,0 c 8.682,0 16.78,0.565 24.18,1.756 a 101.6,101.6 0 0 1 6.177,1.182 89.928,89.928 0 0 1 8.59,2.347 c 3.638,1.215 7.026,2.63 10.14,4.287 3.67,-23.416 -0.026,-39.34 -12.687,-53.765 C 203.226,7.625 178.046,0.816 145.823,0.816 l -93.528,0 C 45.71,0.816 40.108,5.61 39.076,12.11 L 0.136,259.068 c -0.774,4.878 2.997,9.282 7.925,9.282 l 57.744,0 30.083,-190.77 a 11.717,11.717 0 0 1 6.509,-8.74 z"
         inkscape:connector-curvature="0"
         style="fill:#27346a" />
      <path
         id="path4711"
         d="m 228.897,82.749 c -12.328,63.32 -54.53,85.221 -108.429,85.221 l -27.444,0 c -6.584,0 -12.145,4.795 -13.168,11.296 L 61.817,293.621 c -0.674,4.262 2.622,8.124 6.934,8.124 l 48.67,0 a 11.71,11.71 0 0 0 11.563,-9.88 l 0.474,-2.48 9.173,-58.136 0.591,-3.213 a 11.71,11.71 0 0 1 11.562,-9.88 l 7.284,0 c 47.147,0 84.064,-19.154 94.852,-74.55 4.503,-23.15 2.173,-42.478 -9.739,-56.054 -3.613,-4.112 -8.1,-7.508 -13.327,-10.28 -0.283,1.79 -0.59,3.604 -0.957,5.477 z"
         inkscape:connector-curvature="0"
         style="fill:#2790c3" />
      <path
         id="path4713"
         d="M 216.952,72.128"
         inkscape:connector-curvature="0"
         style="fill:#1f264f" />
    </g>
  </g>
</svg>
