<?xml version="1.0" encoding="utf-8"?>
<!-- Generator: Adobe Illustrator 18.0.0, SVG Export Plug-In . SVG Version: 6.00 Build 0)  -->
<!DOCTYPE svg PUBLIC "-//W3C//DTD SVG 1.1//EN" "http://www.w3.org/Graphics/SVG/1.1/DTD/svg11.dtd">
<svg version="1.1" id="Слой_1" xmlns="http://www.w3.org/2000/svg" xmlns:xlink="http://www.w3.org/1999/xlink" x="0px" y="0px"
	 viewBox="0 0 128 128.1" enable-background="new 0 0 128 128.1" xml:space="preserve">
<path fill="#E81D1D" d="M128,103c0,1.7,0,3.3,0,5c-4.7,6-10.5,10.9-15.8,16.3c-5,5.1-7.5,5.1-12.5,0.1
	C88.9,113.6,78,102.9,67.3,91.9c-2.6-2.7-4-2.7-6.7,0c-10.8,11.1-21.8,21.9-32.7,32.8c-4,4-7.1,4.5-10.4,1.3
	c-6-5.9-12.3-11.4-17.6-18c0-1.7,0-3.3,0-5c12.4-12.3,24.7-24.5,37.1-36.8c1.7-1.7,1.7-2.8,0-4.5C24.7,49.6,12.4,37.3,0,25
	c0-1.7,0-3.3,0-5C6.2,12.8,12.9,6.2,20,0c1.3,0,2.7,0,4,0c11.3,9.8,21.3,20.9,32,31.3c8.1,7.9,7.9,7.9,16.1,0
	C82.7,20.9,92.7,9.8,104,0c1.3,0,2.7,0,4,0c7.1,6.2,13.8,12.8,20,20c0,1.7,0,3.3,0,5c-12.4,12.3-24.7,24.6-37.1,36.8
	c-1.7,1.7-1.7,2.8,0,4.5C103.3,78.5,115.6,90.7,128,103z"/>
</svg>
