<svg id="r_ok.svg" xmlns="http://www.w3.org/2000/svg" width="44.32" height="45" viewBox="0 0 44.32 45">
  <defs>
    <style>
      .cls-1 {
        fill: #e67817;
      }

      .cls-2 {
        fill: #fefdf8;
        fill-rule: evenodd;
      }
    </style>
  </defs>
  <circle id="Ellipse_7_copy" data-name="Ellipse 7 copy" class="cls-1" cx="22.16" cy="22.5" r="22.16"/>
  <path id="ok" class="cls-2" d="M1145.79,610.256c-0.47-.158-0.96-0.285-1.41-0.479a12.4,12.4,0,0,1-1.58-.792,1.579,1.579,0,1,1,1.65-2.692,6.642,6.642,0,0,0,7.14,0,1.578,1.578,0,0,1,2.42,1.564,1.6,1.6,0,0,1-.82,1.174,9.725,9.725,0,0,1-2.48,1.076l-0.52.15c0.1,0.116.17,0.195,0.24,0.268,0.89,0.9,1.76,1.816,2.67,2.688a1.648,1.648,0,0,1,.07,2.338,1.573,1.573,0,0,1-2.3-.1c-0.88-.882-1.75-1.764-2.62-2.655a0.258,0.258,0,0,0-.46,0c-0.89.923-1.8,1.831-2.7,2.74a1.559,1.559,0,0,1-2.67-1.281,1.526,1.526,0,0,1,.49-0.991c0.86-.876,1.73-1.755,2.6-2.629a2.488,2.488,0,0,1,.35-0.261C1145.84,610.33,1145.81,610.292,1145.79,610.256Zm2.24-15.251a5.42,5.42,0,1,1-5.37,5.422A5.364,5.364,0,0,1,1148.03,595.005Zm-2.21,5.414a2.2,2.2,0,0,0,2.22,2.237,2.243,2.243,0,0,0-.01-4.485A2.2,2.2,0,0,0,1145.82,600.419Z" transform="translate(-1125.84 -583)"/>
</svg>
