<svg id="r_tw.svg" xmlns="http://www.w3.org/2000/svg" width="44.37" height="45" viewBox="0 0 44.37 45">
  <defs>
    <style>
      .cls-1 {
        fill: #00c0ff;
      }

      .cls-2 {
        fill: #fff;
        fill-rule: evenodd;
      }
    </style>
  </defs>
  <ellipse id="Ellipse_7_copy" data-name="Ellipse 7 copy" class="cls-1" cx="22.185" cy="22.5" rx="22.185" ry="22.5"/>
  <path id="tw" class="cls-2" d="M1217.01,600.9h0m-5.54-1.891a3.871,3.871,0,0,0-3.69,4.033,4.613,4.613,0,0,0,.09.919,10.246,10.246,0,0,1-7.61-4.215,4.4,4.4,0,0,0-.5,2.028,4.149,4.149,0,0,0,1.65,3.358,3.456,3.456,0,0,1-1.68-.5v0.051a3.968,3.968,0,0,0,2.97,3.955,3.41,3.41,0,0,1-.98.141,3.366,3.366,0,0,1-.69-0.072,3.75,3.75,0,0,0,3.45,2.8,7.044,7.044,0,0,1-4.59,1.726,6.729,6.729,0,0,1-.88-0.056,9.851,9.851,0,0,0,5.66,1.813c6.79,0,10.51-6.147,10.51-11.477,0-.175-0.01-0.35-0.02-0.522a7.892,7.892,0,0,0,1.85-2.088,7.029,7.029,0,0,1-2.12.635,4.03,4.03,0,0,0,1.62-2.231,6.967,6.967,0,0,1-2.34.978,3.573,3.573,0,0,0-2.7-1.273" transform="translate(-1185.44 -583)"/>
</svg>
