<svg id="r_vk.svg" xmlns="http://www.w3.org/2000/svg" width="44.37" height="45" viewBox="0 0 44.37 45">
  <defs>
    <style>
      .cls-1 {
        fill: #507299;
      }

      .cls-2 {
        fill: #fff;
        fill-rule: evenodd;
      }
    </style>
  </defs>
  <circle id="Ellipse_7_copy" data-name="Ellipse 7 copy" class="cls-1" cx="22.185" cy="22.5" r="22.185"/>
  <path id="vk" class="cls-2" d="M1089.28,603.255l-0.03,1.5a4.586,4.586,0,0,0,.08.979,1.067,1.067,0,0,0,.23.484,0.307,0.307,0,0,0,.45.086,2.012,2.012,0,0,0,.41-0.337,8.016,8.016,0,0,0,.97-1.369,18.957,18.957,0,0,0,1.61-3.406,1.237,1.237,0,0,1,.12-0.252,0.555,0.555,0,0,1,.52-0.3c0.34,0,.69,0,1.03,0,0.71,0,1.43-.01,2.15-0.011a4.687,4.687,0,0,1,.72.027,0.517,0.517,0,0,1,.46.715,3.692,3.692,0,0,1-.31.866,14.993,14.993,0,0,1-1.2,2.007c-0.48.694-.97,1.378-1.45,2.073a5.265,5.265,0,0,0-.37.656,0.865,0.865,0,0,0,.08.926,6.317,6.317,0,0,0,.72.828,18.55,18.55,0,0,1,1.76,1.954,5.634,5.634,0,0,1,.64,1.01,2.225,2.225,0,0,1,.13.362,0.615,0.615,0,0,1-.24.671,1.272,1.272,0,0,1-.74.241c-0.89.017-1.78,0.021-2.67,0.045a2.152,2.152,0,0,1-.86-0.109,2.9,2.9,0,0,1-1.13-.816c-0.33-.366-0.63-0.752-0.95-1.12-0.22-.255-0.46-0.5-0.69-0.738a1.017,1.017,0,0,0-.27-0.177,0.52,0.52,0,0,0-.67.131,1.419,1.419,0,0,0-.3.553,4.074,4.074,0,0,0-.18,1.1c-0.01.171-.02,0.343-0.04,0.512a0.6,0.6,0,0,1-.42.536,1.492,1.492,0,0,1-.42.084c-0.41.011-.82,0.007-1.22,0a5.986,5.986,0,0,1-2.31-.509,7.9,7.9,0,0,1-3.02-2.3,19.609,19.609,0,0,1-1.93-2.818,46.981,46.981,0,0,1-2.85-5.839,1.364,1.364,0,0,1-.08-0.349,0.336,0.336,0,0,1,.23-0.416,1.561,1.561,0,0,1,.5-0.1c0.84-.016,1.68-0.017,2.53-0.023,0.08,0,.16,0,0.25,0a0.959,0.959,0,0,1,.95.68,20.315,20.315,0,0,0,2.07,4.109,7.1,7.1,0,0,0,.6.742,0.99,0.99,0,0,0,.33.229,0.389,0.389,0,0,0,.52-0.2,1.987,1.987,0,0,0,.2-0.635,9.18,9.18,0,0,0,.1-1.572c-0.01-.541-0.04-1.081-0.07-1.621a2.282,2.282,0,0,0-.09-0.442,1.091,1.091,0,0,0-.79-0.857c-0.09-.029-0.18-0.049-0.27-0.069s-0.12-.06-0.07-0.159a1.076,1.076,0,0,1,.45-0.463,1.9,1.9,0,0,1,.71-0.231,13.376,13.376,0,0,1,2.28-.077,4.55,4.55,0,0,1,1.13.147,0.907,0.907,0,0,1,.73.894,10.092,10.092,0,0,1,.01,1.347l-0.03.833h0Z" transform="translate(-1065.91 -583)"/>
</svg>
