<svg id="tele.svg" xmlns="http://www.w3.org/2000/svg" width="42.593" height="42.66" viewBox="0 0 42.593 42.66">
  <defs>
    <style>
      .cls-1 {
        fill: #3da3ed;
      }

      .cls-2 {
        fill: #fff;
        fill-rule: evenodd;
      }
    </style>
  </defs>
  <circle id="Ellipse_9_copy_14" data-name="Ellipse 9 copy 14" class="cls-1" cx="21.297" cy="21.33" r="21.297"/>
  <path class="cls-2" d="M197.006,1699.31c-0.057.29-.135,0.7-0.224,1.11q-1.64,7.62-3.282,15.22a3.769,3.769,0,0,1-.206.69,0.977,0.977,0,0,1-1.287.6,2.918,2.918,0,0,1-.821-0.43q-2.321-1.665-4.62-3.36a0.386,0.386,0,0,0-.592.04c-0.745.74-1.51,1.45-2.263,2.18a1.43,1.43,0,0,1-1.117.48,0.561,0.561,0,0,1-.633-0.48c-0.644-1.95-1.3-3.89-1.926-5.85a0.791,0.791,0,0,0-.584-0.56q-2.257-.675-4.5-1.38a2.6,2.6,0,0,1-.659-0.3,0.507,0.507,0,0,1-.086-0.86,3.613,3.613,0,0,1,1.01-.61c2.846-1.1,5.7-2.18,8.555-3.27q5.8-2.19,11.593-4.4A1.119,1.119,0,0,1,197.006,1699.31Zm-14.442,14.85c0.021,0,.041-0.01.061-0.01a2,2,0,0,0,.037-0.2c0.1-1.04.2-2.09,0.291-3.13a0.751,0.751,0,0,1,.281-0.54c0.919-.81,1.829-1.63,2.743-2.44l5.745-5.1c0.355-.32.709-0.64,1.056-0.96a0.226,0.226,0,0,0,.074-0.19,0.2,0.2,0,0,0-.195-0.08,1.622,1.622,0,0,0-.573.19q-5.51,3.4-11.011,6.83a0.386,0.386,0,0,0-.2.54c0.4,1.17.783,2.36,1.173,3.54C182.215,1713.13,182.391,1713.64,182.564,1714.16Z" transform="translate(-165.969 -1685.34)"/>
</svg>
