<svg id="twit2.svg" xmlns="http://www.w3.org/2000/svg" width="42.594" height="42.66" viewBox="0 0 42.594 42.66">
  <defs>
    <style>
      .cls-1 {
        fill: #00c0ff;
      }

      .cls-2 {
        fill: #fff;
        fill-rule: evenodd;
      }
    </style>
  </defs>
  <ellipse id="Ellipse_9_copy_10" data-name="Ellipse 9 copy 10" class="cls-1" cx="21.297" cy="21.33" rx="21.297" ry="21.33"/>
  <path id="tw" class="cls-2" d="M197.007,1646.13h0m-5.853-2.13c-2.155,0-3.9,2.03-3.9,4.54a5.242,5.242,0,0,0,.1,1.04,10.654,10.654,0,0,1-8.044-4.75,5.076,5.076,0,0,0-.529,2.28,4.8,4.8,0,0,0,1.736,3.79,3.547,3.547,0,0,1-1.767-.57c0,0.02,0,.04,0,0.06a4.427,4.427,0,0,0,3.131,4.45,3.518,3.518,0,0,1-1.028.16,3.574,3.574,0,0,1-.735-0.08,4.027,4.027,0,0,0,3.646,3.15,7.034,7.034,0,0,1-5.778,1.89,10.01,10.01,0,0,0,5.983,2.04c7.178,0,11.1-6.93,11.1-12.93,0-.2,0-0.39-0.012-0.59a8.763,8.763,0,0,0,1.948-2.35,6.993,6.993,0,0,1-2.242.71,4.486,4.486,0,0,0,1.716-2.51,7.121,7.121,0,0,1-2.478,1.1,3.671,3.671,0,0,0-2.849-1.43" transform="translate(-165.875 -1631)"/>
</svg>
