<svg xmlns="http://www.w3.org/2000/svg" width="65" height="64.97" viewBox="0 0 65 64.97">
  <defs>
    <style>
      .cls-1 {
        fill: #006ab4;
        fill-rule: evenodd;
      }
    </style>
  </defs>
  <path id="v_webm.svg" class="cls-1" d="M228.682,2525.11c-1.507-1.64-2.97-3.23-4.475-4.87-0.185.15-.348,0.26-0.494,0.39q-6.626,5.97-13.254,11.94c-0.42.37-.258,0.58,0.024,0.89q3.861,4.23,7.706,8.48c0.275,0.31.539,0.62,0.871,1-0.307.29-.581,0.56-0.866,0.81-0.708.63-1.4,1.29-2.142,1.88-0.439.35-.408,0.59-0.054,0.99,2.364,2.62,4.708,5.26,7.058,7.9,0.344,0.38.669,0.78,1.033,1.15a0.465,0.465,0,0,1-.053.81c-0.894.76-1.758,1.56-2.651,2.33a0.5,0.5,0,0,0-.073.86q6.033,6.7,12.048,13.41c0.093,0.1.21,0.19,0.36,0.32,0.847-.78,1.68-1.55,2.512-2.31,1.521-1.4,3.05-2.78,4.555-4.2a0.506,0.506,0,0,1,.89.04c1.874,2.17,3.761,4.34,5.675,6.48,0.39,0.43.305,0.61-.126,0.93a33.341,33.341,0,0,1-9.24,4.91,32.225,32.225,0,0,1-14.092,1.54,31.683,31.683,0,0,1-10.575-3.07,32.221,32.221,0,0,1-15.421-15.88,31.57,31.57,0,0,1-2.659-17.17,32.455,32.455,0,0,1,45.025-26.04c1.147,0.49,2.251,1.08,3.5,1.68-0.82.75-1.524,1.4-2.242,2.03-0.876.78-.644,0.76-1.417-0.03-1.127-1.15-2.25-2.3-3.352-3.48a0.57,0.57,0,0,0-.964-0.04c-2.174,1.97-4.372,3.91-6.563,5.86C229.069,2524.78,228.912,2524.91,228.682,2525.11Zm6.08,27.82a2.729,2.729,0,0,1,.345.27q3.169,3.51,6.337,7.03a0.4,0.4,0,0,1-.051.67q-3.5,3.135-6.986,6.29c-0.315.29-.5,0.22-0.758-0.07q-3.091-3.465-6.207-6.9a0.474,0.474,0,0,1,.059-0.81q3.44-3.06,6.857-6.16C234.477,2553.14,234.61,2553.05,234.762,2552.93Zm-10.987-26.55a3.48,3.48,0,0,1,.384.34c2.072,2.3,4.137,4.61,6.217,6.9a0.426,0.426,0,0,1-.022.72q-3.528,3.165-7.042,6.34c-0.352.32-.5,0.07-0.689-0.14-2.056-2.29-4.1-4.59-6.176-6.86a0.491,0.491,0,0,1,.042-0.85c1.837-1.63,3.659-3.28,5.485-4.92,0.461-.41.915-0.84,1.379-1.25A3.96,3.96,0,0,1,223.775,2526.38Zm12.406,20.81a4.682,4.682,0,0,1-.339.38q-3.47,3.135-6.939,6.26a0.411,0.411,0,0,1-.713-0.04q-3.156-3.525-6.329-7.04a0.358,0.358,0,0,1,.053-0.61q3.548-3.18,7.084-6.38c0.351-.32.507-0.04,0.694,0.16,1.439,1.6,2.873,3.19,4.309,4.79,0.608,0.67,1.218,1.34,1.823,2.02A5.322,5.322,0,0,1,236.181,2547.19Zm-0.733-11.98c-0.124-.11-0.238-0.2-0.331-0.3-1.507-1.67-3.006-3.35-4.522-5.01a0.441,0.441,0,0,1,.02-0.76q2.544-2.265,5.058-4.56a0.389,0.389,0,0,1,.664.04q2.285,2.565,4.594,5.11a0.389,0.389,0,0,1-.059.66q-2.562,2.3-5.112,4.59C235.672,2535.06,235.566,2535.12,235.448,2535.21Zm10.292,23.98c-1.69-1.88-3.319-3.68-4.924-5.51a0.583,0.583,0,0,1,.057-0.56c1.7-1.56,3.413-3.11,5.146-4.63a0.6,0.6,0,0,1,.592.05q2.346,2.55,4.635,5.15a0.532,0.532,0,0,1,.012.51C249.453,2555.86,247.628,2557.49,245.74,2559.19Zm5.042,11.62c-0.392-.42-0.815-0.87-1.226-1.32-1.175-1.31-2.336-2.62-3.523-3.91a0.5,0.5,0,0,1,.032-0.86c1.653-1.47,3.294-2.94,4.924-4.43a0.469,0.469,0,0,1,.81.03c1.5,1.68,3.012,3.34,4.5,5.03a0.622,0.622,0,0,1,.008.6c-1.762,1.62-3.549,3.21-5.333,4.81A0.9,0.9,0,0,1,250.782,2570.81Zm-9.983-23.88c-0.357-.39-0.662-0.72-0.963-1.05-1.286-1.43-2.561-2.86-3.863-4.27-0.31-.34-0.321-0.55.027-0.85q2.5-2.22,4.968-4.48a0.438,0.438,0,0,1,.756.05q2.247,2.52,4.512,5.02c0.219,0.24.283,0.42,0.009,0.67C244.449,2543.63,242.661,2545.25,240.8,2546.93Zm12.113,2.83c1.245-1.12,2.417-2.18,3.607-3.23a0.475,0.475,0,0,1,.46.04c1.009,1.08,2,2.18,2.976,3.31a0.556,0.556,0,0,1-.068.54c-1.053.99-2.124,1.95-3.214,2.9a0.554,0.554,0,0,1-.544-0.01C255.064,2552.17,254.026,2551,252.912,2549.76Zm-1.089-14.87c0.118,0.11.231,0.19,0.323,0.29,0.942,1.04,1.875,2.09,2.822,3.12a0.4,0.4,0,0,1-.025.67c-1.076.96-2.138,1.94-3.226,2.89a0.519,0.519,0,0,1-.5-0.01c-1.013-1.08-2.007-2.19-2.982-3.3a0.528,0.528,0,0,1,.006-0.51c1.085-1.01,2.194-1.99,3.3-2.98A1.774,1.774,0,0,1,251.823,2534.89Zm-1.565-7.71c-0.126.14-.226,0.27-0.345,0.38-1.006.91-2.023,1.81-3.018,2.74a0.439,0.439,0,0,1-.753-0.05c-0.912-1.04-1.841-2.06-2.773-3.08a0.415,0.415,0,0,1,.024-0.71c1.065-.94,2.1-1.92,3.174-2.85a0.6,0.6,0,0,1,.589.05c0.988,1.04,1.946,2.12,2.908,3.2A1.8,1.8,0,0,1,250.258,2527.18Z" transform="translate(-195 -2516)"/>
</svg>
