<svg id="viber.svg" xmlns="http://www.w3.org/2000/svg" width="42.594" height="42.66" viewBox="0 0 42.594 42.66">
  <defs>
    <style>
      .cls-1 {
        fill: #7d4ea2;
      }

      .cls-2 {
        fill: #fff;
        fill-rule: evenodd;
      }
    </style>
  </defs>
  <circle id="Ellipse_9_copy_13" data-name="Ellipse 9 copy 13" class="cls-1" cx="21.297" cy="21.33" r="21.297"/>
  <path class="cls-2" d="M127.514,1720.94c-0.012-.13-0.033-0.26-0.033-0.4-0.008-1.33-.02-2.67-0.011-4.01a0.526,0.526,0,0,0-.348-0.56c-0.331-.14-0.653-0.3-0.982-0.44a6.141,6.141,0,0,1-3.342-3.56,13.366,13.366,0,0,1-.779-4.27,22.65,22.65,0,0,1,.43-5.58,6.7,6.7,0,0,1,4.443-5.08,15.637,15.637,0,0,1,5.279-1.03,22.8,22.8,0,0,1,7.485.85,9.112,9.112,0,0,1,1.129.42,5.824,5.824,0,0,1,3.513,4.01,19.71,19.71,0,0,1,.084,9.89,6.262,6.262,0,0,1-4.848,4.83,21.987,21.987,0,0,1-6.706.72,2.107,2.107,0,0,0-1.8.66c-0.849.92-1.689,1.84-2.539,2.76-0.272.3-.56,0.58-0.841,0.86C127.6,1720.99,127.558,1720.96,127.514,1720.94Zm-1.72-18.49a8.2,8.2,0,0,0,.284,1.11,18.876,18.876,0,0,0,10.647,10.56,1.824,1.824,0,0,0,1.4.08,3.557,3.557,0,0,0,2.076-1.83,1.166,1.166,0,0,0-.353-1.62c-0.721-.57-1.459-1.12-2.228-1.62a1.494,1.494,0,0,0-2.279.44,1.04,1.04,0,0,1-1.488.41,12.423,12.423,0,0,1-1.883-1.15,5.6,5.6,0,0,1-1.784-2.41,1.254,1.254,0,0,1,.5-1.72,2.962,2.962,0,0,0,.349-0.27,1,1,0,0,0,.289-1.25,8.6,8.6,0,0,0-2.208-2.95,1.356,1.356,0,0,0-.869-0.29A2.714,2.714,0,0,0,125.794,1702.45Zm14.444,3.72a6.712,6.712,0,0,0-3.159-5.38,6.238,6.238,0,0,0-3.662-1.06,0.39,0.39,0,0,0-.445.39c-0.02.28,0.182,0.34,0.406,0.37,0.3,0.05.61,0.08,0.911,0.14a5.568,5.568,0,0,1,4.9,4.42c0.132,0.58.194,1.17,0.281,1.76a0.37,0.37,0,0,0,.391.37,0.357,0.357,0,0,0,.377-0.38C140.248,1706.59,140.238,1706.38,140.238,1706.17Zm-1.793-.46h0.015c-0.022-.2-0.032-0.41-0.069-0.62a4.049,4.049,0,0,0-.151-0.57,4.763,4.763,0,0,0-4.25-3.09,0.4,0.4,0,0,0-.476.36,0.385,0.385,0,0,0,.376.45c0.33,0.07.663,0.13,0.992,0.21a3.3,3.3,0,0,1,2.647,2.76c0.056,0.3.1,0.6,0.148,0.9a0.365,0.365,0,0,0,.393.39,0.361,0.361,0,0,0,.374-0.41C138.447,1705.96,138.445,1705.84,138.445,1705.71Zm-1.688-.24a2.436,2.436,0,0,0-2.018-2.26,0.653,0.653,0,0,0-.372.03,0.683,0.683,0,0,0-.309.38,0.637,0.637,0,0,0,.289.33,0.736,0.736,0,0,0,.3.07,1.552,1.552,0,0,1,1.274,1.32,0.973,0.973,0,0,0,.116.41,0.483,0.483,0,0,0,.352.2,0.479,0.479,0,0,0,.3-0.22A0.582,0.582,0,0,0,136.757,1705.47Z" transform="translate(-111.531 -1685.34)"/>
</svg>
