<svg xmlns="http://www.w3.org/2000/svg" width="17" height="10" viewBox="0 0 17 10">
  <defs>
    <style>
      .cls-1 {
        fill: #222c4c;
        fill-rule: evenodd;
      }
    </style>
  </defs>
  <path id="vk.svg" class="cls-1" d="M681.929,4735.51c-0.007.38-.015,0.77-0.02,1.15a2.9,2.9,0,0,0,.061.75,0.844,0.844,0,0,0,.184.38,0.26,0.26,0,0,0,.369.06,1.644,1.644,0,0,0,.33-0.26,6.133,6.133,0,0,0,.784-1.05,14.448,14.448,0,0,0,1.3-2.61,1.148,1.148,0,0,1,.094-0.2,0.456,0.456,0,0,1,.422-0.23c0.278,0,.556,0,0.835-0.01h1.735a3.828,3.828,0,0,1,.587.02,0.4,0.4,0,0,1,.368.55,2.49,2.49,0,0,1-.249.66,11.022,11.022,0,0,1-.973,1.54c-0.387.54-.784,1.06-1.17,1.6a3.677,3.677,0,0,0-.3.5,0.645,0.645,0,0,0,.063.71,4.472,4.472,0,0,0,.589.64,14.965,14.965,0,0,1,1.423,1.5,4.652,4.652,0,0,1,.514.77,1.6,1.6,0,0,1,.106.28,0.463,0.463,0,0,1-.195.52,1.07,1.07,0,0,1-.6.18c-0.72.02-1.44,0.02-2.16,0.04a1.8,1.8,0,0,1-.691-0.09,2.32,2.32,0,0,1-.919-0.62c-0.26-.28-0.5-0.58-0.764-0.86-0.18-.2-0.369-0.39-0.561-0.57a0.873,0.873,0,0,0-.213-0.14,0.452,0.452,0,0,0-.546.1,1.08,1.08,0,0,0-.243.43,3.141,3.141,0,0,0-.148.84c-0.008.13-.011,0.27-0.028,0.4a0.478,0.478,0,0,1-.34.41,1.342,1.342,0,0,1-.342.06c-0.329.01-.658,0.01-0.987,0.01a5.21,5.21,0,0,1-1.865-.4,6.4,6.4,0,0,1-2.448-1.77,15.729,15.729,0,0,1-1.561-2.16,34.659,34.659,0,0,1-2.3-4.49,0.891,0.891,0,0,1-.066-0.27,0.254,0.254,0,0,1,.187-0.31,1.156,1.156,0,0,1,.407-0.08c0.68-.01,1.36-0.01,2.04-0.02h0.2a0.775,0.775,0,0,1,.773.52,15.116,15.116,0,0,0,1.673,3.16,5.413,5.413,0,0,0,.481.57,0.889,0.889,0,0,0,.271.17,0.316,0.316,0,0,0,.416-0.15,1.435,1.435,0,0,0,.161-0.49,5.933,5.933,0,0,0,.082-1.2c-0.009-.42-0.032-0.83-0.057-1.25a2.047,2.047,0,0,0-.068-0.34,0.876,0.876,0,0,0-.642-0.66c-0.072-.02-0.146-0.03-0.219-0.05s-0.1-.05-0.059-0.12a0.91,0.91,0,0,1,.365-0.36,1.7,1.7,0,0,1,.581-0.18,11.28,11.28,0,0,1,1.838-.05,3.555,3.555,0,0,1,.918.11,0.7,0.7,0,0,1,.586.69,6.811,6.811,0,0,1,.008,1.03c-0.006.21-.016,0.43-0.024,0.64h0Z" transform="translate(-672 -4733)"/>
</svg>
