<svg id="vk2.svg" xmlns="http://www.w3.org/2000/svg" width="42.594" height="42.66" viewBox="0 0 42.594 42.66">
  <defs>
    <style>
      .cls-1 {
        fill: #507299;
      }

      .cls-2 {
        fill: #fff;
        fill-rule: evenodd;
      }
    </style>
  </defs>
  <circle id="Ellipse_9_copy" data-name="Ellipse 9 copy" class="cls-1" cx="21.297" cy="21.33" r="21.297"/>
  <path id="vk" class="cls-2" d="M79.6,1649.97c-0.009.55-.02,1.09-0.027,1.64a4.636,4.636,0,0,0,.08,1.07,1.138,1.138,0,0,0,.244.52,0.331,0.331,0,0,0,.488.1,2.275,2.275,0,0,0,.437-0.37,8.92,8.92,0,0,0,1.038-1.49,21.192,21.192,0,0,0,1.721-3.72,1.8,1.8,0,0,1,.125-0.28,0.593,0.593,0,0,1,.558-0.33c0.368,0,.736,0,1.1-0.01,0.765,0,1.53-.01,2.3-0.01a5.018,5.018,0,0,1,.776.03,0.564,0.564,0,0,1,.486.78,3.627,3.627,0,0,1-.329.95,16.885,16.885,0,0,1-1.287,2.19c-0.512.76-1.038,1.5-1.548,2.26a5.964,5.964,0,0,0-.4.72,0.975,0.975,0,0,0,.084,1.01,6.633,6.633,0,0,0,.778.91,20.557,20.557,0,0,1,1.883,2.13,6.837,6.837,0,0,1,.679,1.1,2.065,2.065,0,0,1,.14.4,0.666,0.666,0,0,1-.257.73,1.37,1.37,0,0,1-.795.27c-0.952.01-1.9,0.02-2.856,0.04a2.359,2.359,0,0,1-.915-0.11,3.138,3.138,0,0,1-1.215-.9c-0.345-.4-0.668-0.82-1.011-1.22-0.238-.28-0.489-0.54-0.742-0.81a1.064,1.064,0,0,0-.282-0.19,0.553,0.553,0,0,0-.723.14,1.559,1.559,0,0,0-.321.61,4.854,4.854,0,0,0-.2,1.2c-0.011.18-.013,0.37-0.037,0.56a0.662,0.662,0,0,1-.45.58,1.422,1.422,0,0,1-.452.09c-0.435.01-.87,0.01-1.306,0.01a6.415,6.415,0,0,1-2.466-.56,8.406,8.406,0,0,1-3.238-2.52,22.365,22.365,0,0,1-2.065-3.07,51.493,51.493,0,0,1-3.044-6.38,1.463,1.463,0,0,1-.087-0.38,0.388,0.388,0,0,1,.248-0.46,1.993,1.993,0,0,1,.538-0.11c0.9-.01,1.8-0.01,2.7-0.02h0.272a1.018,1.018,0,0,1,1.021.74,22.289,22.289,0,0,0,2.214,4.49,7.383,7.383,0,0,0,.636.81,1.068,1.068,0,0,0,.359.25,0.406,0.406,0,0,0,.55-0.22,2.111,2.111,0,0,0,.212-0.69,9.212,9.212,0,0,0,.109-1.72c-0.012-.59-0.042-1.18-0.076-1.77a3.01,3.01,0,0,0-.09-0.48,1.2,1.2,0,0,0-.849-0.94,2.909,2.909,0,0,0-.29-0.07c-0.106-.03-0.13-0.07-0.078-0.18a1.217,1.217,0,0,1,.482-0.5,1.943,1.943,0,0,1,.768-0.25,13.177,13.177,0,0,1,2.431-.09,4.988,4.988,0,0,1,1.214.16,0.984,0.984,0,0,1,.775.98,10.483,10.483,0,0,1,.01,1.47c-0.008.3-.021,0.61-0.032,0.91h0Z" transform="translate(-57 -1631)"/>
</svg>
