<svg id="watsapp.svg" xmlns="http://www.w3.org/2000/svg" width="42.594" height="42.66" viewBox="0 0 42.594 42.66">
  <defs>
    <style>
      .cls-1 {
        fill: #13d615;
      }

      .cls-2 {
        fill: #fff;
        fill-rule: evenodd;
      }
    </style>
  </defs>
  <ellipse id="Ellipse_9_copy_12" data-name="Ellipse 9 copy 12" class="cls-1" cx="21.297" cy="21.33" rx="21.297" ry="21.33"/>
  <path class="cls-2" d="M65.555,1719.52c0.7-2.06,1.382-4.09,2.082-6.12a0.76,0.76,0,0,0-.067-0.71,11.618,11.618,0,0,1-1.488-4.61A12.2,12.2,0,0,1,90,1703.65a12.139,12.139,0,0,1-9.417,15,12.121,12.121,0,0,1-8.163-1.21,0.325,0.325,0,0,0-.256-0.01c-2.145.67-4.289,1.36-6.433,2.04C65.682,1719.48,65.632,1719.5,65.555,1719.52Zm3.168-3.1a0.891,0.891,0,0,0,.153-0.05c1.191-.38,2.382-0.75,3.57-1.14a0.353,0.353,0,0,1,.329.05,10.035,10.035,0,0,0,7.165,1.42,9.639,9.639,0,0,0,5.128-2.51,9.8,9.8,0,0,0,3.112-9.28,9.578,9.578,0,0,0-3.712-6.07,9.949,9.949,0,0,0-7.855-2.03,9.623,9.623,0,0,0-5,2.3,9.869,9.869,0,0,0-3.461,9,9.605,9.605,0,0,0,1.766,4.47,0.29,0.29,0,0,1,.03.22c-0.136.42-.283,0.84-0.427,1.27C69.256,1714.84,68.995,1715.61,68.723,1716.42Zm3.388-12.57a3.5,3.5,0,0,1,1.266-2.73,1.174,1.174,0,0,1,.985-0.27c0.145,0.01.292,0.03,0.438,0.03a0.493,0.493,0,0,1,.509.3c0.1,0.2.176,0.42,0.257,0.63,0.254,0.67.5,1.34,0.758,2a0.619,0.619,0,0,1-.031.52,3.9,3.9,0,0,1-.8.99,0.48,0.48,0,0,0-.105.75,8.329,8.329,0,0,0,3.876,3.64c0.592,0.27.619,0.28,1.046-.2,0.287-.33.566-0.66,0.846-0.98a0.4,0.4,0,0,1,.517-0.16,4.289,4.289,0,0,1,.489.22c0.691,0.36,1.376.73,2.069,1.08a0.524,0.524,0,0,1,.318.56,2.41,2.41,0,0,1-1.216,2.08,3.5,3.5,0,0,1-2.03.51,5.667,5.667,0,0,1-1.329-.35,12.574,12.574,0,0,1-2.914-1.37,13.227,13.227,0,0,1-3.55-3.73,9.431,9.431,0,0,1-1.156-2.16A4.469,4.469,0,0,1,72.111,1703.85Z" transform="translate(-57.094 -1685.34)"/>
</svg>
